<svg xmlns="http://www.w3.org/2000/svg" width="1423" height="2911" viewBox="0 0 1423 2911" fill="white">
  <circle cx="126" cy="16" r="1"/>
  <circle cx="560" cy="111" r="1"/>
  <circle cx="158" cy="155" r="1"/>
  <circle cx="182" cy="965" r="1"/>
  <circle cx="182" cy="2003" r="1"/>
  <circle cx="192" cy="2642" r="1"/>
  <circle cx="1" cy="93" r="1"/>
  <circle cx="89" cy="260" r="1"/>
  <circle cx="81" cy="1102" r="1"/>
  <circle cx="24" cy="2017" r="1"/>
  <circle cx="557" cy="376" r="1"/>
  <circle cx="613" cy="1154" r="1"/>
  <circle cx="1040" cy="1657" r="1"/>
  <circle cx="685" cy="2256" r="1"/>
  <circle cx="581" cy="2262" r="1"/>
  <circle cx="742" cy="420" r="1"/>
  <circle cx="798" cy="1198" r="1"/>
  <circle cx="798" cy="2236" r="1"/>
  <circle cx="701" cy="2531" r="1"/>
  <circle cx="952" cy="104" r="1"/>
  <circle cx="1055" cy="253" r="1"/>
  <circle cx="1039" cy="1087" r="1"/>
  <circle cx="1039" cy="2125" r="1"/>
  <circle cx="1069" cy="49" r="1"/>
  <circle cx="1157" cy="9" r="1"/>
  <circle cx="967" cy="584" r="1"/>
  <circle cx="303" cy="1328" r="1"/>
  <circle cx="435" cy="2766" r="1"/>
  <circle cx="734" cy="1977" r="1"/>
  <circle cx="679" cy="1496" r="1"/>
  <circle cx="1284" cy="1843" r="1"/>
  <circle cx="1010" cy="1793" r="1"/>
  <circle cx="867" cy="170" r="1"/>
  <circle cx="859" cy="988" r="1"/>
  <circle cx="1341" cy="948" r="1"/>
  <circle cx="859" cy="2026" r="1"/>
  <circle cx="393" cy="837" r="1"/>
  <circle cx="1226" cy="258" r="1"/>
  <circle cx="1226" cy="1100" r="1"/>
  <circle cx="1226" cy="2138" r="1"/>
  <circle cx="11" cy="337" r="1"/>
  <circle cx="171" cy="1139" r="1"/>
  <circle cx="70" cy="2123" r="1"/>
  <circle cx="1193" cy="169" r="1"/>
  <circle cx="1193" cy="1011" r="1"/>
  <circle cx="1193" cy="2049" r="1"/>
  <circle cx="1388" cy="185" r="1"/>
  <circle cx="1396" cy="1019" r="1"/>
  <circle cx="1396" cy="2057" r="1"/>
  <circle cx="171" cy="418" r="1"/>
  <circle cx="215" cy="2129" r="1"/>
  <circle cx="273" cy="2816" r="1"/>
  <circle cx="171" cy="1260" r="1"/>
  <circle cx="171" cy="2298" r="1"/>
  <circle cx="274" cy="143" r="1"/>
  <circle cx="298" cy="953" r="1"/>
  <circle cx="298" cy="1991" r="1"/>
  <circle opacity="0.5" cx="74" cy="48" r="1"/>
  <circle opacity="0.5" cx="502" cy="63" r="1"/>
  <circle opacity="0.5" cx="201" cy="203" r="1"/>
  <circle opacity="0.5" cx="225" cy="1013" r="1"/>
  <circle opacity="0.5" cx="225" cy="2051" r="1"/>
  <circle opacity="0.5" cx="283" cy="2738" r="1"/>
  <circle opacity="0.5" cx="98" cy="66" r="1"/>
  <circle opacity="0.5" cx="1258" cy="67" r="1"/>
  <circle opacity="0.5" cx="1402" cy="11" r="1"/>
  <circle opacity="0.5" cx="1361" cy="97" r="1"/>
  <circle opacity="0.5" cx="1337" cy="1" r="1"/>
  <circle opacity="0.5" cx="1273" cy="320" r="1"/>
  <circle opacity="0.5" cx="1281" cy="1154" r="1"/>
  <circle opacity="0.5" cx="1281" cy="2192" r="1"/>
  <circle opacity="0.5" cx="1305" cy="199" r="1"/>
  <circle opacity="0.5" cx="1313" cy="1033" r="1"/>
  <circle opacity="0.5" cx="1313" cy="2071" r="1"/>
  <circle opacity="0.5" cx="907" cy="79" r="1"/>
  <circle opacity="0.5" cx="859" cy="55" r="1"/>
  <circle opacity="0.5" cx="588" cy="325" r="1"/>
  <circle opacity="0.5" cx="644" cy="1103" r="1"/>
  <circle opacity="0.5" cx="1071" cy="1606" r="1"/>
  <circle opacity="0.5" cx="668" cy="2179" r="1"/>
  <circle opacity="0.5" cx="571" cy="2474" r="1"/>
  <circle opacity="0.5" cx="112" cy="385" r="1"/>
  <circle opacity="0.5" cx="112" cy="1227" r="1"/>
  <circle opacity="0.5" cx="112" cy="2265" r="1"/>
  <circle opacity="0.5" cx="1120" cy="144" r="1"/>
  <circle opacity="0.5" cx="1120" cy="986" r="1"/>
  <circle opacity="0.5" cx="503" cy="1643" r="1"/>
  <circle opacity="0.5" cx="1406" cy="1732" r="1"/>
  <circle opacity="0.5" cx="1229" cy="2421" r="1"/>
  <circle opacity="0.5" cx="231" cy="1451" r="1"/>
  <circle opacity="0.5" cx="864" cy="2212" r="1"/>
  <circle opacity="0.5" cx="1120" cy="2024" r="1"/>
  <circle opacity="0.5" cx="937" cy="296" r="1"/>
  <circle opacity="0.5" cx="273" cy="1040" r="1"/>
  <circle opacity="0.5" cx="937" cy="1138" r="1"/>
  <circle opacity="0.5" cx="937" cy="2176" r="1"/>
  <circle opacity="0.5" cx="471" cy="987" r="1"/>
  <circle opacity="0.5" cx="889" cy="2128" r="1"/>
  <circle opacity="0.5" cx="423" cy="939" r="1"/>
  <circle opacity="0.5" cx="1057" cy="2192" r="1"/>
  <circle opacity="0.5" cx="1331" cy="342" r="1"/>
  <circle opacity="0.5" cx="1339" cy="1176" r="1"/>
  <circle opacity="0.5" cx="1339" cy="2214" r="1"/>
  <circle opacity="0.5" cx="1351" cy="282" r="1"/>
  <circle opacity="0.5" cx="1359" cy="1116" r="1"/>
  <circle opacity="0.5" cx="1359" cy="2154" r="1"/>
  <circle opacity="0.25" cx="658" cy="55" r="1"/>
  <circle opacity="0.25" cx="747" cy="97" r="1"/>
  <circle opacity="0.25" cx="502" cy="311" r="1"/>
  <circle opacity="0.25" cx="558" cy="1089" r="1"/>
  <circle opacity="0.25" cx="582" cy="2165" r="1"/>
  <circle cx="656" cy="192" r="1"/>
  <circle cx="616" cy="818" r="1"/>
  <circle cx="1043" cy="1321" r="1"/>
  <circle cx="967" cy="1978" r="1"/>
  <circle cx="501" cy="789" r="1"/>
  <circle cx="1094" cy="2319" r="1"/>
  <circle cx="641" cy="1255" r="1"/>
  <circle opacity="0.5" cx="681" cy="198" r="1"/>
  <circle opacity="0.5" cx="641" cy="824" r="1"/>
  <circle opacity="0.5" cx="1068" cy="1327" r="1"/>
  <circle opacity="0.5" cx="992" cy="1984" r="1"/>
  <circle opacity="0.5" cx="641" cy="1862" r="1"/>
  <circle opacity="0.5" cx="666" cy="1261" r="1"/>
  <circle opacity="0.25" cx="646" cy="223" r="1"/>
  <circle opacity="0.25" cx="606" cy="849" r="1"/>
  <circle opacity="0.25" cx="1033" cy="1352" r="1"/>
  <circle opacity="0.25" cx="957" cy="2009" r="1"/>
  <circle opacity="0.25" cx="491" cy="820" r="1"/>
  <circle opacity="0.25" cx="606" cy="1887" r="1"/>
  <circle opacity="0.25" cx="631" cy="1286" r="1"/>
  <circle opacity="0.25" cx="127" cy="335" r="1"/>
  <circle opacity="0.25" cx="127" cy="1177" r="1"/>
  <circle opacity="0.25" cx="127" cy="2215" r="1"/>
  <circle opacity="0.25" cx="15" cy="2271" r="1"/>
  <circle opacity="0.25" cx="156" cy="352" r="1"/>
  <circle opacity="0.25" cx="200" cy="2063" r="1"/>
  <circle opacity="0.25" cx="258" cy="2750" r="1"/>
  <circle opacity="0.25" cx="156" cy="1194" r="1"/>
  <circle opacity="0.25" cx="156" cy="2232" r="1"/>
  <circle opacity="0.25" cx="238" cy="167" r="1"/>
  <circle opacity="0.5" cx="241" cy="427" r="1"/>
  <circle opacity="0.5" cx="285" cy="2138" r="1"/>
  <circle opacity="0.25" cx="278" cy="391" r="1"/>
  <circle opacity="0.25" cx="322" cy="2102" r="1"/>
  <circle opacity="0.5" cx="73" cy="499" r="1"/>
  <circle opacity="0.25" cx="110" cy="463" r="1"/>
  <circle opacity="0.25" cx="262" cy="977" r="1"/>
  <circle opacity="0.25" cx="262" cy="2015" r="1"/>
  <circle opacity="0.25" cx="320" cy="2646" r="1"/>
  <circle cx="1242" cy="578" r="1"/>
  <circle cx="1330" cy="1420" r="1"/>
  <circle cx="1330" cy="2496" r="1"/>
  <circle cx="336" cy="239" r="1"/>
  <circle cx="360" cy="1049" r="1"/>
  <circle cx="360" cy="2087" r="1"/>
  <circle cx="1015" cy="2418" r="1"/>
  <circle opacity="0.5" cx="337" cy="372" r="1"/>
  <circle opacity="0.5" cx="337" cy="1214" r="1"/>
  <circle opacity="0.5" cx="469" cy="2596" r="1"/>
  <circle opacity="0.5" cx="768" cy="1863" r="1"/>
  <circle opacity="0.5" cx="337" cy="2252" r="1"/>
  <circle opacity="0.25" cx="494" cy="359" r="1"/>
  <circle cx="629" cy="344" r="1"/>
  <circle opacity="0.5" cx="660" cy="293" r="1"/>
  <circle opacity="0.25" cx="574" cy="279" r="1"/>
  <circle opacity="0.25" cx="566" cy="327" r="1"/>
  <circle opacity="0.25" cx="758" cy="311" r="1"/>
  <circle opacity="0.25" cx="750" cy="359" r="1"/>
  <circle opacity="0.25" cx="1311" cy="340" r="1"/>
  <circle opacity="0.25" cx="550" cy="1137" r="1"/>
  <circle opacity="0.25" cx="574" cy="2213" r="1"/>
  <circle cx="292" cy="47" r="1"/>
  <circle opacity="0.25" cx="278" cy="71" r="1"/>
  <circle opacity="0.25" cx="458" cy="96" r="1"/>
  <circle opacity="0.25" cx="504" cy="231" r="1"/>
  <circle opacity="0.25" cx="560" cy="1009" r="1"/>
  <circle opacity="0.25" cx="560" cy="2047" r="1"/>
  <circle opacity="0.25" cx="399" cy="190" r="1"/>
  <circle opacity="0.25" cx="423" cy="1000" r="1"/>
  <circle opacity="0.25" cx="423" cy="2038" r="1"/>
  <circle opacity="0.25" cx="767" cy="90" r="1"/>
  <circle opacity="0.25" cx="749" cy="202" r="1"/>
  <circle opacity="0.25" cx="701" cy="804" r="1"/>
  <circle opacity="0.25" cx="1128" cy="1307" r="1"/>
  <circle opacity="0.25" cx="1052" cy="1964" r="1"/>
  <circle opacity="0.25" cx="1189" cy="1933" r="1"/>
  <circle opacity="0.25" cx="1244" cy="45" r="1"/>
  <circle opacity="0.25" cx="1279" cy="56" r="1"/>
  <circle opacity="0.25" cx="1167" cy="311" r="1"/>
  <circle opacity="0.5" cx="1073" cy="352" r="1"/>
  <circle opacity="0.25" cx="967" cy="343" r="1"/>
  <circle opacity="0.25" cx="303" cy="1087" r="1"/>
  <circle cx="1087" cy="181" r="1"/>
  <circle opacity="0.5" cx="985" cy="232" r="1"/>
  <circle opacity="0.25" cx="1031" cy="287" r="1"/>
  <circle opacity="0.25" cx="1167" cy="1153" r="1"/>
  <circle opacity="0.25" cx="550" cy="1810" r="1"/>
  <circle opacity="0.25" cx="278" cy="1618" r="1"/>
  <circle opacity="0.25" cx="510" cy="2621" r="1"/>
  <circle opacity="0.25" cx="420" cy="2448" r="1"/>
  <circle opacity="0.25" cx="1167" cy="2191" r="1"/>
  <circle opacity="0.25" cx="1272" cy="416" r="1"/>
  <circle opacity="0.25" cx="1280" cy="1250" r="1"/>
  <circle opacity="0.25" cx="1280" cy="2288" r="1"/>
  <circle opacity="0.25" cx="984" cy="528" r="1"/>
  <circle opacity="0.25" cx="696" cy="1440" r="1"/>
  <circle opacity="0.25" cx="1129" cy="1821" r="1"/>
  <circle opacity="0.25" cx="984" cy="2408" r="1"/>
  <circle cx="126" cy="552" r="1"/>
  <circle cx="182" cy="1394" r="1"/>
  <circle cx="1018" cy="2852" r="1"/>
  <circle cx="196" cy="2618" r="1"/>
  <circle cx="815" cy="2155" r="1"/>
  <circle cx="718" cy="2450" r="1"/>
  <circle cx="134" cy="2384" r="1"/>
  <circle cx="504" cy="519" r="1"/>
  <circle cx="472" cy="1329" r="1"/>
  <circle cx="1375" cy="1418" r="1"/>
  <circle cx="604" cy="2767" r="1"/>
  <circle cx="472" cy="2367" r="1"/>
  <circle cx="559" cy="1455" r="1"/>
  <circle cx="1127" cy="2698" r="1"/>
  <circle cx="382" cy="619" r="1"/>
  <circle cx="286" cy="498" r="1"/>
  <circle cx="330" cy="2209" r="1"/>
  <circle cx="350" cy="1429" r="1"/>
  <circle cx="781" cy="2078" r="1"/>
  <circle cx="684" cy="2373" r="1"/>
  <circle cx="286" cy="2403" r="1"/>
  <circle cx="41" cy="669" r="1"/>
  <circle cx="57" cy="1471" r="1"/>
  <circle cx="57" cy="2547" r="1"/>
  <circle cx="84" cy="2540" r="1"/>
  <circle cx="81" cy="796" r="1"/>
  <circle cx="81" cy="1834" r="1"/>
  <circle cx="81" cy="1638" r="1"/>
  <circle cx="143" cy="2910" r="1"/>
  <circle cx="81" cy="2714" r="1"/>
  <circle cx="429" cy="904" r="1"/>
  <circle cx="429" cy="1942" r="1"/>
  <circle cx="1084" cy="2273" r="1"/>
  <circle cx="429" cy="1746" r="1"/>
  <circle cx="702" cy="2556" r="1"/>
  <circle cx="968" cy="2527" r="1"/>
  <circle cx="429" cy="2822" r="1"/>
  <circle cx="662" cy="740" r="1"/>
  <circle cx="662" cy="1778" r="1"/>
  <circle cx="921" cy="1409" r="1"/>
  <circle cx="1114" cy="1680" r="1"/>
  <circle cx="662" cy="2854" r="1"/>
  <circle cx="702" cy="1798" r="1"/>
  <circle cx="961" cy="1429" r="1"/>
  <circle cx="1154" cy="1700" r="1"/>
  <circle cx="702" cy="2874" r="1"/>
  <circle cx="817" cy="576" r="1"/>
  <circle cx="1378" cy="557" r="1"/>
  <circle cx="785" cy="1386" r="1"/>
  <circle cx="1270" cy="1781" r="1"/>
  <circle cx="1190" cy="2376" r="1"/>
  <circle cx="756" cy="982" r="1"/>
  <circle cx="1183" cy="1485" r="1"/>
  <circle cx="1107" cy="2142" r="1"/>
  <circle cx="756" cy="2020" r="1"/>
  <circle cx="373" cy="1624" r="1"/>
  <circle cx="373" cy="2644" r="1"/>
  <circle cx="855" cy="861" r="1"/>
  <circle cx="983" cy="1907" r="1"/>
  <circle cx="517" cy="718" r="1"/>
  <circle cx="855" cy="1655" r="1"/>
  <circle cx="774" cy="2470" r="1"/>
  <circle cx="855" cy="2731" r="1"/>
  <circle cx="797" cy="769" r="1"/>
  <circle cx="797" cy="1807" r="1"/>
  <circle cx="797" cy="2883" r="1"/>
  <circle cx="829" cy="1507" r="1"/>
  <circle cx="1314" cy="1902" r="1"/>
  <circle cx="813" cy="2567" r="1"/>
  <circle cx="649" cy="1619" r="1"/>
  <circle cx="962" cy="1051" r="1"/>
  <circle cx="649" cy="2695" r="1"/>
  <circle cx="1041" cy="647" r="1"/>
  <circle cx="1041" cy="1489" r="1"/>
  <circle cx="976" cy="2320" r="1"/>
  <circle cx="993" cy="2517" r="1"/>
  <circle cx="1159" cy="1008" r="1"/>
  <circle cx="542" cy="1665" r="1"/>
  <circle cx="1268" cy="2443" r="1"/>
  <circle cx="270" cy="1473" r="1"/>
  <circle opacity="0.5" cx="984" cy="930" r="1"/>
  <circle cx="1023" cy="952" r="1"/>
  <circle cx="1159" cy="2046" r="1"/>
  <circle cx="1047" cy="1738" r="1"/>
  <circle cx="934" cy="2521" r="1"/>
  <circle cx="1047" cy="2814" r="1"/>
  <circle cx="756" cy="586" r="1"/>
  <circle cx="1291" cy="629" r="1"/>
  <circle cx="724" cy="1396" r="1"/>
  <circle cx="1157" cy="1777" r="1"/>
  <circle cx="447" cy="1136" r="1"/>
  <circle cx="1350" cy="1225" r="1"/>
  <circle cx="563" cy="2558" r="1"/>
  <circle cx="479" cy="2230" r="1"/>
  <circle cx="854" cy="1248" r="1"/>
  <circle cx="1134" cy="2561" r="1"/>
  <circle cx="460" cy="1494" r="1"/>
  <circle cx="1353" cy="1536" r="1"/>
  <circle cx="835" cy="1588" r="1"/>
  <circle cx="754" cy="2403" r="1"/>
  <circle cx="1226" cy="794" r="1"/>
  <circle cx="1174" cy="1818" r="1"/>
  <circle cx="1226" cy="1636" r="1"/>
  <circle cx="1226" cy="2712" r="1"/>
  <circle cx="139" cy="737" r="1"/>
  <circle cx="3" cy="1715" r="1"/>
  <circle cx="3" cy="2791" r="1"/>
  <circle cx="1193" cy="705" r="1"/>
  <circle cx="1193" cy="1547" r="1"/>
  <circle cx="1193" cy="2623" r="1"/>
  <circle cx="1369" cy="1595" r="1"/>
  <circle cx="1369" cy="2671" r="1"/>
  <circle cx="1308" cy="745" r="1"/>
  <circle cx="1308" cy="1783" r="1"/>
  <circle cx="1308" cy="2859" r="1"/>
  <circle cx="1268" cy="1507" r="1"/>
  <circle cx="1268" cy="2583" r="1"/>
  <circle cx="267" cy="850" r="1"/>
  <circle cx="267" cy="1888" r="1"/>
  <circle cx="499" cy="2891" r="1"/>
  <circle cx="538" cy="607" r="1"/>
  <circle cx="506" cy="1417" r="1"/>
  <circle cx="1409" cy="1506" r="1"/>
  <circle cx="490" cy="2477" r="1"/>
  <circle cx="881" cy="1511" r="1"/>
  <circle cx="800" cy="2326" r="1"/>
  <circle cx="1366" cy="1906" r="1"/>
  <circle cx="588" cy="2570" r="1"/>
  <circle cx="522" cy="2375" r="1"/>
  <circle cx="625" cy="1479" r="1"/>
  <circle opacity="0.5" cx="74" cy="584" r="1"/>
  <circle opacity="0.5" cx="130" cy="1426" r="1"/>
  <circle opacity="0.5" cx="966" cy="2884" r="1"/>
  <circle opacity="0.5" cx="144" cy="2650" r="1"/>
  <circle opacity="0.5" cx="763" cy="2187" r="1"/>
  <circle opacity="0.5" cx="666" cy="2482" r="1"/>
  <circle opacity="0.5" cx="130" cy="2502" r="1"/>
  <circle opacity="0.5" cx="82" cy="2416" r="1"/>
  <circle opacity="0.5" cx="446" cy="471" r="1"/>
  <circle opacity="0.5" cx="414" cy="1281" r="1"/>
  <circle opacity="0.5" cx="546" cy="2719" r="1"/>
  <circle opacity="0.5" cx="414" cy="2319" r="1"/>
  <circle opacity="0.5" cx="1069" cy="2650" r="1"/>
  <circle opacity="0.5" cx="281" cy="724" r="1"/>
  <circle opacity="0.5" cx="281" cy="1566" r="1"/>
  <circle opacity="0.5" cx="497" cy="2553" r="1"/>
  <circle opacity="0.5" cx="281" cy="2642" r="1"/>
  <circle opacity="0.5" cx="98" cy="602" r="1"/>
  <circle opacity="0.5" cx="154" cy="1444" r="1"/>
  <circle opacity="0.5" cx="990" cy="2902" r="1"/>
  <circle opacity="0.5" cx="168" cy="2668" r="1"/>
  <circle opacity="0.5" cx="787" cy="2205" r="1"/>
  <circle opacity="0.5" cx="690" cy="2500" r="1"/>
  <circle cx="30" cy="1234" r="1"/>
  <circle opacity="0.5" cx="18" cy="1314" r="1"/>
  <circle opacity="0.5" cx="2" cy="1284" r="1"/>
  <circle opacity="0.5" cx="154" cy="2520" r="1"/>
  <circle opacity="0.5" cx="106" cy="2434" r="1"/>
  <circle opacity="0.5" cx="1042" cy="1897" r="1"/>
  <circle opacity="0.5" cx="914" cy="851" r="1"/>
  <circle opacity="0.5" cx="1396" cy="811" r="1"/>
  <circle opacity="0.5" cx="940" cy="1813" r="1"/>
  <circle opacity="0.5" cx="914" cy="1645" r="1"/>
  <circle opacity="0.5" cx="833" cy="2460" r="1"/>
  <circle opacity="0.5" cx="914" cy="2721" r="1"/>
  <circle opacity="0.5" cx="1338" cy="499" r="1"/>
  <circle opacity="0.5" cx="1354" cy="1341" r="1"/>
  <circle opacity="0.5" cx="1354" cy="2379" r="1"/>
  <circle opacity="0.5" cx="1271" cy="647" r="1"/>
  <circle cx="1122" cy="794" r="1"/>
  <circle opacity="0.5" cx="1218" cy="715" r="1"/>
  <circle opacity="0.5" cx="1177" cy="801" r="1"/>
  <circle opacity="0.5" cx="1321" cy="1427" r="1"/>
  <circle opacity="0.5" cx="1321" cy="2503" r="1"/>
  <circle opacity="0.5" cx="1153" cy="2401" r="1"/>
  <circle opacity="0.5" cx="1169" cy="469" r="1"/>
  <circle opacity="0.5" cx="1169" cy="1311" r="1"/>
  <circle opacity="0.5" cx="552" cy="1968" r="1"/>
  <circle opacity="0.5" cx="280" cy="1776" r="1"/>
  <circle opacity="0.5" cx="512" cy="2779" r="1"/>
  <circle opacity="0.5" cx="867" cy="2605" r="1"/>
  <circle opacity="0.5" cx="1169" cy="2349" r="1"/>
  <circle opacity="0.5" cx="1311" cy="902" r="1"/>
  <circle opacity="0.5" cx="1311" cy="1940" r="1"/>
  <circle opacity="0.5" cx="1311" cy="1744" r="1"/>
  <circle opacity="0.5" cx="1322" cy="2820" r="1"/>
  <circle opacity="0.5" cx="940" cy="471" r="1"/>
  <circle opacity="0.5" cx="276" cy="1215" r="1"/>
  <circle opacity="0.5" cx="408" cy="2597" r="1"/>
  <circle opacity="0.5" cx="940" cy="1313" r="1"/>
  <circle opacity="0.5" cx="940" cy="2351" r="1"/>
  <circle opacity="0.5" cx="744" cy="594" r="1"/>
  <circle opacity="0.5" cx="1279" cy="637" r="1"/>
  <circle opacity="0.5" cx="712" cy="1404" r="1"/>
  <circle opacity="0.5" cx="1145" cy="1785" r="1"/>
  <circle opacity="0.5" cx="1117" cy="2432" r="1"/>
  <circle opacity="0.5" cx="499" cy="1144" r="1"/>
  <circle opacity="0.5" cx="1402" cy="1233" r="1"/>
  <circle opacity="0.25" cx="608" cy="1258" r="1"/>
  <circle opacity="0.5" cx="563" cy="1288" r="1"/>
  <circle opacity="0.5" cx="475" cy="2270" r="1"/>
  <circle opacity="0.5" cx="866" cy="1304" r="1"/>
  <circle opacity="0.5" cx="1351" cy="1699" r="1"/>
  <circle opacity="0.5" cx="1146" cy="2617" r="1"/>
  <circle opacity="0.5" cx="448" cy="1502" r="1"/>
  <circle opacity="0.5" cx="1327" cy="1567" r="1"/>
  <circle opacity="0.5" cx="948" cy="391" r="1"/>
  <circle opacity="0.5" cx="284" cy="1135" r="1"/>
  <circle opacity="0.5" cx="948" cy="1233" r="1"/>
  <circle opacity="0.5" cx="948" cy="2271" r="1"/>
  <circle opacity="0.5" cx="807" cy="284" r="1"/>
  <circle opacity="0.25" cx="814" cy="415" r="1"/>
  <circle opacity="0.25" cx="1375" cy="396" r="1"/>
  <circle opacity="0.25" cx="878" cy="479" r="1"/>
  <circle opacity="0.5" cx="863" cy="388" r="1"/>
  <circle cx="478" cy="564" r="1"/>
  <circle opacity="0.5" cx="684" cy="535" r="1"/>
  <circle opacity="0.25" cx="550" cy="559" r="1"/>
  <circle opacity="0.5" cx="599" cy="532" r="1"/>
  <circle opacity="0.5" cx="767" cy="910" r="1"/>
  <circle opacity="0.5" cx="1194" cy="1413" r="1"/>
  <circle opacity="0.5" cx="1118" cy="2070" r="1"/>
  <circle opacity="0.5" cx="895" cy="1956" r="1"/>
  <circle opacity="0.5" cx="429" cy="767" r="1"/>
  <circle opacity="0.5" cx="460" cy="853" r="1"/>
  <circle opacity="0.5" cx="460" cy="1891" r="1"/>
  <circle opacity="0.5" cx="1115" cy="2222" r="1"/>
  <circle opacity="0.5" cx="460" cy="1695" r="1"/>
  <circle opacity="0.5" cx="1154" cy="2473" r="1"/>
  <circle opacity="0.5" cx="460" cy="2771" r="1"/>
  <circle opacity="0.5" cx="136" cy="889" r="1"/>
  <circle cx="46" cy="997" r="1"/>
  <circle opacity="0.5" cx="56" cy="921" r="1"/>
  <circle opacity="0.5" cx="136" cy="1927" r="1"/>
  <circle opacity="0.5" cx="1" cy="1985" r="1"/>
  <circle opacity="0.5" cx="112" cy="1763" r="1"/>
  <circle opacity="0.5" cx="112" cy="2839" r="1"/>
  <circle opacity="0.5" cx="808" cy="840" r="1"/>
  <circle opacity="0.5" cx="936" cy="1886" r="1"/>
  <circle opacity="0.5" cx="470" cy="697" r="1"/>
  <circle opacity="0.5" cx="808" cy="1634" r="1"/>
  <circle opacity="0.5" cx="808" cy="2710" r="1"/>
  <circle opacity="0.5" cx="494" cy="196" r="1"/>
  <circle opacity="0.5" cx="550" cy="974" r="1"/>
  <circle opacity="0.5" cx="901" cy="2134" r="1"/>
  <circle opacity="0.5" cx="435" cy="945" r="1"/>
  <circle opacity="0.5" cx="550" cy="2012" r="1"/>
  <circle opacity="0.5" cx="925" cy="1030" r="1"/>
  <circle opacity="0.5" cx="833" cy="840" r="1"/>
  <circle opacity="0.5" cx="961" cy="1886" r="1"/>
  <circle opacity="0.5" cx="495" cy="697" r="1"/>
  <circle opacity="0.5" cx="753" cy="1706" r="1"/>
  <circle opacity="0.5" cx="753" cy="2782" r="1"/>
  <circle opacity="0.5" cx="896" cy="1738" r="1"/>
  <circle opacity="0.5" cx="815" cy="2553" r="1"/>
  <circle opacity="0.5" cx="430" cy="549" r="1"/>
  <circle opacity="0.5" cx="896" cy="2814" r="1"/>
  <circle opacity="0.5" cx="841" cy="1810" r="1"/>
  <circle opacity="0.5" cx="375" cy="621" r="1"/>
  <circle opacity="0.5" cx="841" cy="2886" r="1"/>
  <circle opacity="0.5" cx="439" cy="268" r="1"/>
  <circle opacity="0.25" cx="694" cy="511" r="1"/>
  <circle opacity="0.5" cx="631" cy="468" r="1"/>
  <circle opacity="0.5" cx="495" cy="1046" r="1"/>
  <circle opacity="0.5" cx="527" cy="2140" r="1"/>
  <circle opacity="0.5" cx="902" cy="1158" r="1"/>
  <circle opacity="0.25" cx="698" cy="591" r="1"/>
  <circle opacity="0.25" cx="666" cy="1401" r="1"/>
  <circle opacity="0.25" cx="1099" cy="1782" r="1"/>
  <circle opacity="0.25" cx="925" cy="1030" r="1"/>
  <circle opacity="0.25" cx="637" cy="2035" r="1"/>
  <circle opacity="0.25" cx="540" cy="2330" r="1"/>
  <circle opacity="0.25" cx="716" cy="537" r="1"/>
  <circle opacity="0.5" cx="220" cy="631" r="1"/>
  <circle opacity="0.5" cx="264" cy="2342" r="1"/>
  <circle opacity="0.25" cx="252" cy="633" r="1"/>
  <circle opacity="0.25" cx="296" cy="2344" r="1"/>
  <circle opacity="0.25" cx="684" cy="1347" r="1"/>
  <circle opacity="0.25" cx="1169" cy="1742" r="1"/>
  <circle opacity="0.25" cx="676" cy="2329" r="1"/>
  <circle opacity="0.25" cx="655" cy="943" r="1"/>
  <circle opacity="0.25" cx="1082" cy="1446" r="1"/>
  <circle opacity="0.25" cx="1180" cy="2806" r="1"/>
  <circle opacity="0.25" cx="1006" cy="2103" r="1"/>
  <circle opacity="0.25" cx="333" cy="756" r="1"/>
  <circle opacity="0.5" cx="323" cy="721" r="1"/>
  <circle opacity="0.25" cx="410" cy="744" r="1"/>
  <circle opacity="0.25" cx="428" cy="690" r="1"/>
  <circle opacity="0.25" cx="655" cy="1981" r="1"/>
  <circle opacity="0.25" cx="374" cy="839" r="1"/>
  <circle opacity="0.25" cx="374" cy="1877" r="1"/>
  <circle opacity="0.25" cx="1029" cy="2208" r="1"/>
  <circle opacity="0.25" cx="374" cy="1681" r="1"/>
  <circle opacity="0.25" cx="374" cy="2757" r="1"/>
  <circle opacity="0.25" cx="151" cy="839" r="1"/>
  <circle opacity="0.25" cx="151" cy="1877" r="1"/>
  <circle opacity="0.25" cx="383" cy="2880" r="1"/>
  <circle opacity="0.25" cx="16" cy="1935" r="1"/>
  <circle opacity="0.25" cx="127" cy="1713" r="1"/>
  <circle opacity="0.25" cx="127" cy="2789" r="1"/>
  <circle opacity="0.25" cx="180" cy="856" r="1"/>
  <circle opacity="0.25" cx="180" cy="1894" r="1"/>
  <circle opacity="0.25" cx="412" cy="2897" r="1"/>
  <circle opacity="0.25" cx="5" cy="2059" r="1"/>
  <circle opacity="0.25" cx="156" cy="1730" r="1"/>
  <circle opacity="0.25" cx="388" cy="2677" r="1"/>
  <circle opacity="0.25" cx="156" cy="2806" r="1"/>
  <circle opacity="0.25" cx="462" cy="631" r="1"/>
  <circle opacity="0.25" cx="430" cy="1441" r="1"/>
  <circle opacity="0.25" cx="430" cy="2479" r="1"/>
  <circle opacity="0.25" cx="1085" cy="2810" r="1"/>
  <circle cx="1107" cy="422" r="1"/>
  <circle cx="1107" cy="1264" r="1"/>
  <circle cx="490" cy="1921" r="1"/>
  <circle cx="218" cy="1729" r="1"/>
  <circle cx="450" cy="2676" r="1"/>
  <circle cx="1107" cy="2302" r="1"/>
  <circle cx="1242" cy="439" r="1"/>
  <circle cx="1242" cy="1281" r="1"/>
  <circle cx="1242" cy="2319" r="1"/>
  <circle opacity="0.25" cx="310" cy="591" r="1"/>
  <circle opacity="0.25" cx="310" cy="1433" r="1"/>
  <circle opacity="0.25" cx="773" cy="2233" r="1"/>
  <circle opacity="0.25" cx="644" cy="2377" r="1"/>
  <circle opacity="0.25" cx="310" cy="2509" r="1"/>
  <circle cx="270" cy="2585" r="1"/>
  <circle opacity="0.5" cx="368" cy="2602" r="1"/>
  <circle opacity="0.25" cx="230" cy="2589" r="1"/>
  <circle opacity="0.25" cx="246" cy="2407" r="1"/>
  <circle opacity="0.25" cx="254" cy="2167" r="1"/>
  <circle opacity="0.25" cx="312" cy="2854" r="1"/>
  <circle opacity="0.25" cx="402" cy="504" r="1"/>
  <circle cx="456" cy="471" r="1"/>
  <circle opacity="0.5" cx="398" cy="423" r="1"/>
  <circle opacity="0.25" cx="354" cy="456" r="1"/>
  <circle opacity="0.5" cx="281" cy="220" r="1"/>
  <circle cx="230" cy="346" r="1"/>
  <circle cx="274" cy="2057" r="1"/>
  <circle opacity="0.5" cx="390" cy="319" r="1"/>
  <circle opacity="0.25" cx="346" cy="352" r="1"/>
  <circle opacity="0.25" cx="370" cy="1314" r="1"/>
  <circle opacity="0.25" cx="502" cy="2752" r="1"/>
  <circle cx="656" cy="1585" r="1"/>
  <circle cx="969" cy="1017" r="1"/>
  <circle cx="534" cy="1685" r="1"/>
  <circle cx="1260" cy="2463" r="1"/>
  <circle cx="559" cy="1084" r="1"/>
  <circle cx="690" cy="1673" r="1"/>
  <circle cx="715" cy="1072" r="1"/>
  <circle cx="1142" cy="1575" r="1"/>
  <circle opacity="0.5" cx="598" cy="1537" r="1"/>
  <circle opacity="0.5" cx="623" cy="936" r="1"/>
  <circle opacity="0.5" cx="1050" cy="1439" r="1"/>
  <circle opacity="0.5" cx="1148" cy="2799" r="1"/>
  <circle opacity="0.25" cx="494" cy="1689" r="1"/>
  <circle opacity="0.25" cx="1188" cy="2467" r="1"/>
  <circle opacity="0.25" cx="554" cy="1570" r="1"/>
  <circle opacity="0.25" cx="579" cy="969" r="1"/>
  <circle cx="616" cy="2079" r="1"/>
  <circle cx="502" cy="2197" r="1"/>
  <circle cx="877" cy="1215" r="1"/>
  <circle cx="1157" cy="2528" r="1"/>
  <circle cx="650" cy="2167" r="1"/>
  <circle cx="553" cy="2462" r="1"/>
  <circle opacity="0.5" cx="591" cy="2047" r="1"/>
  <circle opacity="0.25" cx="462" cy="2201" r="1"/>
  <circle opacity="0.25" cx="837" cy="1219" r="1"/>
  <circle opacity="0.25" cx="1117" cy="2532" r="1"/>
  <circle opacity="0.25" cx="522" cy="2082" r="1"/>
  <circle opacity="0.25" cx="897" cy="1100" r="1"/>
  <circle opacity="0.25" cx="370" cy="2352" r="1"/>
  <circle opacity="0.25" cx="1025" cy="2683" r="1"/>
  <circle opacity="0.25" cx="576" cy="767" r="1"/>
  <circle opacity="0.25" cx="576" cy="1805" r="1"/>
  <circle opacity="0.25" cx="601" cy="1204" r="1"/>
  <circle opacity="0.25" cx="1028" cy="1707" r="1"/>
  <circle opacity="0.25" cx="915" cy="2490" r="1"/>
  <circle opacity="0.25" cx="576" cy="2881" r="1"/>
  <circle opacity="0.25" cx="511" cy="726" r="1"/>
  <circle opacity="0.25" cx="511" cy="1568" r="1"/>
  <circle opacity="0.25" cx="1414" cy="1657" r="1"/>
  <circle opacity="0.25" cx="511" cy="2644" r="1"/>
  <circle opacity="0.25" cx="886" cy="1662" r="1"/>
  <circle opacity="0.25" cx="805" cy="2477" r="1"/>
  <circle opacity="0.25" cx="792" cy="474" r="1"/>
  <circle opacity="0.25" cx="1353" cy="455" r="1"/>
  <circle cx="1018" cy="720" r="1"/>
  <circle cx="957" cy="730" r="1"/>
  <circle cx="293" cy="1474" r="1"/>
  <circle cx="716" cy="2105" r="1"/>
  <circle cx="619" cy="2400" r="1"/>
  <circle opacity="0.5" cx="897" cy="746" r="1"/>
  <circle opacity="0.5" cx="1379" cy="706" r="1"/>
  <circle opacity="0.5" cx="233" cy="1490" r="1"/>
  <circle opacity="0.5" cx="866" cy="2251" r="1"/>
  <circle opacity="0.25" cx="839" cy="671" r="1"/>
  <circle opacity="0.25" cx="1400" cy="652" r="1"/>
  <circle opacity="0.25" cx="851" cy="743" r="1"/>
  <circle opacity="0.25" cx="1412" cy="724" r="1"/>
  <circle opacity="0.25" cx="861" cy="697" r="1"/>
  <circle opacity="0.25" cx="1422" cy="678" r="1"/>
  <circle opacity="0.25" cx="1343" cy="657" r="1"/>
  <circle opacity="0.25" cx="929" cy="642" r="1"/>
  <circle opacity="0.25" cx="265" cy="1386" r="1"/>
  <circle opacity="0.25" cx="704" cy="1340" r="1"/>
  <circle opacity="0.25" cx="1189" cy="1735" r="1"/>
  <circle opacity="0.25" cx="760" cy="2314" r="1"/>
  <circle cx="1286" cy="2416" r="1"/>
  <circle opacity="0.25" cx="1225" cy="2337" r="1"/>
  <circle opacity="0.25" cx="1309" cy="2322" r="1"/>
  <circle opacity="0.25" cx="675" cy="936" r="1"/>
  <circle opacity="0.25" cx="1102" cy="1439" r="1"/>
  <circle opacity="0.25" cx="1200" cy="2799" r="1"/>
  <circle opacity="0.25" cx="1026" cy="2096" r="1"/>
  <circle opacity="0.25" cx="675" cy="1974" r="1"/>
  <circle opacity="0.25" cx="741" cy="714" r="1"/>
  <circle opacity="0.25" cx="693" cy="1524" r="1"/>
  <circle opacity="0.25" cx="1178" cy="1919" r="1"/>
  <circle opacity="0.25" cx="718" cy="923" r="1"/>
  <circle opacity="0.25" cx="1145" cy="1426" r="1"/>
  <circle opacity="0.25" cx="1243" cy="2786" r="1"/>
  <circle opacity="0.25" cx="677" cy="2584" r="1"/>
  <circle opacity="0.25" cx="429" cy="1622" r="1"/>
  <circle opacity="0.25" cx="429" cy="2642" r="1"/>
  <circle cx="211" cy="1595" r="1"/>
  <circle cx="353" cy="2425" r="1"/>
  <circle cx="273" cy="2867" r="1"/>
  <circle cx="828" cy="2340" r="1"/>
  <circle cx="163" cy="2623" r="1"/>
  <circle opacity="0.5" cx="364" cy="1791" r="1"/>
  <circle opacity="0.5" cx="951" cy="2620" r="1"/>
  <circle opacity="0.5" cx="364" cy="2867" r="1"/>
  <circle opacity="0.25" cx="278" cy="1777" r="1"/>
  <circle opacity="0.25" cx="510" cy="2780" r="1"/>
  <circle opacity="0.25" cx="865" cy="2606" r="1"/>
  <circle opacity="0.25" cx="278" cy="2853" r="1"/>
  <circle opacity="0.25" cx="293" cy="1678" r="1"/>
  <circle opacity="0.25" cx="525" cy="2681" r="1"/>
  <circle opacity="0.25" cx="293" cy="2754" r="1"/>
  <circle opacity="0.25" cx="563" cy="690" r="1"/>
  <circle opacity="0.25" cx="603" cy="1748" r="1"/>
  <circle opacity="0.25" cx="628" cy="1147" r="1"/>
  <circle opacity="0.25" cx="1055" cy="1650" r="1"/>
  <circle opacity="0.25" cx="700" cy="2249" r="1"/>
  <circle opacity="0.25" cx="603" cy="2824" r="1"/>
  <circle opacity="0.25" cx="900" cy="829" r="1"/>
  <circle opacity="0.25" cx="1382" cy="789" r="1"/>
  <circle opacity="0.25" cx="236" cy="1573" r="1"/>
  <circle opacity="0.25" cx="378" cy="2403" r="1"/>
  <circle opacity="0.25" cx="869" cy="2334" r="1"/>
  <circle cx="1111" cy="565" r="1"/>
  <circle opacity="0.5" cx="1064" cy="544" r="1"/>
  <circle opacity="0.25" cx="1028" cy="1875" r="1"/>
  <circle opacity="0.5" cx="1089" cy="544" r="1"/>
  <circle opacity="0.25" cx="1140" cy="517" r="1"/>
  <circle opacity="0.25" cx="926" cy="1791" r="1"/>
  <circle opacity="0.25" cx="1235" cy="1852" r="1"/>
  <circle opacity="0.25" cx="900" cy="1623" r="1"/>
  <circle opacity="0.25" cx="819" cy="2438" r="1"/>
  <circle opacity="0.25" cx="900" cy="2699" r="1"/>
  <circle opacity="0.25" cx="935" cy="840" r="1"/>
  <circle opacity="0.25" cx="961" cy="1802" r="1"/>
  <circle opacity="0.25" cx="967" cy="1578" r="1"/>
  <circle opacity="0.25" cx="902" cy="2409" r="1"/>
  <circle opacity="0.25" cx="948" cy="1575" r="1"/>
  <circle opacity="0.25" cx="883" cy="2406" r="1"/>
  <circle opacity="0.25" cx="1071" cy="1586" r="1"/>
  <circle opacity="0.25" cx="1183" cy="1466" r="1"/>
  <circle opacity="0.25" cx="1119" cy="1402" r="1"/>
  <circle opacity="0.25" cx="1311" cy="1853" r="1"/>
  <circle opacity="0.25" cx="1217" cy="2762" r="1"/>
  <circle opacity="0.25" cx="791" cy="1106" r="1"/>
  <circle opacity="0.25" cx="967" cy="2654" r="1"/>
  <circle opacity="0.25" cx="1063" cy="855" r="1"/>
  <circle opacity="0.25" cx="1037" cy="1803" r="1"/>
  <circle opacity="0.25" cx="1015" cy="1665" r="1"/>
  <circle opacity="0.25" cx="660" cy="2264" r="1"/>
  <circle opacity="0.25" cx="1015" cy="2741" r="1"/>
  <circle opacity="0.25" cx="1295" cy="1625" r="1"/>
  <circle opacity="0.25" cx="1176" cy="952" r="1"/>
  <circle opacity="0.25" cx="1295" cy="2701" r="1"/>
  <circle opacity="0.25" cx="287" cy="1417" r="1"/>
  <circle opacity="0.25" cx="1176" cy="1990" r="1"/>
  <circle opacity="0.25" cx="1124" cy="1780" r="1"/>
  <circle opacity="0.25" cx="1176" cy="2870" r="1"/>
</svg>
