<svg xmlns="http://www.w3.org/2000/svg" width="1200" height="1200" viewBox="11630 420 1210 1000">
  <linearGradient id="b" x1=".2" x2=".8" y1=".1" y2=".9" gradientTransform="translate(11757.3 435) scale(953.035)" gradientUnits="userSpaceOnUse">
    <stop offset="0%" style="stop-color:#04a7eb"/>
    <stop offset="100%" style="stop-color:#2e5db4"/>
  </linearGradient>
  <circle cx="12233.8" cy="911.5" r="476.5" fill="url(#b)"/>
  <path fill="#1983D0" d="m11804.3 1079.4 808-445.5 57 103.4-808 445.4z"/>
  <g fill="#FFF">
    <path d="m12279 974 4.8 11.2 79.8 176.4q2 4.4 2.9 8.6l1.8 8.8 17.9 94.5c.8 4.3 2 9.6 2.4 14.4q.2 1.3-.5.2l-27.6-45.2-35.4-58.2c-.7-1-1.3-2.3-1.7-3.6l-19.7-61.2-33.7-100.5-11-33.4 20-12Z"/>
    <path d="M12428.7 1002.7q1.6.3 3.3.1l90.8-11.3q1.4-.2 0-.7l-44.7-16.7-40.9-15q-1.7-.7-5.6-.9-57.7-2-113.5-4.4h-5.9l-33.3 20.4 149.8 28.5Z"/>
  </g>
  <path fill="#112635" d="M12278.5 974.6q-19.1 11.5-19.3 11.4h-.4a1708 1708 0 0 1-70.6 39.2c-19.8 10.6-40 20.3-60.4 30.4q-21 10.5-62.8 28.6-41.9 18.2-98 38-51.8 18.5-117 33.4-.4 0-.1.5c15.2 25.4 33.6 49 53.6 70.9q24.2 26.5 59.4 53.5 22.2 16.8 40 27 16 9.2 32.3 17.6 7.8 4 16 7.5 4.4 2.2 9 4c16.8 6.8 35 13.6 52.8 18.5q48.4 13.3 97.7 16.2 10 .6 20.4.5 16 .4 29.4-.3 51.6-2.8 102.1-17 10-2.8 19-6 22.7-8 32.3-12.1l18.8-8.4q10.8-5 38.5-20.8 12.2-6.9 30-19.5a465.5 465.5 0 0 0 41.5-33.7q32.3-29.2 59.2-65.5 45.3-61.2 68.6-133.5 21.6-67 21.3-140-.5-56.4-14.3-110.7-15.8-61.2-47.4-115.4a.6.6 0 0 0-1 0c-13.7 17-28 33.5-43.2 49.2q-13.5 14.1-18.2 18.7-48.6 47.5-105.7 92.2-47.8 37.5-96.8 70.3-24.3 16.2-52.1 33.8-34.4 21-34.6 21.5Zm374.4-317q22.3 36.1 38.3 74.9 2.4 5.8 7.9 20.9 3.5 9.7 6.3 18.8 10.7 35.3 16.2 71 5.6 36.9 5.6 75.3 0 40.4-6.3 77.5l-2.1 12.5q-1.1 6.3-2.5 12.4-4.4 19.6-10.1 39.1a509 509 0 0 1-18.2 50l-2.9 6q-19.7 44.8-49.2 86.2a484 484 0 0 1-68 76.7q-11.6 10.5-25 21.3-5 4.1-20.2 15.3-8.3 6.2-16.4 11.4-18.9 12.3-38.1 22.6a521.2 521.2 0 0 1-107.1 42.1q-10.3 2.9-19.4 4.7-49.6 10-100 11-9.7.3-20.2-.2-41-1.7-82-9.3c-1-.2-3.8-.3-5.6-1l-2.4-.6q-7.3-1.3-13.3-3-13.3-3.6-29.2-8.6-14-4.4-42.6-15.6c-7.5-3-15-6.8-22.7-10.4a473.7 473.7 0 0 1-73-43.2q-5.3-3.8-10-7.5-5-4-9.8-7.5-5.5-4.1-23.9-20.7-37.2-33.5-66.3-73.5-14.7-20.2-28.2-43.3a.8.8 0 0 0-.8-.4q-12 1.7-24 3.1c-9.8 1.2-20.2 1.7-30.3 2.4q-2 .2-4.3 0l-4.4-.1c-22.3 0-44.3-2-64.7-8.8-21.2-7-38.5-18.8-47.1-39.8q-3.2-7.7-4.1-16a97.4 97.4 0 0 1 3.3-37.5q6.7-24 19.7-47l1.4-2.4q16.2-28.6 39.6-57 35.7-39.9 49.8-55.4 6.5 1 6.5 2.6c-.5 23.9-7.3 36.4-4.4 58.8 0 .4-19.5 31-19.6 31.3q-5.8 10.8-10.4 22.6c-6.9 17.6-10.9 38.3-4.2 55.8 6 16 20.8 27.4 37.1 32.9q9.2 3.1 23 5.5 9.2 1.7 19.8 2 17.5.4 29.8-.4c12.3-.8 25.6-3.2 38.4-4.8q16.6-2 35.1-6.3 27.9-6.5 42.4-11l9-2.6q7.6-2 15.8-4.4c9.4-2.6 19.6-6.6 29.7-9.9a572.9 572.9 0 0 0 42.9-15.9l5.1-2 5.2-1.8 34.2-13.9q10.2-4.1 47.3-21.3l7.6-3.7c3.7-1.8 7.7-3.3 11.1-5 18.8-9.4 38-18.5 56.4-28.6l27.1-14.8q40.3-22.1 74.9-43.8l4.6-3q2-1.4 4.5-2.8c3.6-2 7-4.6 10.8-7q59.9-37 118.4-82c1.6-1.1 3-2.8 4.5-3.8q7.3-5.2 14.6-11 24.3-19.5 47.6-40c1.2-1 2.2-2.2 3.5-3.2q2.4-1.8 6.9-6 17-15.4 31.3-29.7l3.5-3.8c1.5-1.8 3.5-3.4 5-4.9 6-6.3 12.4-12.6 18.2-19.1q15.2-17.2 26-31.2c9.8-12.7 19.7-25.5 27.3-40 .9-2-7.2-13.3-6.3-14.9l-18.3-26.3q-1-.2-.3.6 10.9 12.7 21 26.1c.6.8 8.2 11 7.5 11.8l-18 32.2q-15.6-18.5-17.2-20.7-26.2-35.8-59-65.8-23.9-21.4-49.8-39-21.3-14.5-38.7-23.9-27.1-14.6-59.4-26.8-20-7.5-44.7-14.1-22.6-6-47.7-9.5-24.2-3.3-40.5-4.1-16.1-.9-38-.4-10.6.3-20.3 1c-27.3 2.3-53 6-78.3 12.6q-23 6-48.3 15.3-30 11.4-55.3 25-44.2 23.7-83.4 57.6-7.4 6.4-14.6 13.5-29 28.1-51 57.3-60.3 80.4-81.2 179.8-7 32.8-8.9 68.4-.3 6.1-.3 12.2c-1 45 4.4 89.8 16.3 133.3q5.2 18.6 11 34.3 10.3 28.8 16.8 45.5-18.7-1.2-37-.7c-.2 0-8.5-20.5-8.6-20.7q-4.4-11.6-8.2-22.4-8.6-24.9-14.5-52c-.6-2.7-1.6-5.2-2-8a604.7 604.7 0 0 1-8.7-71.5l-.6-15.4q-.2-7.6 0-15.4c.1-8.8.2-17.5.7-25.6q1.7-26.5 6.2-52.8c.8-5 1.6-11.5 3-17.2l5.2-21q7.5-30.1 19.9-60.7c.5-1.4.8-2.9 1.4-4.1l10.7-23.5q26-55.5 65.5-102.9 23.4-28 47.9-50l8.7-8q4.7-4.1 9-7.6c6-4.7 12.1-9.1 17.8-14l4.3-3.3q35.7-25.8 75-45.3 6-3 17-7.8 5.2-2.3 23.2-9.5c8.1-3.3 17-6 25.5-9 6.8-2.5 14-4 21-6s14.3-3.6 21.4-5.4q4.6-1.2 8.6-1.9l21.4-3.9q7.6-1.3 29-3.6 8.9-1 32-1.8 10.7-.4 20-.3 27 .4 48.7 2.5 8.4.9 23.4 3.2 10.6 1.6 19.7 3.5 14.7 3 28.6 6.7l11.6 3c9.5 2.5 18.7 6 28 9 5.9 2 11.6 4.5 17.5 6.8q.3 0 1.1.4 23.7 9.9 30 13 29.2 14.6 56.5 32.2 8 5.3 16.4 11.4 16.2 11.9 30.6 23.9l2 1.7q15.8 13.7 29.7 27.3 8.7 8.6 16.7 17.7.3.4.7 0l50.7 67.7Z"/>
  <path fill="#112635" d="M12266.8 981.4q19.3-11.2 19.3-11.4l.3-.4a1707 1707 0 0 0 68.3-42.8c18.8-12.3 37.1-25.4 55.8-38.3q19.3-13.4 55.4-41.2 36.1-27.9 80.6-67.3 41.2-36.6 85.6-86.4.4-.4.6 0a449.4 449.4 0 0 1 36.1 81.2q11.6 34 18.2 77.8 4 27.6 4.4 48.2.3 18.3-.2 36.7-.2 8.8-1.2 17.6-.2 5-.8 9.8c-2.2 18.1-5 37.2-9.3 55.2q-11.7 48.8-33 93.5-4.3 9-9.4 18-7.3 14.2-14.5 25.6-27.3 44-64 81.3-7.4 7.4-14.6 13.8-17.8 15.9-26.2 22.4-8.3 6.4-16.3 12.3-9.6 7.1-36.8 23.8-12 7.3-31.6 16.8c-16 7.6-33.8 14.6-49.5 20q-41.3 14.2-86 20.3-75.5 10.1-150-4.4-69.2-13.5-132.9-49-49.1-27.6-90-65.9-46-43.3-78.3-97.2a.6.6 0 0 1 .4-1c21.6-3.7 43-8.3 64-14q19-5 25.2-6.9 65-19.6 131.9-48 55.8-23.8 108.2-51 26-13.3 54.8-29.2 35-20 35.5-20Zm-458.4 174.8q20.9 37 47.1 69.7 4 5 14.5 17 6.8 7.8 13.4 14.6 25.8 26.5 54.4 48.4 29.6 22.8 63.2 41.3 35.4 19.6 71 32l12 4.1q6 2.1 12 3.9 19.3 5.5 39.1 10c17.2 3.8 35 6.1 52.6 8.2l6.7.4q48.7 4.3 99.1-1.5a484 484 0 0 0 100-22.6q14.9-5 30.8-11.5 6-2.5 23.1-10.3 9.5-4.4 18-9 19.8-10.5 38.1-22.4c32-20.8 61-45.3 88.7-73.5q7.4-7.6 13.4-14.7 32.7-38.6 58-82.2 4.8-8.4 9.5-17.8 18.3-36.8 31.4-76.2c.4-1.2 1.6-3.6 2-5.5q.2-1.6.5-2.4 2.3-7 3.8-13.1 3.3-13.3 6.6-29.7 2.9-14.5 6.8-44.9c1-8 1.3-16.4 1.9-24.8 1.8-27.2.8-56-2.6-84.8l-1.7-12.3-1.9-12.3q-1-6.8-6.6-31-11.4-48.7-32.3-93.5-10.6-22.7-24.3-45.6a.8.8 0 0 1 0-.9q7.3-9.7 14.3-19.4c5.8-8.1 11.2-17 16.8-25.5q1-1.6 2-3.8l2-3.8a203.6 203.6 0 0 0 23.6-61c4-21.9 2-42.8-12.1-60.4q-5.2-6.5-12-11.3a97.4 97.4 0 0 0-34.5-15.2q-24.2-5.8-50.6-5.5h-2.9q-32.8.5-69 7.2l-72.5 16.8q-2.3 6.2-1 7c21.2 11.1 35.5 11.2 53.7 24.6.3.2 36.6-2 37-2q12.1 0 24.7 1.7c18.8 2.5 38.8 9 51 23.3a58.7 58.7 0 0 1 10.8 48.4q-1.7 9.6-6.3 22.8-3 8.8-7.9 18.2-8 15.6-14.6 26c-6.7 10.4-15.2 20.8-22.7 31.3q-9.8 13.6-22.5 27.7-19.2 21.2-30 31.8-4.9 4.6-6.8 6.7l-11.4 11.6c-6.9 7-15.3 14-23 21.3a573.4 573.4 0 0 1-34.7 29.9q-2.4 1.9-4.1 3.5-2 1.9-4.1 3.6l-28.7 23.3q-8.6 7-41.6 31l-6.9 5c-3.3 2.4-6.6 5.2-9.7 7.3-17.4 12-34.6 24.3-52.3 35.6l-26 16.6q-38.8 24.6-74.6 44.4l-4.8 2.5q-2.2 1.1-4.6 2.6c-3.6 2.3-7.4 4-11.3 6.2q-61.3 34.6-129 64.1c-1.8.8-4 1.3-5.5 2q-8 4-16.8 7.5-28.7 12-58 22.5c-1.4.5-3 .8-4.4 1.5q-2.8 1.2-8.5 3.1-21.8 7.4-41.2 13l-5 1.2c-2.3.6-4.7 1.6-6.7 2-8.5 2.4-17 4.8-25.6 6.8q-22.4 5-39.8 7.7c-15.8 2.5-31.9 5-48.3 4.5-2 0-8.1-12.6-10-12.6l-14.1-28.7q.3-1 .6 0 6 15.7 12.8 31a60 60 0 0 0 6.6 12.2l37-.2q-8.8-22.6-9.9-25-18.7-40.2-29-83.5-7.4-31.2-10.3-62.4-2.3-25.7-2.2-45.4.3-30.8 5.3-65 3-21 9.2-45.9 5.6-22.7 14.7-46.4 8.8-22.8 16-37.4 7-14.5 18-33.5 5.3-9.2 10.7-17.3a460.4 460.4 0 0 1 48.8-62.5q16.3-17.2 36.6-34.9 24.5-20.7 48.7-36.4 42-27.2 90.7-45.2 9.2-3.4 18.8-6.3 38.7-11.7 74.8-16.9 99.5-14 196.7 15.6 32 9.8 64.2 25.3 5.5 2.7 10.8 5.6c40 20.9 76.6 47.3 108.9 78.7q13.8 13.4 24.7 26.1 20.3 23 31.8 36.7 8-17 17.2-32.7c0-.2-13.9-17.4-14-17.6q-8-9.4-15.6-18-17.7-19.5-38.5-37.7c-2.1-1.8-3.9-4-6.1-5.7-20.1-15.8-38.6-30-58.4-42.1l-13.2-8q-6.6-3.8-13.5-7.5c-7.8-4-15.4-8.1-22.8-11.6q-24-11.3-49.2-20.1c-4.8-1.7-10.8-4.2-16.5-5.7l-20.9-5.6q-30-8-62.8-11.9c-1.5-.2-2.9-.6-4.3-.7q-14-1.2-25.7-2-61.2-4-121.7 7.8-35.8 7-67 17.7l-11.1 3.8q-6 2-11 4.2c-7 3-14 6.2-20.8 8.8l-5 2.2q-39.9 18.8-76 43.8-5.6 3.9-15 11.1-4.5 3.5-19.5 15.8c-6.8 5.5-13.5 12-20.2 17.9-5.5 4.8-10.3 10.3-15.4 15.5-5.1 5.1-10 10.8-15 16.2q-3.3 3.4-5.9 6.6l-13.7 16.8q-4.8 6-17.2 23.6-5.1 7.4-17 27.2-5.5 9.2-9.9 17.4-12.7 23.9-21.3 44-3.3 7.6-8.5 22-3.7 10-6.5 18.8-4.5 14.3-8 28.4l-2.8 11.5c-2.5 9.6-3.8 19.4-5.7 29-1.1 6-1.7 12.3-2.5 18.5q-.2.3-.2 1.2-2.8 25.5-3 32.5-1.4 32.6.9 65 .6 9.7 2 20 2.6 19.8 6.1 38.3l.6 2.5q4.3 20.5 9.6 39.3 3.2 11.7 7.4 23 .2.6-.4.7l34.9 77.1Z"/>
  <path fill="#4CFF64" d="M12492.7 541.7q-4.5 3-9.3 5.5-17.7 9-37.6 12.5-9.3 1.6-20 1.4c-17-.2-31.5-2.8-47.2-5q-15.3-2.5-26.4-3.1-4.2-.3-17.4-.7c-11.3-.3-21.5.1-32.3 1q-33 2.7-62.8 16.4c-9 4.2-19.2 10.3-29 15.5-5.9 3.2-13.6 6.7-20.2 3.5q-5.3-2.6-8.2-9.3-2.4-6.9-3.2-14.1c-1.5-14.3-2.7-34-16.2-42.3a31.8 31.8 0 0 0-9.3-3.4q-9.5-1.7-19.1-2.8-32.5-3.8-57.7-25 25.3-9.3 48.3-15.2c25.2-6.5 51-10.3 78.3-12.6q9.7-.8 20.3-1 21.9-.5 38 .4 16.3.8 40.5 4.1 25 3.5 47.7 9.5 24.7 6.6 44.7 14.1 32.3 12.2 59.4 26.8 17.4 9.4 38.7 23.8Z"/>
  <path fill="#04A7EB" d="M12076.8 491.9q25.2 21 57.7 24.9 9.6 1 19.1 2.8c2.7.5 7 2 9.3 3.4 13.5 8.3 14.7 28 16.2 42.3q.8 7.2 3.2 14l-1.4 4.8q-.1.5-.6.4l-73 58q-.2.7-.6 0-.3-1.1-.9-.6l-1.6 1.3q-.4.3-.1.8.6 1 .9 2.1 0 .3-.2.3l-.2.2q-.3.4.1.7l1.4.8q.7.1.1.5l-.5.3v.3l.2.1v.1h-.3q-12-7.8-26.6-14.2c-12.8-5.5-27-13.2-40.7-18q-8-2.9-16.6-3.4c-6.2-.4-13.8.6-19.8 2q-21.7 5.1-42.2 14.7a81.3 81.3 0 0 0-26 18.2q-10 11.3-6.6 26.9 2 9 4.4 18.6c2.6 10.3 2.1 20.4-1.5 30.3-3.3 9-8 16.5-13.3 25.4q-7.2 12.1-14.6 25.6a192.2 192.2 0 0 0-22.1 60.5q-.3 2-.4 9-2.1-.7-1.6-3.8 0-.3-7.2 6.4-.3.4-.8.5l-87.4 71-.6-.1v-13.3c0-4.3 0-6.1.4-12.2q2-35.6 8.9-68.4 21-99.4 81.3-179.8 21.9-29.2 50.9-57.3 7.2-7 14.6-13.5 39.2-33.9 83.4-57.5 25.4-13.7 55.3-25.1Z"/>
  <path fill="#148BD6" d="M12492.7 541.7q26 17.7 49.7 39.1-.5.5-1.4-.5h-.3l-.2.2q-.3 0-.2.3l-1.3 2.4-1.3 2.5q-525.2 443.6-525.4 445.5 0 .4-.4.4-1.4-.3-2.2 1-.3.3 0 .5.3 0 .4.3.1.3-.3.2h-.2q-.2.1-.2.3l.2.2q.2 0 0 0h-.4q-.3-.2-.5 0-.8.3-.6.9.1.5-.3.6l-2.6 1q5-5 4.1-10.1-1-6-7.6-10.2-6-3.7-12.8-4.7c-5.4-.8-12.5.3-17.7 1.9q-20.5 6.1-26.5 7.3-7.3 1.5-17.2-.2-13.2-2.3-23-4.4a72.1 72.1 0 0 0-15.3-1.3c-16.8 0-32 14-40 27.7-1.4 2.5-3.8 7.7-1.6 10.3q1.9 2.2 5.7 4c5.7 2.8 12 7 16.7 9.3q13.6 6.4 29 6.2h.7q.7 0 .4.6-.4.6-1 .6-.2 0 0 0 .6.8.2 2 0 .2-.3.2-.4 0-.4.3-.2 1 .5 1.2.4.2 0 .4-1 .4-1.7 1.3-.3.3.1.3.7 0 1.3.7-22 4.9-44.3 8.7l-3 .8c-1.7.4-3.5.1-5 .4q-14.5 2.5-29 4.5l-8.1-21.1q-5.8-15.7-11-34.3l7.1-5.9q.4-.3.9-.4 1.8-.4 2.4-2.1.2-.4.6-.2c140.7-117.5 220.8-183.1 240.2-197q.2-.1.2-.4l.2-1.6q0-.2.1-.1l.3.2q.4.2.6-.2.2-.5.1-1.2-.3 9.6 1.8 17.4 3.7 13.9 4 22.6c.1 6.2 1.3 11 7.8 12.7 7.7 2 16.8-1.9 21.5-8.1q12-16.1 14.5-37.4 2.6-22.6-3.4-44.8l8.3-7.5c92-82.6 265.5-229.8 266.4-230q5 2.3 6.6 1c15.7 2.3 30.2 4.9 47.2 5.1q10.7.2 20-1.4 19.9-3.5 37.6-12.5 4.8-2.5 9.3-5.5Z"/>
  <path fill="#0C98E0" d="M12378.6 556Q12102.4 787 12100 790c-.2.2-.3.6-.3.9l-.2.8q-.2.4-.7.3-1.2-.4-1.5.5-1-4.5-3.8-8.5a1.7 1.7 0 0 0-2.6-.3q-1.3 1.2-2 2.9l-5.2 13c-2 5.2-4.6 10.2-10.5 9.4-2.8-.5-7-1.7-9.4-1-8 2.4-12 14.8-12.7 22.1q.1.7-.1 1.2-.2.4-.6.2l-.3-.2h-.1l-.2 1.7q0 .3-.2.5-241.4 198.8-243.2 199.2-.5 0-.9.4l-7 6c-7.4-25.2-16.5-72.2-16.5-120.1 15.8-28.2 79-70.9 95.6-78 2.6-1.1 3.3 10.9 3.3 11q3.7 10 13.6 6a68 68 0 0 0 22.2-16c18.2-18.6 34.7-38.5 51.3-58.5q10.5-12.7 21.3-22.9 16-15.1 37.8-21.9 14.6-4.5 32.6-9 20.7-5 40.3-15.2c11.5-6 23.3-15.5 24.4-28.8 1.2-14.6-7.2-27.4-18.8-36.2h.3v-.1l-.2-.2v-.3l.5-.3q.6-.4 0-.6-.8-.2-1.5-.7-.4-.3 0-.7l.1-.2q.3 0 .2-.3-.3-1.1-.9-2.1-.3-.5.1-.8 72.8-56.8 73.5-57 .4-.3.7-.8.6-1 1.9-.9.5 0 .6-.4l1.4-4.7q2.9 6.7 8.2 9.3c6.6 3.2 14.3-.3 20.2-3.5 9.8-5.2 20-11.3 29-15.5q29.8-13.7 62.8-16.4c10.8-.9 21-1.3 32.3-1q13.2.4 17.4.7 11.1.6 26.4 3Z"/>
  <path fill="#1983D0" d="M12542.4 580.8q33 30 59.6 65.7 1.6 2.1 3.7 4.2-1.3 1-2 1.8-32.9 34.4-67.7 66.5-12.2-3.5-24.3-6.5a111.7 111.7 0 0 0-41.5-2.9q-8 1-14.6 4.3a73 73 0 0 0-19.3 14.6l-18.6 18.4q-9.2 9-18 15.1-11 7.4-25.5 14.2-12.7 6-35.2 14.9-6.6 2.7-12.8 6.4c-7.4 4.6-11 10.6-5.4 18.8a30 30 0 0 0 24.2 13.5q8.7 0 18-2.3c7.8-2 15.6-4.6 23.7-5.6q4.9-.5 8 .6 11.3-4.7 14 2.5c-13.6 10-27.3 20.7-40.6 30.3q-40 28.7-81.2 54.6l-6 4q-2.1 1.5-4.4 2.7c-11.7 6.4-23 13.5-34.5 20.2q-10.8 7-19.7 12-10.8 5.2-24.5 12.7-15.5 8.5-52.6 26.5l-4 2q-1.5.9-3.5 1.7-12.2 5.5-23.8 10.5-4.6 2-8.7 4.1-4.4 2.3-8.5 3.9-10.2 3.8-20.6 8.3-6.5 3-26.8 10.3c-1.3.5-3.6 1.7-5.5 2.3l-2.2.6c-29.8 11-54 24-84 32.1l-3.1 1c-1.6.6-3.5.7-5 1q-21 6-42.4 11-.7-.7-1.3-.8-.4 0-.1-.3-7.5 2.4-6.6 2 .4-.2 0-.4-.7-.3-.5-1.2 0-.3.4-.3.2 0 .3-.2.4-1.2-.3-2 .7 0 1-.6.4-.6-.3-.6h-.7q14.9-1 28.4-5.7c9.4-3.3 18.9-7.5 29.9-10.6 6.4-1.9 17.7-4.2 26.6-7q12.3-4 21.3-12.5l2.6-1q.4-.1.3-.6-.2-.6.6-1h.5l.3.1q.3 0 0 0v-.4h.3q.4 0 .3-.3l-.3-.3q-.4-.2-.1-.5.8-1.3 2.2-1 .4 0 .4-.4c346.6-298.7 520.8-446.7 522.4-444q.8-1.2 2.2-1 .5 0 .8-.5l1.3-2.5q.2-.4.7-.7 1-.5.6-1.7 0-.2.2-.3l.2-.2h.3q1 1 1.4.5Z"/>
  <path fill="#4CFF64" d="M12105.6 649.5c11.6 8.8 20 21.6 18.8 36.2-1.1 13.3-12.9 22.7-24.4 28.8q-19.6 10.2-40.3 15.3-18 4.4-32.6 9-21.8 6.7-37.8 21.8-10.8 10.2-21.3 23c-16.6 19.9-33.1 39.8-51.3 58.3a68 68 0 0 1-22.2 16q-9.9 4-13.6-5.9-.8-2.1-1.3-7 0-7 .4-9c3.4-21.2 12-42.1 22-60.5q7.5-13.5 14.7-25.6c5.3-8.9 10-16.5 13.3-25.4 3.6-9.9 4-20 1.5-30.3l-4.4-18.6q-3.4-15.6 6.6-26.9a81.3 81.3 0 0 1 26-18.2q20.5-9.6 42.2-14.7c6-1.4 13.6-2.4 19.8-2q8.7.5 16.6 3.4c13.7 4.8 28 12.5 40.7 18q14.7 6.4 26.6 14.3Z"/>
  <path fill="#2272C3" d="M12677.5 804.3q-.6.9-1.4.5-.5-.2-1 0l-191.8 163.6q-.3.4-.9.4l-.7.1q-.5 0-.8.5-1.6 1.9-3.8 3-.8.3 0 1.7l-40.9-15q-1.7-.7-5.6-.9-57.7-2-113.5-4.4c-1.2 0-5.2 0-4-.7q27.8-17.6 52-33.8 49-32.8 96.9-70.3 57.1-44.7 105.7-92.2 4.7-4.6 18.2-18.7a750.6 750.6 0 0 0 43.2-49.3.6.6 0 0 1 1 0q31.6 54.3 47.4 115.5Z"/>
  <path fill="#4CFF64" d="M12536 719q-4.7 5.5-10.3 10.2c-1 .8-1.2 2-2.5 3q-4.6 3.2-8.3 7.5c-1 1.2-2.4 1.6-3.5 2.5q-43 39.3-88.8 75.3l-2.7 2.5c-1.5 1.4-3.4 2-4.8 3.4q-5 5-11.3 8.4-2.7-7-9.1-9.3-3.1-1.1-8-.6c-8.1 1-15.9 3.6-23.7 5.6q-9.3 2.3-18 2.3a30 30 0 0 1-24.2-13.5c-5.6-8.2-2-14.2 5.4-18.8q6.2-3.7 12.8-6.4 22.5-9 35.2-14.9 14.5-6.8 25.5-14.2 8.8-6 18-15l18.6-18.5a73 73 0 0 1 19.3-14.6q6.6-3.3 14.6-4.3c14-1.8 28-.4 41.5 3q12.1 3 24.3 6.4ZM12097.3 792.5q6 22.1 3.4 44.8-2.5 21.3-14.5 37.4a21.7 21.7 0 0 1-21.5 8.1c-6.5-1.6-7.7-6.5-7.9-12.7q-.2-8.7-4-22.6-2-7.8-1.7-17.4c.7-7.4 4.8-19.7 12.7-22 2.4-.8 6.6.4 9.4.9 5.9.8 8.4-4.2 10.5-9.4l5.2-13q.7-1.7 2-2.9a1.7 1.7 0 0 1 2.6.3q2.8 4 3.8 8.5Z"/>
  <path fill="#2769BD" d="M12677.5 804.3q13.8 54.3 14.3 110.8v1.5l-15.3-.8q-.2.2-.4 0-.3-.3-.6-.3c-2.1-13.3-13-21.3-26-18.3a21 21 0 0 0-14 29.4c3.7 7.6 13 12.8 21.4 11.8q.3.3.4.7.2.5-.3.5-288.7 239.6-289.7 239.4l-1.8-8.8q-1-4.2-3-8.6-38.6-88.2-78.5-176.4-5.3-11-4.8-11l148.5 28.5q1.6.3 3.3.1l90.8-11.3q1.4-.2 0-.7l-44.7-16.7q-.8-1.4 0-1.7 197-167.3 198-167.6.5-.2 1 0 .8.4 1.4-.5Z"/>
  <path fill="#FFF" d="M12675.5 915.5c.8 12.3-7 20.8-18.6 22.9-8.4 1-17.7-4.2-21.3-11.8a21 21 0 0 1 13.9-29.4c13-3 23.9 5 26 18.3Z"/>
  <path fill="#2E5DB4" d="M12691.8 915q.3 73-21.3 140-23.3 72.3-68.6 133.5-26.9 36.3-59.2 65.5a465.4 465.4 0 0 1-41.5 33.7q-17.8 12.6-30 19.5-27.7 15.8-38.5 20.8-9 4.2-18.8 8.4-9.6 4.2-32.2 12.1-9 3.2-19.1 6-50.5 14.2-102.1 17-13.5.7-29.4.3-1.4-.7-3.4-.4 4.8-15.7 6.8-16.4 3.3.6 8-.8c11.6-3.6 17.8-14 14.5-26q101.1-84.5 101.2-84.8.4-.7 1.3-.5l27.6 45.2q.7 1.1.5-.2c-.4-4.8-1.6-10.2-2.4-14.4l-18-94.5q290-240.3 289.7-240.6c11.6-2 19.4-10.6 18.6-22.9q15-1 16.3-.5Z"/>
  <path fill="#1983D0" d="M12270.2 1019.4q-306 259-306.2 259.5-.3.8-1.1 1.6-35.2-27-59.4-53.5a449.4 449.4 0 0 1-53.6-70.9q-.3-.4.2-.5 65-14.9 117-33.3 56-19.9 97.9-38 41.8-18.2 62.8-28.7c20.3-10.1 40.6-19.8 60.4-30.4a1708 1708 0 0 0 71-39.2c.2 0 .3.2.3.4l10.7 33Z"/>
  <path fill="#4CFF64" d="M12005.2 1036.6q-9 8.5-21.3 12.4c-8.9 2.9-20.2 5.2-26.6 7-11 3.2-20.5 7.4-29.9 10.7q-13.5 4.6-28.4 5.7-15.4.2-29-6.2c-4.6-2.2-11-6.5-16.7-9.3q-3.8-1.8-5.7-4c-2.2-2.6.2-7.9 1.7-10.3 8-13.7 23.1-27.8 40-27.7 5 0 9.9.2 15.2 1.4q9.8 2 23 4.3 9.9 1.7 17.2.2 6-1.2 26.5-7.3a45.3 45.3 0 0 1 17.7-1.9q6.8 1 12.8 4.7 6.6 4.1 7.6 10.2.9 5-4.1 10Z"/>
  <path fill="#2272C3" d="m12270.2 1019.4 32.5 100.5q-247.4 209.5-249.2 211.7-.3.4-.7.2-1-.3-1.6.8-8.2-3.5-16-7.5-16.4-8.4-32.3-17.5-17.8-10.3-40-27.1.8-.8 1.1-1.6.2-.5.7-.7a17303.5 17303.5 0 0 1 305.5-258.8Z"/>
  <path fill="#2769BD" d="m12302.7 1120 19.7 61.1c.4 1.3 1 2.5 1.7 3.7l35.4 58q-99.6 84.8-102.5 85.4-3.5-10.5-13.2-13.8a21 21 0 0 0-19.5 36.6q3.9 2.8 10.2 4-4.8 16.1-3.4 16.8-10.3.1-20.4-.5-49.3-2.9-97.7-16.2c-17.9-4.9-36-11.7-52.8-18.5q-4.9-2-9.3-4.1c166.5-142 250.4-212.8 251.8-212.6Z"/>
  <path fill="#FFF" d="M12257 1328.2c3.3 12-2.9 22.4-14.6 26q-4.6 1.4-7.9.8-6.3-1.2-10.2-4a21 21 0 0 1 19.5-36.6q9.7 3.3 13.2 13.8Z"/>
</svg>
