<?xml version="1.0" standalone="no"?>
<!DOCTYPE svg PUBLIC "-//W3C//DTD SVG 20010904//EN"
 "http://www.w3.org/TR/2001/REC-SVG-20010904/DTD/svg10.dtd">
<svg version="1.0" xmlns="http://www.w3.org/2000/svg"
 width="700.000000pt" height="700.000000pt" viewBox="0 0 700.000000 700.000000"
 preserveAspectRatio="xMidYMid meet">
<metadata>
Created by potrace 1.14, written by Peter Selinger 2001-2017
</metadata>
<g transform="translate(0.000000,700.000000) scale(0.100000,-0.100000)"
fill="#000000" stroke="none">
<path d="M3265 6344 c-704 -73 -1318 -366 -1790 -855 -471 -488 -740 -1087
-795 -1773 l-10 -128 -118 -132 c-245 -271 -343 -406 -437 -600 -72 -147 -99
-245 -99 -362 0 -80 4 -98 32 -157 55 -119 157 -193 327 -238 107 -28 374 -37
542 -18 65 7 122 14 127 14 4 0 35 -43 68 -95 107 -170 228 -321 388 -481 241
-241 456 -396 755 -544 275 -136 539 -220 836 -267 193 -29 618 -32 804 -5
516 76 991 282 1395 603 129 103 375 355 472 484 287 381 475 814 548 1261 97
594 5 1198 -262 1733 -33 66 -71 137 -85 159 l-25 39 27 37 c140 190 228 348
281 507 61 181 55 323 -17 436 -101 157 -357 233 -701 208 -186 -13 -231 -20
-491 -81 l-218 -51 -122 55 c-179 80 -304 125 -473 168 -251 65 -373 80 -664
84 -140 1 -273 1 -295 -1z m557 -219 c310 -36 626 -134 905 -279 119 -63 253
-146 253 -159 0 -13 -139 -73 -211 -91 -87 -21 -223 -20 -394 3 -395 55 -670
25 -890 -95 -196 -107 -218 -112 -265 -66 -27 28 -50 100 -50 161 0 39 -29
131 -51 162 -23 33 -75 54 -154 63 -135 16 -260 61 -344 124 -40 30 -41 29 89
71 167 53 386 99 545 114 112 10 451 6 567 -8z m1686 -276 c194 -30 314 -142
329 -306 6 -63 -19 -184 -54 -263 l-18 -41 -41 53 c-121 154 -324 352 -489
476 -55 41 -101 78 -103 83 -7 18 256 17 376 -2z m-3143 -596 c50 -16 222 -94
323 -146 109 -57 172 -141 172 -232 0 -57 -17 -91 -68 -137 -58 -52 -173 -103
-335 -148 -300 -83 -323 -98 -560 -375 -215 -253 -336 -365 -392 -365 -56 0
-77 81 -51 192 26 113 72 218 168 384 136 238 144 270 108 422 -11 46 -20 97
-20 113 0 103 115 198 329 269 153 52 221 56 326 23z m2783 -563 c53 -13 91
-28 89 -34 -3 -11 -53 -55 -292 -266 -86 -76 -384 -321 -453 -373 -8 -7 -18
-2 -32 16 -30 38 -63 40 -175 12 -122 -30 -166 -31 -221 -4 -45 21 -84 71 -84
107 0 34 63 75 209 136 205 85 273 128 414 265 116 112 158 143 217 162 47 16
230 4 328 -21z m-2443 -452 c22 -72 30 -210 16 -283 -14 -76 -73 -197 -107
-220 -61 -40 -144 -24 -144 29 0 13 -9 72 -21 131 -18 90 -19 114 -9 155 18
73 47 100 110 100 l51 0 23 53 c12 28 26 60 29 70 12 34 36 18 52 -35z m3292
-624 c61 -39 67 -134 12 -185 -88 -82 -226 -6 -202 112 6 33 56 86 86 92 32 7
78 -1 104 -19z m-1607 -325 l265 -11 248 -91 c136 -50 247 -94 247 -97 0 -3
-118 -20 -262 -38 l-263 -32 -310 60 c-478 92 -544 104 -550 98 -3 -2 40 -106
96 -229 55 -123 166 -370 246 -549 l145 -325 64 -335 c35 -184 63 -339 61
-344 -4 -13 -355 565 -372 612 -28 76 -358 1087 -359 1099 0 6 67 52 149 102
l150 91 90 0 c50 0 209 -5 355 -11z m-3631 -464 c30 -121 92 -309 130 -398 12
-27 21 -51 21 -53 0 -2 -19 -2 -42 2 -425 60 -512 327 -247 755 l63 102 22
-144 c12 -79 36 -198 53 -264z m1382 122 c18 -12 40 -35 49 -49 13 -25 13 -29
-6 -55 -35 -47 -105 -83 -230 -118 -66 -18 -159 -47 -209 -65 -113 -41 -229
-51 -303 -27 -69 23 -186 91 -190 111 -5 24 53 111 98 146 79 63 153 74 292
45 102 -22 169 -20 268 9 113 32 186 33 231 3z m1413 -1731 c103 -43 101 -182
-4 -226 -70 -29 -160 31 -160 108 0 48 32 99 73 117 41 18 50 18 91 1z"/>
</g>
</svg>
