<svg xmlns="http://www.w3.org/2000/svg" viewBox="0 0 252 115.3"><style>.st1{fill:#fff}.st2{fill:#f48220}.st3{fill:#fbad40}.st4{fill:#56575b}</style><g id="Layer_1"><path d="M.4.3h251.3V115H.4z" style="fill:none;stroke:#e6e6e5;stroke-width:.5;stroke-miterlimit:10"/><path d="M208.5 45.5 198.1 43l-1.7-.7-47.7.4v23l59.9.1z" class="st1"/><path d="M189.1 63.6c.5-1.9.3-3.6-.6-4.9-.8-1.2-2.2-1.9-3.9-1.9l-32.2-.4c-.2 0-.4-.1-.5-.3-.1-.2-.1-.4-.1-.6.1-.3.4-.6.7-.6l32.5-.4c3.9-.2 8-3.3 9.5-7.1l1.9-4.8c.1-.2.1-.4.1-.6-2.1-9.5-10.5-16.5-20.6-16.5-9.3 0-17.2 6-20 14.3-1.8-1.4-4.2-2.1-6.7-1.8-4.5.4-8 4-8.5 8.5-.1 1.2 0 2.3.2 3.3-7.3.2-13.1 6.2-13.1 13.5 0 .7.1 1.3.1 2 0 .3.3.5.6.5h59.4c.3 0 .7-.2.8-.6l.4-1.6z" class="st2"/><path d="M199.3 42.9h-.9c-.2 0-.4.2-.5.4l-1.3 4.4c-.5 1.9-.3 3.6.6 4.9.8 1.2 2.2 1.9 3.9 1.9l6.9.4c.2 0 .4.1.5.3.1.2.1.4.1.6-.1.3-.4.6-.7.6l-7.1.4c-3.9.2-8 3.3-9.5 7.1l-.5 1.3c-.1.2.1.5.4.5h24.5c.3 0 .6-.2.6-.5.4-1.5.7-3.1.7-4.8-.1-9.6-8-17.5-17.7-17.5" class="st3"/><path d="M219.4 76.1c-.9 0-1.6-.7-1.6-1.6 0-.9.7-1.6 1.6-1.6.9 0 1.6.7 1.6 1.6-.1.9-.8 1.6-1.6 1.6m0-2.8c-.7 0-1.3.6-1.3 1.3 0 .7.6 1.3 1.3 1.3.7 0 1.3-.6 1.3-1.3-.1-.8-.6-1.3-1.3-1.3m.8 2.1h-.4l-.3-.6h-.5v.6h-.3v-1.7h.8c.4 0 .6.2.6.6 0 .2-.1.5-.4.5l.5.6zm-.7-.9c.1 0 .3-.1.3-.3 0-.2-.1-.3-.3-.3h-.5v.5h.5zM53.3 72.8h4.1v11.1h7.1v3.6H53.3zM68.7 80.2c0-4.3 3.4-7.7 7.9-7.7s7.9 3.4 7.9 7.6c0 4.2-3.4 7.6-7.9 7.6-4.6 0-7.9-3.3-7.9-7.5m11.6 0c0-2.2-1.5-4-3.8-4-2.2 0-3.7 1.8-3.7 3.9 0 2.1 1.5 4 3.7 4 2.3 0 3.8-1.8 3.8-3.9M89.4 81v-8.2h4.1v8.1c0 2.1 1.1 3.1 2.7 3.1s2.7-1 2.7-3v-8.3h4.1v8.1c0 4.7-2.7 6.8-6.9 6.8-4.1.1-6.7-2-6.7-6.6M109.3 72.8h5.7c5.2 0 8.3 3 8.3 7.2s-3.1 7.4-8.4 7.4h-5.6V72.8zm5.7 11.1c2.4 0 4-1.3 4-3.7 0-2.3-1.6-3.7-4-3.7h-1.7V84h1.7zM129.1 72.8h11.7v3.6h-7.6v2.4h6.9v3.4h-6.9v5.3h-4.1zM146.5 72.8h4.1v11.1h7.1v3.6h-11.2zM168.3 72.7h3.9l6.2 14.8H174l-1.1-2.6h-5.7l-1 2.6H162l6.3-14.8zm3.5 9-1.6-4.2-1.7 4.2h3.3zM183.7 72.8h6.9c2.2 0 3.8.6 4.8 1.6.9.8 1.3 2 1.3 3.4 0 2.2-1.2 3.7-3 4.5l3.5 5.1h-4.7l-3-4.4h-1.8v4.4h-4.1V72.8zm6.7 7c1.4 0 2.2-.7 2.2-1.7 0-1.2-.8-1.7-2.2-1.7h-2.7v3.5h2.7zM202.5 72.8h11.8v3.5h-7.7v2.2h7v3.2h-7V84h7.8v3.5h-11.9zM44.4 81.9c-.6 1.3-1.8 2.2-3.4 2.2-2.2 0-3.7-1.8-3.7-4 0-2.1 1.5-3.9 3.7-3.9 1.7 0 2.9 1 3.5 2.4h4.3c-.7-3.5-3.8-6.1-7.7-6.1-4.5 0-7.9 3.4-7.9 7.6 0 4.2 3.3 7.6 7.9 7.6 3.9 0 6.9-2.5 7.7-5.9h-4.4z" class="st4"/></g></svg>
