<svg xmlns="http://www.w3.org/2000/svg" viewBox="0 0 500 500"><path d="M431.74 269.77c-.29 0 0-4.45.28-9.9s.49-9.87.78-9.87.55 4.44.26 9.93-1.06 9.87-1.32 9.84Zm-8.46 38.62c-.28-.09 1-4.35 2.4-9.6s2.6-9.54 2.88-9.48-.41 4.46-1.88 9.75-3.14 9.42-3.4 9.33Zm-16.62 35.87c-.25-.16 1.86-4 4.42-8.86s4.6-8.74 4.86-8.62-1.36 4.26-3.94 9.11-5.1 8.52-5.34 8.37Zm-23.95 31.45c-.21-.2 2.69-3.55 6.22-7.7s6.37-7.56 6.61-7.38-2.26 3.87-5.82 8.05-6.81 7.23-7.01 7.03Zm-30.12 25.61c-.16-.24 3.39-2.89 7.72-6.2s7.84-6 8-5.79-3 3.3-7.4 6.62-8.16 5.6-8.32 5.37Zm-34.91 18.54c-.11-.27 3.93-2.09 8.87-4.38s8.95-4.2 9.09-3.94-3.67 2.58-8.65 4.88-9.21 3.71-9.31 3.44Zm-38.1 10.56c0-.29 4.29-1.19 9.62-2.36s9.64-2.16 9.72-1.88-4.14 1.72-9.5 2.89-9.8 1.63-9.84 1.35Zm-39.48 2.12c0-.29 4.45-.4 9.9-.26 5.45-.14 9.88 0 9.9.26s-4.41.64-9.9.78c-5.48-.14-9.92-.5-9.9-.78Zm-39.02-6.36c.08-.28 4.4.71 9.72 1.88s9.66 2.07 9.62 2.36-4.48-.17-9.84-1.35-9.58-2.62-9.5-2.89Zm-36.72-14.64c.14-.26 4.14 1.64 9.08 3.93s9 4.12 8.88 4.39-4.34-1.13-9.31-3.44-8.79-4.63-8.65-4.88Zm-32.7-22.21c.19-.23 3.68 2.49 8 5.79s7.89 5.95 7.73 6.2-4-2-8.36-5.37-7.56-6.41-7.37-6.62Zm-27.2-28.7c.24-.18 3.07 3.23 6.61 7.38s6.43 7.5 6.22 7.7-3.46-2.84-7-7-6.05-7.91-5.83-8.08Zm-20.41-33.86c.27-.12 2.31 3.81 4.87 8.62s4.67 8.71 4.42 8.86-2.77-3.52-5.34-8.37-4.2-8.99-3.95-9.11Zm-12.62-37.46c.29-.07 1.43 4.21 2.89 9.47s2.68 9.51 2.4 9.6-1.94-4-3.4-9.33-2.16-9.69-1.89-9.74ZM67.2 250c.29 0 .49 4.43.78 9.87s.57 9.86.28 9.9-1-4.36-1.32-9.84-.02-9.93.26-9.93Zm4.24-39.31c.28.06-.47 4.43-1.35 9.81s-1.54 9.76-1.83 9.73-.08-4.48.81-9.9 2.09-9.71 2.37-9.64Zm12.62-37.47c.26.13-1.42 4.22-3.44 9.29s-3.62 9.19-3.9 9.1.9-4.39 2.94-9.49 4.14-9.02 4.4-8.9Zm20.4-33.85c.24.18-2.29 3.82-5.35 8.33s-5.51 8.19-5.77 8 1.82-4.09 4.91-8.63 5.99-7.87 6.21-7.7Zm27.2-28.7c.19.23-3.06 3.24-7 7s-7.15 6.83-7.36 6.63 2.65-3.61 6.64-7.38 7.54-6.46 7.72-6.25Zm32.7-22.21c.14.26-3.68 2.51-8.34 5.33s-8.44 5.13-8.61 4.89 3.36-3 8.07-5.79 8.75-4.68 8.88-4.43Zm36.72-14.64c.08.28-4.13 1.65-9.3 3.39s-9.35 3.2-9.46 2.93 3.93-2.17 9.13-3.91 9.55-2.68 9.63-2.41Zm39.02-6.36c0 .3-4.4.73-9.82 1.31s-9.81 1.1-9.86.81 4.3-1.26 9.75-1.84 9.92-.56 9.93-.28Zm39.48 2.12c-.05.29-4.45-.23-9.87-.81s-9.83-1-9.81-1.31 4.47-.31 9.92.28 9.81 1.56 9.76 1.84Zm38.1 10.56c-.11.27-4.29-1.19-9.46-2.92s-9.38-3.12-9.3-3.4 4.43.65 9.63 2.41 9.24 3.65 9.13 3.91Zm34.91 18.54c-.16.24-3.93-2.08-8.6-4.89s-8.48-5.07-8.35-5.33 4.19 1.6 8.89 4.44 8.22 5.55 8.06 5.78Zm30.12 25.61c-.21.2-3.4-2.88-7.36-6.62s-7.19-6.77-7-7 3.75 2.46 7.73 6.24 6.84 7.19 6.63 7.38Zm23.95 31.46c-.25.15-2.7-3.54-5.77-8.05s-5.59-8.15-5.35-8.33 3.13 3.2 6.21 7.75 5.15 8.48 4.91 8.63Zm16.62 35.87c-.28.09-1.88-4-3.9-9.1s-3.7-9.17-3.43-9.29 2.37 3.8 4.4 8.9 3.2 9.4 2.93 9.49Zm8.46 38.61c-.29 0-.95-4.35-1.83-9.73s-1.63-9.74-1.34-9.81 1.49 4.23 2.36 9.65 1.07 9.87.81 9.89Z"/><ellipse cx="417.38" cy="421.04" rx="36.91" ry="35.06" transform="rotate(-50.46 417.4 421.04)" style="fill:#e9e9e9"/><g style="opacity:.2"><path d="M386.89 410.24a23.87 23.87 0 0 0 9.49-1.76c.74-.27.42-1.33-.23-1.39-2.8-.28-5.46-.62-8.31-.64-.77 0-1.59-.06-2.42-.1a39.17 39.17 0 0 0-1.58 3.7c1.03.14 2.1.15 3.05.19Z"/><path d="M390.12 416a54.34 54.34 0 0 0 22.25-4.28A63.15 63.15 0 0 0 432 398.86a54.19 54.19 0 0 0 6.87-7.86 36.32 36.32 0 0 0-3.09-1.93 39.13 39.13 0 0 1-5.53 6.77 61.39 61.39 0 0 1-15.9 11.37 55.41 55.41 0 0 1-17.83 5.62c-3.93.51-9.26 1.05-13.47-.2-.22.77-.42 1.56-.59 2.36a32.83 32.83 0 0 0 7.66 1.01Zm16.23-21.88c3.54-1.21 9.76-4.86 11.32-9.22a35.28 35.28 0 0 0-3.71.35c-.13.22-.26.44-.42.66a17.06 17.06 0 0 1-6.41 4.95c-2.79 1.38-7.69 3.07-11.56 2.64-.6.5-1.18 1-1.75 1.54 3.77 1.39 9.08.27 12.53-.92Z" style="fill:#fff"/><path d="M395 428.06c9.14-.41 17.9-3.43 26.3-7.34a65.65 65.65 0 0 0 20.7-14.55 50.38 50.38 0 0 0 5.26-6.56 33.49 33.49 0 0 0-5.4-6.17 53.26 53.26 0 0 1-7.44 8.51 67.75 67.75 0 0 1-17.92 11.48c-6.76 3.1-13.91 5.61-21.22 6.34a53.47 53.47 0 0 1-10.81-.1c-.93-.1-1.84-.25-2.75-.4a36.07 36.07 0 0 0 .05 7.64 46.55 46.55 0 0 0 13.23 1.15Zm15.79 19.47a120.81 120.81 0 0 1-15.35 3.18c.76.55 1.53 1.07 2.33 1.56 11.83-1.17 23.87-5.4 34.43-10.34a120.62 120.62 0 0 0 19.16-11.2c.23-.71.45-1.42.64-2.15A118.22 118.22 0 0 1 432 440a137 137 0 0 1-21.21 7.53Z"/><path d="M408.77 399.18a33.28 33.28 0 0 0 13.38-8.38 28.09 28.09 0 0 0 3.86-5.26 34.8 34.8 0 0 0-3.27-.5 20.17 20.17 0 0 1-3.21 4.41 30.72 30.72 0 0 1-11.22 7.23c-5.92 2.31-12.66 3.9-18.87 3.19-.53.69-1 1.39-1.51 2.1 6.78 1.26 15.13-.76 20.84-2.79Zm44.43 20.24a87.86 87.86 0 0 1-7.27 6.74 80.24 80.24 0 0 1-36.18 17.31c-6.26 1.34-13.26 2.9-19.69 2.31.55.63 1.11 1.23 1.71 1.82 4.94.33 10.42-1 15-1.78a92.43 92.43 0 0 0 21.78-6.36A88.94 88.94 0 0 0 453 423.25v-.33c.14-1.18.19-2.34.2-3.5Z" style="fill:#fff"/><path d="M427.34 434.58a91.54 91.54 0 0 0 23.54-16 76.4 76.4 0 0 0 2.21-2.2 34.69 34.69 0 0 0-3.6-13 57.41 57.41 0 0 1-7.18 7.85A82.53 82.53 0 0 1 422 424.6a71.4 71.4 0 0 1-24 7 58.33 58.33 0 0 1-13.28-.32 38.1 38.1 0 0 1-2.3-.39 34.08 34.08 0 0 0 5.35 12.07 57.44 57.44 0 0 0 9.82.08 83.5 83.5 0 0 0 29.75-8.46Z" style="fill:#fff"/><path d="M421.12 395.34c-2.57 1.66-4.56 3.88-7.39 5.23s-6.23 2-8.84 4a1.45 1.45 0 0 0 1.16 2.54c3.38-.52 7.16-2.67 10.25-4.25 2.51-1.29 5.39-3.46 6.13-6.31.19-.76-.49-1.74-1.31-1.21Z"/><path d="M426.65 449.71A9.09 9.09 0 0 0 425 451c-.54.51 0 1.49.69 1.09a7 7 0 0 1 1.58-.71 6.33 6.33 0 0 0 1.56-.83.56.56 0 0 0-.17-1.06 2.85 2.85 0 0 0-2.01.22Z" style="fill:#fff"/><path d="M444 437.75c-3.53 2.05-7.86 3.36-11 6.06-.7.61-.41 2 .59 2 4.3-.15 8.69-3 12.37-5.2l.92-.57a37.66 37.66 0 0 0 3.35-6.27 126.37 126.37 0 0 1-6.23 3.98Z"/><path d="M419.24 452.2c1-.74.09-2-.86-1.87-3.27.32-6.53 2-9.8 2.79-2.14.5-4.31 1-6.47 1.38a34 34 0 0 0 5 1.66c4.39-.44 8.89-1.53 12.13-3.96Z" style="fill:#fff"/></g><path d="M429.33 452.11a4.72 4.72 0 0 1-1 .56 24.3 24.3 0 0 1-2.92 1.19 32 32 0 0 1-10.25 1.72 33.87 33.87 0 0 1-5.72-.49 30.54 30.54 0 0 1-4.53-1.2c-.64-.21-1.19-.45-1.68-.66a10.46 10.46 0 0 1-1.23-.57 5.08 5.08 0 0 1-1-.58c.05-.09 1.52.66 4 1.45a34.7 34.7 0 0 0 4.49 1.07 36.53 36.53 0 0 0 5.64.45 35.21 35.21 0 0 0 10.13-1.55c2.54-.78 4.03-1.5 4.07-1.39Z" style="fill:#fff"/><path d="M443.67 397.49c.15.11-.32 1-1.3 2.45l-.84 1.22c-.31.44-.7.88-1.1 1.36a40.1 40.1 0 0 1-2.86 3.21l-1.77 1.76c-.62.61-1.33 1.17-2 1.79-1.39 1.26-3 2.41-4.74 3.66a67.46 67.46 0 0 1-12.09 6.5 66.38 66.38 0 0 1-13.21 3.71 58.63 58.63 0 0 1-6 .66c-.94 0-1.84.13-2.71.12h-2.5a39.71 39.71 0 0 1-4.28-.32c-.62-.07-1.21-.13-1.74-.22l-1.45-.3c-1.74-.38-2.67-.67-2.64-.86s1-.23 2.76-.17l1.45.07h1.72c1.23 0 2.63.06 4.17-.07l2.42-.13c.84-.05 1.71-.19 2.61-.28 1.8-.14 3.7-.53 5.71-.87a69.89 69.89 0 0 0 24.38-9.83c1.67-1.15 3.31-2.19 4.71-3.34.71-.56 1.43-1.06 2.07-1.61l1.83-1.59c1.2-1 2.16-2 3.06-2.84.44-.43.87-.81 1.24-1.19l1-1.05c1.21-1.33 1.96-1.95 2.1-1.84Z" style="fill:#eee"/><path d="M451.34 430.3a.93.93 0 0 1 0-.27c0-.2.09-.46.16-.78l.63-3v-.06s-.05.12 0 .13v-.08c0-.16 0-.33.07-.51v.06a35.44 35.44 0 0 0-.37-11.79l.05-.17c-.06 0-.07.22 0 .25l-.05-.09a34.63 34.63 0 0 0-21-25.19l.28-.06-.12.12-.17-.07a32.12 32.12 0 0 0-4.74-1.57 33.75 33.75 0 0 0-21.2 2 38.37 38.37 0 0 0-14.14 10.41 36.31 36.31 0 0 0-6.15 10.21 32.19 32.19 0 0 0-1.06 3.08l-.25.81c-.06.21-.1.28-.11.27a26.08 26.08 0 0 1 1.22-4.24 35.53 35.53 0 0 1 6.06-10.37 38.24 38.24 0 0 1 14.24-10.62 35.81 35.81 0 0 1 10.2-2.73 32 32 0 0 1 11.32.7 32.81 32.81 0 0 1 4.82 1.6l-.29.06.12-.13.16.07a34.83 34.83 0 0 1 21.22 25.6l-.05-.09c.07 0 .06.25 0 .27l.05-.17a35.09 35.09 0 0 1 .22 11.9v-.06c0 .18-.06.36-.08.51v-.08.14-.05l-.73 3-.2.78c-.05.21-.1.22-.11.21Z" style="fill:#fff"/><path d="M383.45 434.51c-.15-.4-.27-.8-.41-1.2-15.59 8.45-22.61 14-23.63 16.6a.74.74 0 0 0-.07.47v.09c0 .12.27.23.37.27 1.79.71 11.33 1.37 58.86-20.26 28.61-13 48.52-25.91 54.13-31.36a1 1 0 0 0-.73-1.7c-3.79.42-11.36 2.31-22.43 6.19.14.29.28.57.4.86 9.12-3.14 15-4.44 15.55-3.13 1.07 2.61-19.92 14.69-46.86 27S369 448.43 368 445.82c-.62-1.44 5.43-5.72 15.45-11.31Z" style="fill:#cfd8dc"/><path d="M447.86 400.26c.14.22.26.46.39.69 14.1-5 24.44-7.48 27.47-6.27a2.32 2.32 0 0 1 1.56 2.26c0 1.05-.08 4.25-17.51 15.11a365.47 365.47 0 0 1-40.06 21.15 693.22 693.22 0 0 1-19.18 8.4c-18.66 7.82-36.6 14.08-42 11.92a3.24 3.24 0 0 1-1.93-1.83 3.53 3.53 0 0 1 .06-2.76c1.82-4.64 13-11.75 25.52-18.47l-.14-.51c-21 11.53-33.82 21.4-32.81 25.47 2.17 8.77 34.59-1.85 72-18.89s65.63-37.29 63.39-42.81c-1.51-3.67-16.16-.79-36.76 6.54Z" style="fill:#cfd8dc"/><path d="M456.76 404.39c.29 0-1.44 1.72-1.49 1.76a24 24 0 0 1-2.3 1.58 92.86 92.86 0 0 1-6.42 3.83c-3.08 1.7-6.41 3-9.26 5.13a.31.31 0 0 0 .29.55c6.4-1.82 13.77-6.23 19-10.5.75-.62 2-1.48 1.57-2.59-.27-.73-.84-.88-1.55-.58a.43.43 0 0 0 .18.82Z" style="fill:#cfd8dc"/><g style="opacity:.30000000000000004"><path d="M383.45 434.51c-.15-.4-.27-.8-.41-1.2-15.59 8.45-22.61 14-23.63 16.6a.74.74 0 0 0-.07.47v.09c0 .12.27.23.37.27 1.79.71 11.33 1.37 58.86-20.26 28.61-13 48.52-25.91 54.13-31.36a1 1 0 0 0-.73-1.7c-3.79.42-11.36 2.31-22.43 6.19.14.29.28.57.4.86 9.12-3.14 15-4.44 15.55-3.13 1.07 2.61-19.92 14.69-46.86 27S369 448.43 368 445.82c-.62-1.44 5.43-5.72 15.45-11.31Z"/><path d="M456.76 404.39c.29 0-1.44 1.72-1.49 1.76a24 24 0 0 1-2.3 1.58 92.86 92.86 0 0 1-6.42 3.83c-3.08 1.7-6.41 3-9.26 5.13a.31.31 0 0 0 .29.55c6.4-1.82 13.77-6.23 19-10.5.75-.62 2-1.48 1.57-2.59-.27-.73-.84-.88-1.55-.58a.43.43 0 0 0 .18.82Z"/></g><path d="M447.86 400.26c.14.22.26.46.39.69 14.1-5 24.44-7.48 27.47-6.27a2.32 2.32 0 0 1 1.56 2.26c0 1.05-.08 4.25-17.51 15.11a365.47 365.47 0 0 1-40.06 21.15 693.22 693.22 0 0 1-19.18 8.4c-18.66 7.82-36.6 14.08-42 11.92a3.24 3.24 0 0 1-1.93-1.83 3.53 3.53 0 0 1 .06-2.76c1.82-4.64 13-11.75 25.52-18.47l-.14-.51c-21 11.53-33.82 21.4-32.81 25.47 2.17 8.77 34.59-1.85 72-18.89s65.63-37.29 63.39-42.81c-1.51-3.67-16.16-.79-36.76 6.54Z" style="opacity:.30000000000000004"/><circle cx="80" cy="442.07" r="21.94" transform="rotate(-26.93 79.99 442.03)" style="fill:#f2f2f2"/><path d="m78.12 420.15.25 1.08a4.42 4.42 0 0 0-3 1.34c-.67.9-.55 2.14-.82 3.23a1.16 1.16 0 0 1-.53.81 1.28 1.28 0 0 1-.82 0c-1.59-.35-3.42-.87-4.7.13-.75.58-1.22 1.63-2.16 1.75s-1.7-.9-2-1.86a21.88 21.88 0 0 1 13.78-6.48Z" style="opacity:.30000000000000004"/><path d="M69.25 431.19a.22.22 0 0 1-.14 0c-2-1 .79-4.41 2.43-4.12a1.29 1.29 0 0 1 .73 2.08c-.66 1-2 1.11-2.85 2a.32.32 0 0 1-.17.04Zm-5.45 3.03a.73.73 0 0 1-.74-.36A2.52 2.52 0 0 1 63 431c1-1.45 3.69-1.6 4 .43a1.61 1.61 0 0 1-1 1.79c-.39.13-.81.09-1.19.24a3.21 3.21 0 0 0-.81.57.7.7 0 0 1-.2.19Zm-.01 6.33c-.3 0-.59-.26-.86-.15s-.33.45-.59.48-.38-.23-.44-.46a2.91 2.91 0 0 1 .28-2.16.81.81 0 0 1 .24-.31 2 2 0 0 1 .9-.23 1.11 1.11 0 0 1 .92.69 2.61 2.61 0 0 1 .16 1.18c-.03.41-.2.93-.61.96Zm2.63-3.21c1.17-.93 3 .12 3.7 1.12.57.79 1 3.14-.72 2.93a2 2 0 0 1-1.41-.9 4 4 0 0 0-.64-1l-.07-.06c-.34-.24-.8-.3-1.07-.6a1.05 1.05 0 0 1 .21-1.49Zm.26 3.66a.68.68 0 0 1-.19.53.53.53 0 0 1-.44.09.81.81 0 0 1 .2-1.61 1.47 1.47 0 0 1 .43.99Z" style="opacity:.30000000000000004"/><path d="M66.48 440.08a.86.86 0 0 0-.23-.05l-.08-.08Zm-6.07-5.21a2 2 0 0 1 .19 1.48 9 9 0 0 1-.63 1.08c-.62 1.22.2 2.94-.71 4a2.23 2.23 0 0 1-1.16.62 21.82 21.82 0 0 1 1.57-8.18 3.15 3.15 0 0 1 .74 1ZM59.63 450a21.78 21.78 0 0 1-1.42-5.84c1.13-1 2.14-1.86 3.86-1.58a2.31 2.31 0 0 1 2 1.75 3.44 3.44 0 0 1-.18 1.38l-.41 1.46a1.32 1.32 0 0 1-.25.55c-.44.45-1.19.05-1.81.12a1.62 1.62 0 0 0-1.11.77 6.91 6.91 0 0 0-.59 1.26Zm6.79-1.82a3.4 3.4 0 0 1-.09-.9 6.63 6.63 0 0 0-.38-1.22 1.24 1.24 0 0 1 .14-1.21.51.51 0 0 1 .34-.17.72.72 0 0 1 .38.19 7.23 7.23 0 0 1 1.44 2.13l-.25-.3a1.56 1.56 0 0 1 .27.86 1.18 1.18 0 0 1-.72 1.09.93.93 0 0 1-1.13-.47Zm22.91-20.65a1.13 1.13 0 0 0-.4-.22c-.43-.1-.75.39-1.17.54a1 1 0 0 1-1.15-.5c-1.19-1.92 1.63-3.24 3.17-2.47s1.97 4.47-.45 2.65Zm-2.63 10.73a9.35 9.35 0 0 1-.41-2.17 3 3 0 0 1 .28-1.73 3.16 3.16 0 0 1 2.65-1.2 4.26 4.26 0 0 1 2.52.43 9.61 9.61 0 0 1 1.26 1.12c.68.64 1.51 1.11 2.21 1.74a4 4 0 0 1 1.13 1.55 7.77 7.77 0 0 1 1.19 5 2.93 2.93 0 0 1-.89 2c-1.09.88-2.82.24-4 .95s-1.48 2.13-2.65 2.49-2.25-.59-3-1.51c-1.07-1.29-2-3-1.44-4.56.4-1.05 1.45-1.86 1.45-3a4.09 4.09 0 0 0-.3-1.11Zm10.61-2.7-1.58-1a1.26 1.26 0 0 1-.4-.36.75.75 0 0 1 .44-1 1.2 1.2 0 0 1 1.15.29 3.53 3.53 0 0 1 .73 1l-.39-.46a1.43 1.43 0 0 1 .05 1.53Zm2.05 3.95c-.09.33-.48.59-.77.42a.81.81 0 0 1-.3-.46l-.51-1.34a.79.79 0 0 1-.06-.45.44.44 0 0 1 .5-.24.82.82 0 0 1 .49.33 3.67 3.67 0 0 1 .61 1.59l-.11-.83a1.62 1.62 0 0 1 .15.98ZM69.53 435a.59.59 0 0 1 .61-1 .59.59 0 0 1-.61 1Zm1.99-3.46a.76.76 0 0 1-.78 1.31.76.76 0 0 1 .78-1.31Zm.48 6.35a3.43 3.43 0 0 1 .34-4.23c.69-.69 1.81-1 2.47-.12a2.75 2.75 0 0 1-.19 2.93c-.4.75-.2 1.09 0 1.85a2.55 2.55 0 0 1 0 1.37 1.24 1.24 0 0 1-1.94.72c-.62-.52-.68-1.62-.68-2.52Zm-4.82 4.45a3.72 3.72 0 0 1 1.7.61l.18.12a1.32 1.32 0 0 1 .61 1.63 1.08 1.08 0 0 1-1.51.36 2.26 2.26 0 0 1-.57-.62 3.52 3.52 0 0 0-.8-.74c-.55-.36-.39-1.46.39-1.36Zm3.29.77a.64.64 0 0 1-.2-.38.51.51 0 0 1 .75-.56.6.6 0 0 1 .29.73.51.51 0 0 1-.84.21ZM83.14 441c-1-.34-1.13-1.49-1.24-2.41s-.37-2 .46-2.64a1.7 1.7 0 0 1 2.42.54 3.55 3.55 0 0 1 .43 2.77 1.35 1.35 0 0 1-.2.44 2.5 2.5 0 0 1-.07.26 1.48 1.48 0 0 1-1.8 1.04Zm-.31 2.46a.69.69 0 0 1 0-.25.83.83 0 0 1 .21-.82.68.68 0 0 1 1 0 1 1 0 0 1 0 1.43.72.72 0 0 1-1.21-.36Zm-2.09.17c-.76-.09-1-.78-1.27-1.41a10.91 10.91 0 0 1-.74-2 1.47 1.47 0 0 1 .5-1.56 1 1 0 0 1 1.4.33 5.12 5.12 0 0 1 .48 1.9 2.68 2.68 0 0 0 .07.27c.82.67 1.06 2.64-.44 2.47Zm21.01-4.81a4.35 4.35 0 0 1-2.39-2 5.21 5.21 0 0 1-.24-4.38 2.14 2.14 0 0 1 .17-1 21.91 21.91 0 0 1 2.46 7.38Zm-8.53 13.25h-.12a2.54 2.54 0 0 1-2 .92.58.58 0 0 1-.88 0 1.3 1.3 0 0 1-.35-1 1.59 1.59 0 0 1 .08-1.13c.31-.67.88-.89 1.46-1.29a7.19 7.19 0 0 0 .7-.85 2.68 2.68 0 0 1 .36-.52 1.33 1.33 0 0 1 1.79.2 1.56 1.56 0 0 1 .16.2c.3.08.38.46.39.79a8.22 8.22 0 0 1 .21.82l-.21-.55a3.83 3.83 0 0 1-.28 1.54 1.4 1.4 0 0 1-1.31.87Zm-6.85-21.16a.87.87 0 0 1 .66 1.38 1.89 1.89 0 0 1-.66.53l-.19.12-.06.13a1.61 1.61 0 0 1-.43.64c-.46.38-1.36.14-1.29-.57a1.72 1.72 0 0 1 .51-1.11.43.43 0 0 1 0-.07 1.52 1.52 0 0 1 1.46-1.05Zm1.94 26.17c.24-1.1 1.52-1.13 2.33-1.58s1-1.8 2.12-1.87a1.16 1.16 0 0 1 1.15 1.45 3.84 3.84 0 0 1-1.27 2.16 3.06 3.06 0 0 1-3.15 1.54 1.53 1.53 0 0 1-1.18-1.7Zm7.13-5.49a.62.62 0 0 1 1.12.17 2.89 2.89 0 0 1 0 1.37c-.13.42-.48.94-1 .93h-.1a1 1 0 0 1-.72 0 1.09 1.09 0 0 1-.55-1.43 1.12 1.12 0 0 1 .56-.61c.25-.18.53-.18.69-.43Zm.28-2.15A.49.49 0 0 1 96 449a.41.41 0 0 1 .49.07.52.52 0 0 1 .13.53.45.45 0 0 1-.88-.13Zm2.14 4.69c.8-1.53.55-2.7.26-4.31a4.21 4.21 0 0 1 .14-2.58c.63-1.38 2.09-1.92 3.52-2.2a22 22 0 0 1-2.93 8.27c-.32.54-.67 1.05-1 1.55a.93.93 0 0 1 .01-.73Zm2.14-9.88a.89.89 0 0 1-1.17-.34 1.06 1.06 0 0 1-.17-.26.84.84 0 0 1 .37-1 1.75 1.75 0 0 1 .56-.25 5.48 5.48 0 0 1 2.43-.62c0 .71 0 1.43-.07 2.15a4.92 4.92 0 0 0-1.95.32Zm.17-4.57a.48.48 0 0 1 .85 0c0 .07.06.13.08.19v.05a.62.62 0 0 1 0 .48.75.75 0 0 1-.16.4.49.49 0 0 1-.13.12.27.27 0 0 1-.07.08.43.43 0 0 1-.6 0 1 1 0 0 1-.31-.84.71.71 0 0 1 .34-.48Zm-2.41 6.78a.86.86 0 0 1-.53.31c-.35.68-1.2 1.26-1.79.63a.79.79 0 0 1 .2-1.16 6.11 6.11 0 0 1 1.48-.65.55.55 0 0 1 .64.87Zm-34.34-11.3a1.21 1.21 0 0 1 1.24-.5 2.67 2.67 0 0 0 1.4-.21.62.62 0 0 1 .83.85 2.06 2.06 0 0 1-1.44 1 1.73 1.73 0 0 1-1.45-.2 1.29 1.29 0 0 1-.35-.18.56.56 0 0 1-.23-.76Zm-.99-4.9a2.78 2.78 0 0 1-1.41.82l.22-.39a21.58 21.58 0 0 1 2.19-3v.07a2.86 2.86 0 0 1-1 2.5Zm6.02 23.66c-.14-.79.7-1.34 1.35-1.52 1-.27 1.85 0 2.73-.6a3.81 3.81 0 0 1 2.29-1 1.43 1.43 0 0 1 1.32 1.11 1.75 1.75 0 0 1-.52 1.53 2.82 2.82 0 0 1-1 1.41 3.52 3.52 0 0 1-3.55.4c-1.07.17-2.42-.19-2.62-1.33Z" style="opacity:.30000000000000004"/><path d="M71.38 451.28a.84.84 0 0 1-.07-1 1 1 0 0 1 1.11-.45.61.61 0 0 1 .5.2c.51.54 0 1.32-.65 1.44a1 1 0 0 1-.89-.19Zm4.94 3.83a.53.53 0 0 1-.39-.41 1.39 1.39 0 0 1 .38-1.21.58.58 0 0 1 1 .28.76.76 0 0 1 .15.87 1 1 0 0 1-1.14.47Z" style="opacity:.30000000000000004"/><path d="M73.68 421.09a21.95 21.95 0 0 0 18.44 39.33 21.95 21.95 0 1 1-18.44-39.33Z" style="mix-blend-mode:multiply;opacity:.2"/><path d="M107.48 435.65a2.2 2.2 0 1 1-.15.06m-4.27-5.22a1.32 1.32 0 1 1-.08 0M393.49 57.9l11 6.53a.5.5 0 0 0 .5-.87L394 57a.5.5 0 0 0-.51.87Zm-1.41 2.37 11 6.53a.5.5 0 0 0 .5-.87l-11-6.53a.5.5 0 0 0-.51.87Z" style="fill:#b9b9b9"/><path style="fill:#818181" d="m380.74 43.79-7.01 11.8 17.58 10.45 6.84-11.51.16-.31-17.57-10.43z"/><path transform="rotate(-59.26 386.05 54.9)" style="fill:#fff" d="M380.13 45.69h11.77v18.44h-11.77z"/><path transform="rotate(30.21 382.97 53.14)" style="fill:#818181" d="M382.56 46.73h.86v12.84h-.86z"/><path transform="rotate(-59.79 386 54.9)" style="fill:#818181" d="M385.58 45.26h.86v19.29h-.86z"/><path transform="rotate(30.2 388.65 56.44)" style="fill:#818181" d="M388.2 50.01h.86v12.84h-.86z"/><path d="m418 74.24-11-6.53a.51.51 0 0 0-.51.88l11 6.52a.5.5 0 0 0 .51-.87Zm1.41-2.37-11-6.53a.51.51 0 0 0-.51.88l11 6.52a.5.5 0 0 0 .5-.87Zm-15.02 19.37-1.77-10.77-9.75-6.03-10.16 3.81 21.68 12.99z" style="fill:#818181"/><path transform="rotate(-60.59 393.26 85.5)" style="fill:#818181" d="M388.69 85.05h9.1v.94h-9.1z"/><path d="M390.18 88a2.06 2.06 0 1 1-1.49 2.51 2.06 2.06 0 0 1 1.49-2.51Zm12.44-7.53.88-1.5 3.56-.9 9.68-16.29-.74-2.92.7-1.17-10.63-6.3-.8 1.35-2.84.72-9.55 16.4.82 3.29-.8 1.3 9.72 6.02zm28.13 7.89 7.01-11.81-17.58-10.44-6.83 11.5-.16.32 17.56 10.43z" style="fill:#818181"/><path transform="rotate(-59.26 425.51 77.23)" style="fill:#fff" d="M419.6 68.02h11.77v18.44H419.6z"/><path transform="rotate(-149.79 428.5 79.01)" style="fill:#818181" d="M428.07 72.58h.86v12.84h-.86z"/><path transform="rotate(120.21 425.48 77.23)" style="fill:#818181" d="M425.05 67.59h.86v19.29h-.86z"/><path transform="rotate(-149.8 422.86 75.71)" style="fill:#818181" d="M422.43 69.29h.86v12.84h-.86z"/><path d="M393 69.67a81.08 81.08 0 0 1 7.2 4 80.59 80.59 0 0 1 7 4.31A80.18 80.18 0 0 1 400 74a79.92 79.92 0 0 1-7-4.33Z" style="fill:#263238"/><path d="M407.06 78.07a8.78 8.78 0 0 1 .63-1.24l1.85-3.29c1.58-2.78 3.79-6.59 6.25-10.79l.62-1.06.08.29c-4-2.31-7.5-4.4-10-5.92l-3-1.81a7.38 7.38 0 0 1-1.06-.71 7.41 7.41 0 0 1 1.14.58l3.05 1.69c2.57 1.46 6.13 3.5 10.1 5.81l.18.1-.11.18-.62 1.06c-2.46 4.2-4.7 8-6.35 10.73l-2 3.22a8.44 8.44 0 0 1-.76 1.16Zm-1.72-25.45a46.27 46.27 0 0 1 5.44 2.92 45.61 45.61 0 0 1 5.22 3.29 46.27 46.27 0 0 1-5.44-2.92 45.61 45.61 0 0 1-5.22-3.29ZM393.7 73.15a39.25 39.25 0 0 1 5.08 2.71 39.23 39.23 0 0 1 4.87 3.08 39.25 39.25 0 0 1-5.08-2.71 39.23 39.23 0 0 1-4.87-3.08Zm-.96 1.33a40.33 40.33 0 0 1 5.07 2.71 38.61 38.61 0 0 1 4.86 3.08 42 42 0 0 1-5.07-2.71 39.09 39.09 0 0 1-4.86-3.08ZM389.17 53a31 31 0 0 1-4.95 1.49 32 32 0 0 1-5.05 1.08 31.39 31.39 0 0 1 4.95-1.49 32 32 0 0 1 5.05-1.08Zm2.49 1.92a9.78 9.78 0 0 1-2.69 1 9.88 9.88 0 0 1-2.82.57 10.1 10.1 0 0 1 2.7-1 9.45 9.45 0 0 1 2.81-.57ZM431 75.51a48.16 48.16 0 0 1-6.39 1 51.68 51.68 0 0 1-6.46.61 48.51 48.51 0 0 1 6.4-1 51.76 51.76 0 0 1 6.45-.61Zm1.87 1.49a21.68 21.68 0 0 1-3.32.6 23.76 23.76 0 0 1-3.34.51 9.78 9.78 0 0 1 3.27-.92 10.18 10.18 0 0 1 3.39-.19Z" style="fill:#263238"/><path d="M46.22 130.18a52.13 52.13 0 1 0 58.05-45.44 52.13 52.13 0 0 0-58.05 45.44Z" style="fill:#f5f5f5"/><path d="M86.19 152.84A11.34 11.34 0 1 0 98.82 143a11.34 11.34 0 0 0-12.63 9.84Z" style="fill:#e0e0e0"/><path d="M85 152.8a11 11 0 0 0 9.48 12.55c6.2.76 11.51-4.13 12.27-10.33a10.59 10.59 0 0 0-9.54-12.08A11 11 0 0 0 85 152.8Z" style="fill:#ebebeb"/><path d="M87.48 85.42A52.16 52.16 0 0 0 60 116.29a6.5 6.5 0 0 1 1.72 4.81c-.31 2.19-2.75 2.82-3.61 3-.13.75-.26 1.5-.35 2.27a51.59 51.59 0 0 0-.11 11.51c.15.12 4.44 3.33 4.69 6.33a10 10 0 0 1-1.92 6c.31.88.64 1.76 1 2.62a52.41 52.41 0 0 0 13 18.35c.51-.22 3.6-1.46 6.36 0 3 1.53 2 5.94 2 5.94l-.37.11a52.06 52.06 0 0 0 37.59 6.48 52.13 52.13 0 1 1-32.52-98.29Z" style="fill:#e0e0e0"/><path d="M59.64 126.74a1.25 1.25 0 1 0 2.49.3 1.25 1.25 0 1 0-2.49-.3ZM117 159.71a17.64 17.64 0 0 1 3.18-6.49c.91-1.28 2.2-2.63 3.75-2.43l1.33.22a5.05 5.05 0 0 1 5.49 1.33 6.22 6.22 0 0 1 1.21 5.25 12 12 0 0 1-2.48 4.94 22.62 22.62 0 0 1-4.49 4.36 5.88 5.88 0 0 1-3.17 1.36 4.4 4.4 0 0 1-3.35-1.67 8.1 8.1 0 0 1-1.47-6.87Z" style="fill:#e0e0e0"/><path d="M115.81 159.56a17.64 17.64 0 0 1 3.18-6.49 5.83 5.83 0 0 1 3.75-2.43l2.05-.33c2 .07 3.44.37 4.77 1.88a6.22 6.22 0 0 1 1.21 5.25 12 12 0 0 1-2.48 4.94 22.89 22.89 0 0 1-4.49 4.36 5.13 5.13 0 0 1-3 1.16c-1.28 0-2.14-.84-3-1.81a7.69 7.69 0 0 1-1.99-6.53Z" style="fill:#ebebeb"/><path d="M101.25 178.13a15.6 15.6 0 0 1-5.58-.69c-1.15-.32-2.44-.86-2.59-1.88l-.1-.89a2.93 2.93 0 0 1-.08-3.75 5.47 5.47 0 0 1 3.76-1.83 10.68 10.68 0 0 1 4.26.56 17.7 17.7 0 0 1 4.22 2 3.81 3.81 0 0 1 1.66 1.74 2.64 2.64 0 0 1-.61 2.46 7.16 7.16 0 0 1-4.94 2.28Z" style="fill:#e0e0e0"/><path d="M100.15 178.4a15.64 15.64 0 0 1-5.58-.7 4.1 4.1 0 0 1-2.57-1.88l-.66-1.23a3.38 3.38 0 0 1 .49-3.4 5.48 5.48 0 0 1 3.76-1.84 10.73 10.73 0 0 1 4.26.57 17.81 17.81 0 0 1 4.21 2 3.17 3.17 0 0 1 1.47 1.65c.29.81-.21 1.53-.78 2.26a6.63 6.63 0 0 1-4.6 2.57Z" style="fill:#ebebeb"/><path d="M73.77 104a17.41 17.41 0 0 1 5.93-4.1c1.41-.67 3.19-1.23 4.45-.3l1.06.84a5 5 0 0 1 4.15 3.82 6.25 6.25 0 0 1-1.49 5.18 12.06 12.06 0 0 1-4.57 3.12 22.66 22.66 0 0 1-6 1.62 5.81 5.81 0 0 1-3.43-.35 4.41 4.41 0 0 1-2.11-3.08 8.07 8.07 0 0 1 2.01-6.75Z" style="fill:#e0e0e0"/><path d="M71.82 104.58a17.75 17.75 0 0 1 5.93-4.13 5.85 5.85 0 0 1 4.46-.3l2 .71c1.74 1 2.83 2 3.25 4a6.17 6.17 0 0 1-1.54 5.14 12 12 0 0 1-4.57 3.12 22.71 22.71 0 0 1-6 1.63 5.08 5.08 0 0 1-3.17-.44c-1.14-.59-1.47-1.77-1.73-3a7.66 7.66 0 0 1 1.37-6.73Z" style="fill:#ebebeb"/><path d="M123.18 141.85a2.62 2.62 0 0 1 1-1.41 3.46 3.46 0 0 1 2.36-.28 2.53 2.53 0 0 1 1.65 1.31 3.61 3.61 0 0 1 .58 2.72 2.9 2.9 0 0 1-1.77 2.11 3 3 0 0 1-3.29-1 3.76 3.76 0 0 1-.53-3.45Z" style="fill:#e0e0e0"/><path d="M122.65 141.87a2.34 2.34 0 0 1 .9-1.29 3.15 3.15 0 0 1 2.17-.26 2.33 2.33 0 0 1 1.52 1.21 3.29 3.29 0 0 1 .53 2.49 2.7 2.7 0 0 1-1.59 1.95 2.76 2.76 0 0 1-3-.9 3.48 3.48 0 0 1-.53-3.2Z" style="fill:#ebebeb"/><path d="M128 110.57a2.16 2.16 0 0 1 .79-1.14 2.8 2.8 0 0 1 1.9-.22 2 2 0 0 1 1.32 1.05 2.88 2.88 0 0 1 .47 2.18 2.32 2.32 0 0 1-1.39 1.7 2.4 2.4 0 0 1-2.65-.78 3.05 3.05 0 0 1-.44-2.79Z" style="fill:#e0e0e0"/><path d="M127.54 110.58a2 2 0 0 1 .73-1 2.58 2.58 0 0 1 1.74-.2 1.86 1.86 0 0 1 1.22 1 2.63 2.63 0 0 1 .43 2 2.12 2.12 0 0 1-1.28 1.56 2.2 2.2 0 0 1-2.43-.71 2.8 2.8 0 0 1-.41-2.65Z" style="fill:#ebebeb"/><path d="M100.24 94.85a2.79 2.79 0 0 1 1-1.48 3.71 3.71 0 0 1 2.49-.3 2.7 2.7 0 0 1 1.74 1.39 3.76 3.76 0 0 1 .61 2.86 3 3 0 0 1-1.83 2.22 3.12 3.12 0 0 1-3.46-1 4 4 0 0 1-.55-3.69Z" style="fill:#e0e0e0"/><path d="M99.68 94.88a2.52 2.52 0 0 1 .95-1.36 3.38 3.38 0 0 1 2.29-.28 2.46 2.46 0 0 1 1.59 1.27 3.47 3.47 0 0 1 .57 2.63 2.83 2.83 0 0 1-1.68 2 2.9 2.9 0 0 1-3.19-.94 3.65 3.65 0 0 1-.53-3.32Z" style="fill:#ebebeb"/><path d="M110.44 96.67a1.4 1.4 0 0 1 .52-.74 1.88 1.88 0 0 1 1.24-.15 1.37 1.37 0 0 1 .87.69 1.92 1.92 0 0 1 .31 1.43 1.55 1.55 0 0 1-.91 1.12 1.59 1.59 0 0 1-1.74-.51 2 2 0 0 1-.29-1.84Z" style="fill:#e0e0e0"/><path d="M110.16 96.69a1.3 1.3 0 0 1 .48-.69 1.7 1.7 0 0 1 1.14-.13 1.24 1.24 0 0 1 .8.63 1.72 1.72 0 0 1 .28 1.32 1.4 1.4 0 0 1-.84 1 1.45 1.45 0 0 1-1.59-.47 1.83 1.83 0 0 1-.27-1.66Z" style="fill:#ebebeb"/><path d="M46.22 130.18s0-.28.12-.84.22-1.38.4-2.45l.3-1.8c.14-.66.36-1.37.56-2.14s.44-1.6.69-2.48a7.92 7.92 0 0 1 .45-1.35l.54-1.41a49.52 49.52 0 0 1 7.36-13.15 51.82 51.82 0 0 1 14.94-13.18L74 90c.85-.42 1.74-.8 2.62-1.21s1.76-.86 2.71-1.16l2.85-1 1.45-.48 1.5-.36 3.06-.71c1-.21 2.09-.3 3.16-.46a26.37 26.37 0 0 1 3.23-.33 47.78 47.78 0 0 1 6.66 0c1.12.1 2.27.12 3.4.28l3.42.58c.57.11 1.16.18 1.72.33l1.71.47c1.13.33 2.29.61 3.42 1a54.31 54.31 0 0 1 6.69 2.87l1.65.84c.28.14.56.27.83.42l.78.51 3.17 2c1 .73 2 1.55 3 2.33.49.4 1 .76 1.48 1.21l1.4 1.33a57.61 57.61 0 0 1 5.29 5.72l2.29 3.23.58.82.5.86 1 1.74 1 1.74.84 1.84.84 1.85.42.93c.12.31.22.64.33 1l1.32 3.88.94 4a55.35 55.35 0 0 1 .69 16.73 56.09 56.09 0 0 1-4.68 16.09l-1.88 3.68-2.2 3.43-.55.85-.63.8-1.26 1.6-1.26 1.58-1.39 1.46-1.38 1.44-.7.72-.75.65-3 2.59a58.12 58.12 0 0 1-6.52 4.29l-1.67 1c-.55.32-1.16.54-1.73.81-1.17.52-2.3 1.08-3.47 1.54l-3.56 1.21-.89.3c-.29.08-.6.14-.9.21l-1.8.42a54.53 54.53 0 0 1-7.18 1.18c-1.2.1-2.39.09-3.57.14l-1.77.05c-.58 0-1.17-.07-1.75-.1l-3.46-.26c-1.14-.12-2.25-.37-3.37-.55a47 47 0 0 1-6.47-1.58 24.74 24.74 0 0 1-3.06-1.1c-1-.41-2-.75-3-1.2l-2.79-1.43-1.37-.7-1.29-.82-2.53-1.63c-.85-.52-1.58-1.2-2.35-1.78s-1.53-1.19-2.26-1.81l-2-1.95a51.8 51.8 0 0 1-11.34-16.38 49.58 49.58 0 0 1-4-14.53l-.19-1.5a9.84 9.84 0 0 1-.12-1.42c0-.91 0-1.77-.06-2.57s-.06-1.54 0-2.21l.14-1.83.21-2.47.08-.84v.85c0 .56-.09 1.39-.15 2.47 0 .54-.07 1.15-.12 1.82s0 1.41.06 2.2.06 1.66.09 2.57a8.6 8.6 0 0 0 .13 1.41l.2 1.5a49.56 49.56 0 0 0 4.05 14.43 51.79 51.79 0 0 0 11.32 16.24l2 1.93c.72.61 1.49 1.18 2.24 1.78s1.5 1.25 2.34 1.76l2.52 1.61 1.28.81 1.37.7 2.77 1.41c.94.45 2 .78 2.94 1.18a26 26 0 0 0 3 1.09 47.72 47.72 0 0 0 6.42 1.55c1.11.17 2.21.42 3.34.54l3.44.24c.57 0 1.15.1 1.73.1l1.75-.06c1.17-.05 2.35 0 3.54-.14a55.15 55.15 0 0 0 7.11-1.17l1.79-.42.89-.22.87-.3 3.53-1.2c1.16-.45 2.28-1 3.44-1.52.57-.27 1.17-.49 1.71-.81l1.66-.95a59.37 59.37 0 0 0 6.45-4.26l3-2.56.74-.65.69-.71 1.37-1.43 1.38-1.44 1.24-1.57 1.25-1.58.62-.79.55-.85 2.19-3.42 1.86-3.65a51.31 51.31 0 0 0 4-32.49l-.94-4-1.3-3.84c-.11-.32-.21-.64-.33-.95l-.42-.92-.83-1.83-.83-1.82-1-1.73-1-1.72-.5-.86-.57-.8-2.27-3.21a58.84 58.84 0 0 0-5.23-5.67l-1.38-1.32c-.46-.44-1-.8-1.47-1.2-1-.77-2-1.58-3-2.31l-3.13-2-.78-.5c-.26-.15-.54-.28-.81-.42l-1.63-.84a57.3 57.3 0 0 0-6.63-2.85c-1.12-.38-2.27-.65-3.39-1l-1.69-.47c-.56-.15-1.14-.22-1.71-.33L104.6 85c-1.12-.15-2.25-.18-3.37-.28a48.65 48.65 0 0 0-6.61 0 26.27 26.27 0 0 0-3.2.32c-1.06.16-2.11.24-3.14.45l-3 .7-1.49.35-1.47.46-2.83 1c-.94.29-1.8.77-2.69 1.14s-1.76.78-2.61 1.2l-2.43 1.36a51.91 51.91 0 0 0-14.89 13 50 50 0 0 0-7.4 13l-.55 1.4a8.85 8.85 0 0 0-.46 1.34l-.71 2.47c-.22.76-.43 1.47-.58 2.12l-.33 1.8a166.85 166.85 0 0 1-.62 3.35Z" style="fill:#263238"/><path d="M100 98.57s-.23-.21-.49-.71a4.29 4.29 0 0 1-.51-2.31 2.73 2.73 0 0 1 .7-1.55 3.79 3.79 0 0 1 1.61-1.06 3.55 3.55 0 0 1 4.06 1.14 4.26 4.26 0 0 1 .86 2.12 3.76 3.76 0 0 1-.28 2.13 3 3 0 0 1-1.44 1.32 3.54 3.54 0 0 1-1.64.33 4 4 0 0 1-2.23-.8 2.09 2.09 0 0 1-.61-.61s.26.17.73.44a4.21 4.21 0 0 0 2.12.6 3.15 3.15 0 0 0 1.45-.35 2.52 2.52 0 0 0 1.19-1.14 3.34 3.34 0 0 0 .2-1.85 3.71 3.71 0 0 0-.76-1.86 3.11 3.11 0 0 0-3.49-1 3.65 3.65 0 0 0-1.45.9 2.43 2.43 0 0 0-.63 1.31 4.51 4.51 0 0 0 .34 2.18 4.17 4.17 0 0 1 .27.77Zm26.93 41.85s.3.07.72.4a3.69 3.69 0 0 1 1.25 1.91 3.51 3.51 0 0 1-.82 3.28 3.15 3.15 0 0 1-4 .45 5 5 0 0 1-1.42-1.67 5.5 5.5 0 0 1-.75-1.89 2.47 2.47 0 0 1 .42-1.84 2.9 2.9 0 0 1 1.29-1 3.53 3.53 0 0 1 2.28-.08c.52.15.77.31.75.34a4.81 4.81 0 0 1-.8-.15 3.74 3.74 0 0 0-2.09.22 2.29 2.29 0 0 0-1.38 2.44 5.5 5.5 0 0 0 .72 1.7 4.62 4.62 0 0 0 1.27 1.5 2.69 2.69 0 0 0 3.39-.36 3.16 3.16 0 0 0 .8-2.85 3.86 3.86 0 0 0-1-1.85c-.4-.36-.66-.51-.63-.55Z" style="fill:#263238"/><circle cx="249.3" cy="255.95" r="132" transform="rotate(-45 249.3 255.96)" style="fill:#d9e7ff;stroke:#333;stroke-width:.5px"/><g style="opacity:.4"><path d="M234.3 126.21a.46.46 0 0 0-.2 0 7.54 7.54 0 0 0-.88.09l-1 .38s-.11 0-.09.07.29.27 1.59-.09c.69-.22.68-.39.58-.45Zm-2.05-1.08a3.8 3.8 0 0 0 .59-.17s-.05 0-.08 0l-.76.04c-.1 0-.2.08-.18.11a.82.82 0 0 0 .43.02Zm4.13-.47a2.5 2.5 0 0 0 .67 0 8.56 8.56 0 0 0 .86-.1s.6-.09.7-.12 0 0-.12 0a33.88 33.88 0 0 0-4.1.32h1.07a4.74 4.74 0 0 1 .92-.1Zm-2.38.43a4 4 0 0 1 .87-.08c.27 0 .64 0 .85-.07h.12-.16a14.26 14.26 0 0 0-4.54.58 19.34 19.34 0 0 0 2.83-.26.33.33 0 0 1 .03-.17Zm2.14.53.15-.05c.09 0 .17-.09.26-.13l.48-.18c.09-.05.1-.06.1-.07s0 0-.06 0a4.82 4.82 0 0 0-1.42.31c.06.06.06.06-.21.25l.7-.13Zm-6.36 1.94a.3.3 0 0 0-.13 0h-.4a6.48 6.48 0 0 0-1.32.34 6.28 6.28 0 0 0 1.6-.15c.17-.06.34-.14.25-.19ZM230 130c0-.05-.07-.11-.35-.16h-.16l-1.41-.2a8.65 8.65 0 0 0-3 .4c.13.1.31.08.41.22s.07.29 0 .35a12.35 12.35 0 0 1-1.95.6h-.25c0-.37.49-.34.6-.63a3.82 3.82 0 0 0-1.74.41s-.06.07-.06.11v.82a1.13 1.13 0 0 1 0 .32c-.07.19-.25.32-.29.53v.11c.2.46 3.74-.23 4.82-.75.24-.12 1.11-1 .77-1.07a6.19 6.19 0 0 0-1.14-.09c.85-.22 1.73-.27 2.58-.49A7.5 7.5 0 0 1 230 130Zm-8.41-3.12c1.47-.13 2.87-.65 4.33-.83a13 13 0 0 0-1.62.4l5.13-.93a1.19 1.19 0 0 0 .44-.17.32.32 0 0 0-.17 0 82 82 0 0 0-9.92 1.82c.67.14 1.26-.24 1.9-.31Zm-3.16 9.02h-.06a1 1 0 0 0-.35.07 18.46 18.46 0 0 1-2.06.83c-1.22.26-1.59.34-1.69.48a1.38 1.38 0 0 0 .41.09c.41.05.46.07.52.15s0 .34.15.46a2.39 2.39 0 0 0 .62.16 5.32 5.32 0 0 0 2.83-.18c.28-.17.11-1.23.11-1.24a1.48 1.48 0 0 0-.48-.82Zm5.01-6.46a1 1 0 0 0-.32-.07 3.86 3.86 0 0 0-2 .34c.09 0 .2 0 .28.09s0 .08-.16.24-.34.35-.13.36a8.46 8.46 0 0 0 1.69-.53c.64-.22.82-.36.64-.43Zm91.07 27.04c-.45-1.37-1.5-2.44-1.91-3.82a13.14 13.14 0 0 1 0-2.66c-.1-1 .17-1.21.85-1.54.93-.46.56-.91-.57-2.25-3.69-4.38-3.7-4.46-3.88-5.21l.14-.17h.27c-.89-1.81-4-1.73-3.79-4.48l-.38-.39.23-.36h.21c-.58-.3-2.3-1-2.32-1a15.49 15.49 0 0 0-3-.79c-1.08-.18-1.71-1.15-2.68-1.52a120.8 120.8 0 0 0-5.6-2c-2.27-.66-2.27-.66-2.58-.57a20.67 20.67 0 0 0-3.7-.91s-.05 0-.08 0h.07a9.59 9.59 0 0 1 1.77.85c-.13 0-.13 0-1.69-.61a13 13 0 0 0-1.68-.51 37.72 37.72 0 0 0-10.65-1c.17.18.17.18 1 .46-.89.55-2.67.41-3.62.34a46.39 46.39 0 0 0-5.19-.08c-1.79 1.21 1.08 2.81 1.12 2.82 7.79 2.11 7.86 2.22 8.23 2.88 0 0 2.18 5.21.28 6.94-.76.7-.77.73-.79.86-.08.49.46.72.48 1.16 0 .68-.45 1.27-.32 2 1.08.12 2.25-.64 3.26.31 1.72 1.62.2 2.93.18 2.94-1.18.7-2.69.12-3.83 1a5.15 5.15 0 0 0-1.66 3.11c0 .51 2.38 12.64 4.89 14.6 6.63 3.86 6.84 3.75 7.47 3.39 1-.57 4.61-6.62 4.65-6.68.52-.89.37-2.08 1.24-2.81.46-.38.49-.38 2.46-.29 6.2.27 6.2.27 6.71-.74s.83-1.62 2-1.78c2.88-.38 5.75.43 8.63 0a24.64 24.64 0 0 0 3.54-.44s.55-.12.24-1.05Zm-73.65-12.91c.56-.67.56-1.06 0-1.17 0 0-1.79-.14-2.34.48-.31.35 0 1.67.19 1.93.5.65 2.14-1.22 2.15-1.24Zm19.56-18.85h-1.24c1.26.14 5.37.43 6 .47a66.71 66.71 0 0 1-7.31-.38 1.76 1.76 0 0 0-1 .07 2.44 2.44 0 0 1-1 1c-1-.73-4.51-.07-4.66 0 .22.2.54.26.73.5l-.08.11a6.65 6.65 0 0 0 1.94.1c-2.55.41-2.7 0-2.8-.2-1.64-.53-1.95.06-2.09.34-1.14.28-2.36-.08-3.46.44v.15a10 10 0 0 0 2.25.44c1.34.19 2.75-.31 4 .48-.19.2-.19.2-.55.32.85.5 4.27.11 4.26-.7l-.3-.2a11.41 11.41 0 0 1 3.16-.73c2.83.29 4.09-.37 4.19-.58l-.12-.09c2.64.22 3.84.31 4.77.08a2.13 2.13 0 0 0-.64-.16l6.38.24a21.86 21.86 0 0 1-2.11-.46c1.48.11 2.94.39 4.42.53-1.32-.46-3.6-1-3.61-1s-5.63-1-6.91-.92a.61.61 0 0 0 .15.24 1.93 1.93 0 0 1-1-.28c-.37-.18-5.26-.67-5.93-.27.37.24.42.28 2.56.46Z"/><path d="M236.1 126.39a4.82 4.82 0 0 1-.44.35 3.36 3.36 0 0 1-1 .38l.35-.39a.6.6 0 0 0 .14-.2 1.51 1.51 0 0 0-1.16.18h.16a11.27 11.27 0 0 1-2.15.29c.08.08.21 0 .29.1-.13.13-.13.13-.14.16s.1.07 2 .11a8.33 8.33 0 0 0-2.65.73s2.23 0 2.53-.08a8.47 8.47 0 0 0 1.66-.61s0 .07-.07.17a25.78 25.78 0 0 1 2.41-1c.37-.13.4-.14.47-.2a.26.26 0 0 0-.2-.07s-1.93-.1-2.14-.06ZM250.25 147c.84.22 1.84 3.1 1.85 3.13.23.7.47 1.43.9 1.5 1.19.18 4.36-3.51 4.39-3.54a1.49 1.49 0 0 0 .23-.43l-7.53-4.73a11.58 11.58 0 0 1 2.85-.37c1-.08 1.49-.12 1.54-.35.14-.61-1.78-4.34-3.09-5.06-.59-.32-1.31-.36-1.8-.86s-.09-1.54-.94-1.92a13.91 13.91 0 0 0-4.15-.27c-1.44 0-1.45 0-1.65-.05a7 7 0 0 1 .55-2.37 8.48 8.48 0 0 0-2.67-.76c-2.67-.28-12.16 3.29-11.11 4.71s6.08 2.11 6.82 2c.05-.43.08-.71 2.21-.22 1.81.43 2.21.1 2.48-.13a15 15 0 0 1 1.13 1.75c.38.85.32 1.81.65 2.68.41 1.09 2.06 1.57 1.54 3.12 0 0-1.59 3.38-6.94 3.13-1.59-.08-3.14-.71-4.77-.46a1.34 1.34 0 0 0-1 1.34c.19.33 1 .74 3.85.77 2.17 0 2.17 0 5.1 2.76-.39.19-.39.19-2 .23.52.94 6 4.24 7.44 4 0-.2 0-.2-.24-.46a27 27 0 0 1-1.9-3.5 7.19 7.19 0 0 1 3.42 2.63c.17.23.29.4.42.41.73 0 2.7-2.07 2.36-2.8-.72-1.6-2.92-2.19-2.92-4.28.06-1.69 2.96-1.6 2.98-1.6Zm-22.63-21a2.46 2.46 0 0 0 1-.08 1.86 1.86 0 0 0 .28-.09h-.07a5.36 5.36 0 0 0-1.21.17Zm42.64 22.45 1.33.19a.91.91 0 0 0 .55-.24.35.35 0 0 0 .05-.35c0-.22-.25-.36-.32-.57a.39.39 0 0 1 0-.29.06.06 0 0 0 0-.06 1.05 1.05 0 0 0-.58-.27c-.61-.07-2.53.3-1.84 1.14a1.35 1.35 0 0 0 .81.45Z"/><path d="M248.27 133.56a6 6 0 0 0-3-1.62c-1.2-.21-1.11.67-.92 1 .65.96 3.89.62 3.92.62Zm-6.71-8.94a8.43 8.43 0 0 0-1.24.1h.18a3.39 3.39 0 0 1 1.15.26c-.12.18-.39.08-.51.26 0 .12 1.12.07 1.2.06a5.71 5.71 0 0 0 1.9-.82c-.13-.1-.29 0-.43-.07.21-.19.51-.07.73-.22h-.1a20.09 20.09 0 0 0-2.81.17c.19.14.44.05.65.14 0 .08-.13.11-.72.12Zm-6.56 3.55c-.3.09-.4.12-.11.47a2 2 0 0 0 2 .07c.5-.2 1.58-.73 1.23-.9h-.16a18.68 18.68 0 0 0-2.96.36Zm12.78-2.1h-1.85c-.56 0-1.28-.12-1.93-.15a4 4 0 0 0-.85 0 17.09 17.09 0 0 0 2.94.47 3.74 3.74 0 0 0 1.51-.19Zm-4.52-.59c.2 0 2.19-.07 2.77-.13.26 0 .32-.06.36-.15s-.15-.11-.11-.22.06-.09.05-.15a.13.13 0 0 0-.06-.07.31.31 0 0 0-.24-.06 1.19 1.19 0 0 0-.32 0 5.42 5.42 0 0 1-1.4.49c-.63.05-.84.05-1.05.29Zm4.96-1.2a6.89 6.89 0 0 0 1.49-.22.36.36 0 0 0-.14 0h-1.8c-.42 0-.39.25-.39.25s.4.02.84-.03Zm2.85.36c.59 0 .76 0 .91.18s0 0 0 .05a4.11 4.11 0 0 1-1 0 12.89 12.89 0 0 0-2.11 0c-.39.08-.55.45-.44.56s0 0 1 .09c.39 0 .75.24 1.16.24 1 0 1.94-.32 2.92-.4.61-.05 1.22.09 1.83 0a.5.5 0 0 0 .13 0s0 0-.37-.26a1.65 1.65 0 0 1 .31 0c.85-.09.87-.12.91-.19s-.17 0-.22-.13c.17-.12.46-.07.5-.36.22-.13.49-.1.7-.25a.49.49 0 0 0-.16 0 41 41 0 0 0-5 .08 1.5 1.5 0 0 0 .52.09 3.72 3.72 0 0 1-1.33 0 3 3 0 0 0-1.74.27 7 7 0 0 0 1.48.03Zm-13.02 4.66c.08 0 9.31 2.24 12.49.73.86-.41-.68-1.06-.7-1.07a36.7 36.7 0 0 0-6.25-.29c-.84 0-1.18-.85-1-1s.23-.06.53 0c1.59.1 1-.61.88-.67a6.3 6.3 0 0 0-1.14-.12c-.44-.1-.79-.4-1.23-.51-.13 0-.57-.12-.86-.14a2.86 2.86 0 0 0-1.27.67 1.35 1.35 0 0 0 .6.07 2.94 2.94 0 0 1 1.15.12c.17.23-.86.88-.91.91a18.43 18.43 0 0 0-1.8.5c-1.05.61-.74.72-.49.8Zm-14.89-2.57a26 26 0 0 0-3.24.68c.08.03.24.07 3.24-.68ZM207 131.79v.06a.33.33 0 0 0 .17 0c.91-.24 1.75-.64 2.65-.9 1.63-.45 3.31-.71 4.93-1.2.38-.11.38-.11 1-.7a.27.27 0 0 1 0-.09 5.12 5.12 0 0 0-1.41.21c.43-.17.43-.17.57-.38v-.05h-.17c-1.85.12-1.85.12-11 3.46a5.3 5.3 0 0 0-2.32 1.41h.06c1.94-.17 3.64-1.21 5.52-1.82Zm12.3-3.25a5.15 5.15 0 0 0 1.51-.15c2.63-.46 3.92-.55 3.93-.55a21.56 21.56 0 0 0 2.41-.07c.63-.09 3.17-.79 3.19-.8.49-.14.53-.18.6-.23a1.32 1.32 0 0 0-.67-.06c-.75.14-1.46.44-2.2.58 1-.5 2.14-.79 3.17-1.31h-.09s-3 .41-3.23.74-.72.77-2.82.54v-.06l.21-.11h.07c.36-.19 1.32 0 1.1-.59-.06 0-6.14.68-6.43 1.38a21 21 0 0 0 3-.48c-.4.33-.91.3-1.36.46l.8-.08a7.06 7.06 0 0 1 1.27-.1 35.19 35.19 0 0 1-4.11.61c-.46-.03-.54.19-.35.28Z"/><path d="M200.31 136.34c.35.23.75 0 1.11.14v.08c-.32.4-.84.5-1.21.83a21.83 21.83 0 0 0 7-1.07 5.06 5.06 0 0 1 1.56-.41l.06.07c-.28.25-.28.25-.32.31a6.93 6.93 0 0 0 1.35 1c1.39 0 1.39 0 3.08-.92h.08c.01 0-.12-.07-1.49.15a3.13 3.13 0 0 1 2.63-.52c.29.12.36.12.5.08s.84-.36.92-.91c-.53-.61-.55-1.43-.05-1.73s4.29-2.63 4.32-2.92a2.27 2.27 0 0 0-.35-.26V130c-1.61.61-3 1.79-4.73 2.11.07-.65.76-.63 1.09-1l-.09-.11a12.37 12.37 0 0 1-1.93.19c.27-.21.62-.27.86-.52v-.08c-.9 0-1.73.38-2.61.4a19.33 19.33 0 0 1 2.37-.91c-.51-.12-8.35 1.76-8.47 2.58a2.18 2.18 0 0 1 .21.22c-.2.17-.21.17-1.13.36-1.54.33-1.65.46-1.71.64a.41.41 0 0 0 .23.11c.75.11 1.5-.16 2.26-.07.53.07 1 .46 1.5.53a8.57 8.57 0 0 1-3 .29c-3.74-.12-4.58 1.26-4.04 1.6Zm26.11 18.3c.2-.24-.08-.33-.32-.37a2.9 2.9 0 0 0-1.39 0 1 1 0 0 0-.51 1.11c.25.49 1.93-.38 2.22-.74Zm.18-4.89a.53.53 0 0 0 .29-.11.75.75 0 0 0 .06-.76c-.14-.27-.38-.49-.5-.77a11.21 11.21 0 0 0-.52-1.51 1.77 1.77 0 0 0-.16-.22c-.32-.39-.83-.53-1.15-.91s-.08-.61-.28-.86a.21.21 0 0 0-.12 0 14 14 0 0 0-2.36 1.41l-.78.59-2.08 1.69c.78.35.78.35.7.77s-.1.55 0 .56a3.25 3.25 0 0 0 1-.29 6.19 6.19 0 0 1 3.5-.54c.8.2 1.44.95 2.4.95Zm-3.75 2.7a9.3 9.3 0 0 0-2.69 0c-.44.15-.76.89-.61 1.1.28.4 3-.14 3.62-.62.2-.16.31-.37-.32-.48ZM175.71 252c-.78 0-.77 1.25-.4 1.54s1.9 1.16 2.13.41a2.36 2.36 0 0 0-1.73-1.95Zm148.01-79a.44.44 0 0 0 0-.15 2.74 2.74 0 0 0-.73-1.33l-.25-.19c-.68-.47-1.55-.57-2.18-1.13-.45-.39-.65-1.05-1.29-1.23-.79-.08-1.57 0-2.35-.11s-1.48-.38-2.25-.39c-.49 0-.37.65-.78.73s-.69-.45-1.14-.37h-.23c-.35.57-.05 1.48-.91 1.79a9.94 9.94 0 0 1-1.39-2.6c-.2-1.33-2.46-2.91-3.36-2.59 0 .64.73.76.9 1.28-.49.76-1.42.28-2 .72.17.25 1 .41 1.47.48.83.14 3 1.85 1.22 2.5.33.93 1.33.59 1.93 1s.54.7.33 1.31c.11.19.23.3 1.66.64a9.25 9.25 0 0 1 1.53.43c.65.28 1.16.78 1.8 1.06l.28.1a10.88 10.88 0 0 0 2.54.38c1.8.18 5-.76 5-1.34.05-.38-.17-.72-.15-1.09a1 1 0 0 1 .35.1ZM179 249.81c.39 1.2 4.81 3.13 5.07 2.63.15-.28-3.31-9-3.36-9.07a7.35 7.35 0 0 0-5.4-3 9 9 0 0 0-3.86.81c.16.31 1.66.6 3.07.35 2-.38 2.95.56 3 .89-.15.14-.47.29-.9-.2h-.07c-.22.83 1 1.64 1.82 2.18 1.49 1 1.48 1.38 1.46 2.54a3.55 3.55 0 0 0 .17 1.48 1.76 1.76 0 0 1 .19.85c-.19.59-.84.34-1.19.54Zm5.25 8.1c.38.42-.3 1.16.35 1.46 1.11.52 1.53-1.09 2.56-.83a2 2 0 0 1 .54.25 44.34 44.34 0 0 0 4.71 2.09c.15 0 .26 0 .32-.1.21-.51-.07-1.09.26-1.57 1-1.51-7.19-5.2-7.75-5.3a.44.44 0 0 0-.25 0c-.05.13-.05.13 0 .29a2.54 2.54 0 0 1-.12 2.82c-.21.08-.84-.26-1.72-.74-1.61-.87-1.79-.88-1.9-.88s0 .09 0 .11c.89 1.01 2.16 1.43 3 2.4ZM236 185c-.82 0 .55 1.4.83 1.68 1.82 1.79 3 1 3 .94.42-.5-3.02-2.48-3.83-2.62Zm-74.3-28.21.07-.06Z"/><path d="M144.63 175.5c-10.76 13.12-18.14 32-18.14 32v3.68c.3.16.3.16 1.82 13.19l-1.29-.41c.17 1.61 2.78 9.48 2.81 9.55.66-.49 1.34-1 .24-4.89-.5-1.78-1.07-3.78-.26-12.23 1.79 2.6 1.64 3.83 1.45 5.39a10.7 10.7 0 0 0-.08 3.27c.43 1.91 1.13 3.74 1.64 5.62.66 2.45 2.58 4.36 2.95 6.92.3 2.07-1 4.25.46 6.23a4.92 4.92 0 0 0 .8.78 18.9 18.9 0 0 0 1.5 1.34c1.76 1.18 3.63 2.18 5.41 3.34s4.34.78 5.9 2.57c3.57 4.11 3.57 4.11 5.08 4.83l.74.37c6.67 3.45 6.53 13.15 14.31 15.58 5.42-4.51 5.12 3.07 4.75 6.54-.12 1.09-.12 1.09-3.53 4.64 0 .06-4.57 7-4.28 8.71.05.28.1.65.17.92 1.21 4.63 8 18.49 8 18.59 1.76 3.07 5 4.76 7 7.61 1.51 2.17 2 5.57 1.44 9.56 0 .19-2.3 19.35 1.18 31.49 4.43 15.38 13.37 17 13.45 17-6.67-7-6.67-7-4.69-10.23-.71-1.61-.71-1.61-.78-8.25.37 0 .37 0 1.89.6 0-.16 0-.16-.91-3.39 1.87-.77 1.88-.77 2.13-1.82l.39-.13c2.28 1.72 3.89-.09 3.57-1.29l-.38-1.3c5.81 1.86 13.15-11.2 13.21-11.33 1.46-1.49 4-1.78 5-1.84 2.34-.13 3.21-2.52 5.12-3.32a2 2 0 0 1 1.9.06c.81.41.87.44 1.26-.32.85-1.66 1.31-3.47 2-5.19.39-1 .16-2.17 1.15-2.9 1.14-.83 1.56-1.15 1.28-2.07a1.62 1.62 0 0 1-.06-.58c5.43-.06 9-4.67 9-4.72a1.52 1.52 0 0 0 .06-.2c.1-.61-.22-1.2-.13-1.81.14-.93 1.72-1.71.82-2.65-.64-.67-1.61-.36-2.33-.8-2.32-1.42-3.2-4.18-5.34-5.77-3.2-2.36-6.67-4.3-10-6.48-1.83-1.52-1.16-4-2-5.88-1.71-2.22-2.54-5.15-4.39-7.28-2.43-2.79-6.36-3.52-8.73-6.39-1.86-2.28-2.6-5.28-4.72-7.4a5.14 5.14 0 0 0-1.16-.86c-11.67-6.18-20.89-11.07-25.42-1.69-2.74-3.88-13.59-3.07-10.58-8.84a11.25 11.25 0 0 0 1.18-6.76c-2.35-2.44-5.78-2-8.59-3.17 2.05-2.81 2.05-2.81 1.88-4.52a17.7 17.7 0 0 0 3.65-5c-.37-.67-3.81-6.23-8.64 4.25-1.62-.68-3.5 1.26-5-.49-3.55-4.1-3.92-7.86-3.83-9.74.11-2.32 2.45-3.35 3.11-5.35.42-1.28-1.07-2.49-.12-3.79 1.24-1.67 6-4 7-4.33 1.85-.61 7 2.64 7.07 2.67l.65-.24c-.26-.62-.84-1-1.19-1.56l.35-.58c1.35-.25 10.57 2.11 10.61 2.15 3.11 3.39-1.12 8 1.81 11.38 6-3.06.41-9.57 2.8-13.91 2.47-4.49 7.63-3.93 11.36-6h-.06l-.24-.58c.09-.16.19-.38.27-.55h.62l.31-.67-.48-.4 4-8.44c-.38 1.32-1.77 5.26-1.77 5.27.5-.13.5-.13 2.89-5.75a7.21 7.21 0 0 1 .38 2.16c1.26-1.07 1.62-2.93 3.25-3.68a65.56 65.56 0 0 1 6.54-.85c2.07-4.35 2.07-4.35 5.43-5.83.42.17.42.17 9.26-1.5l-.42.43a4 4 0 0 0 1.23.73l-.23.64c-5.31 1.52-5.31 1.52-5.68 2.38 2.86 1.07 13.55-1 13.36-5.52-1.5.38-2.08 1.87-3.2 2.71l-2.12-1.49a2.33 2.33 0 0 0 1.41-.44.57.57 0 0 0-.25-.07 3.49 3.49 0 0 1-2-.9 1 1 0 0 1-.23-1.3c.07-.18.05-.2 0-.23a2.3 2.3 0 0 0-.67 1.63c-.92-.91-.92-1.54-.88-3-.9-.74-.94-.85-1.19-1.55 1.7.12 2.93.21 3.81-1.23-.52-1.07-.52-1.07-14 2 10.42-5.26 10.42-5.26 19.09-4.88 1.35 1.84 10.76.69 12.76-1.11 0-1.1 0-1.1 1-2.32 0-.26-.05-.39-.09-.64l-1.84-1.13-.57-.2a8.26 8.26 0 0 0-4.2.24v-.62c1-.68 1.3-.7 4-.78a1.06 1.06 0 0 0 .47-.13c.2-.24-1.09-2.48-3.63-2.69-.57-.05-.57-.05-.82-.24 0-.5.54-.87.37-1.42-.24-.74-1.16-.9-1.39-1.64-.09-.32.11-.49.63-.85.76-.54.76-.54.34-2.93-1.05-6-1.05-6-3.36-3.88-.36.34 0 .95-.46 1.24s-1.15-.37-1.73 0c-1.3.9-1.3.9-1.57.88-1.7-.07-2.33-1.69-3.56-2.45-.09-.5 1.4-3.06 2.44-3.43-.69-.53-1.65-.44-2.33-1-.16-.14-.23-.3-.32-.8 0-.17-.11-.56-1.82-1.88a1.64 1.64 0 0 0-.82-.4c-1.93-.15-3.68-1.2-5.65-1.09-.27 1.75-2.8 2.51-2 4.7-.54.71-1.68.61-2.06 1.53-.45 1.07.43 2.09.1 3.15 0 .05-1.42 4.29-4.05 4-.58-.06-1.92-.1-2 .88a3.56 3.56 0 0 1-.88.35c-1.5 2.22-1 5.84-4.43 6.79-.41-1.64-1.82-2.57-2.73-3.86a4.31 4.31 0 0 0 1.25-3.5l.88-.32c0-.11.11-.31.12-.43a5.93 5.93 0 0 0-.69-.29c-.76-1.51-2.5-1-3.61-1.76s-1.34-2.28-2.39-3.12a4.48 4.48 0 0 0-.64-.43c-1-.57-2.1 0-3.15-.1-.24-.39-.24-.39.23-3.05.15-.92.15-.92-1.85-1.81.47-2.84 8.68-5.38 12.18-6.47 0-1-1.08-.91-1.47-1.52 5.75.94 5.75.94 10-1.26-2.22-.37-2.68-.45-4-2 2.26 0 4.41 2.16 6.77.34a1.38 1.38 0 0 0-.52-.41s1.44-.87 2.26.17c3.95 0 3.95 0 5.15-.53a2.93 2.93 0 0 0 .81-.46c.6-.51.22-1.41.79-1.93s1.23-.16 1.8-.45c.33-.21.5-.57.78-.83 0-.05-1.92-4.1-4.41-.17-2.19.4-5 4.21-6.51 1.45.66-1.24 3.61-1.15 2.82-2.89-1.59 0-2.65 1.26-4 1.81 0-.8 2.09-2.16 2.12-2.18a9.65 9.65 0 0 0-1.31-.54c3.41-2.75 3.41-2.75 3.56-3.17l-.24-.36c1.92-1.49 1.92-1.49 8.93-2.87a2.61 2.61 0 0 0-1.08-.3c-5-.54-14.38 6-14.46 6s0 .26.05.38c.49.17 1 .23 1.52.38v.33a5.38 5.38 0 0 0-2 .47l-.09.24.28.17c-1.59 1.35-4 1.17-5.43 2.76-.48-1.05-.48-1.05 1.47-2.07-.74-.49-.74-.49-4.12.66-.19.06-1.27.32-4.48-1-.1-.38.08-.78 0-1.16-2.88-.25-4.2 1-6.85 3.52 0-.88.89-1.28 1.06-2-1.51-.27-3.08.49-4.56-.3.86-.4 2-.28 2.59-1.19l-.19-.29c-.41.07-.48.08-1.45-.39a3.31 3.31 0 0 0-.27-.65c-.77-.1-1.4.37-2.1.56a4.77 4.77 0 0 1 .63-.48 6.6 6.6 0 0 0-1.34.53 7.5 7.5 0 0 1 2-1.45l-2.33.88s-12.52 7.9-17.56 12.38a160.53 160.53 0 0 0-19.95 20.61Z"/><path d="M195.19 262.47c-.84.22-.27 1.41.51 1.84a6.65 6.65 0 0 0 2.68.54c.08-.09 0-.37-1.23-1.3s-1.62-1.04-1.96-1.08Zm141.6-53.98a13 13 0 0 1 1.27-.3c.51-.07 1 .3 1.53-.05.28-.2.42-.84.41-1.9a4.36 4.36 0 0 0-.21-1.3 1.08 1.08 0 0 1 .31-1.33 1.71 1.71 0 0 0 .53-1.07 2 2 0 0 0-.44-1.3 4.6 4.6 0 0 0-.41-.47c-.37-.36-.81-.63-1.18-1a1.49 1.49 0 0 1-.37-.49s0-.06-.07-.07-3.24-.31-1.79 1.33a.9.9 0 0 0 .38.27 1.07 1.07 0 0 1-.31.06 5.62 5.62 0 0 0-2.14.54 1.25 1.25 0 0 0-.69.94 1.21 1.21 0 0 0 .4.9c.3.31.73.38 1.07.61l-.08.14a13.73 13.73 0 0 0-1.79 2.44c-.37.67-.45 1-.31 1.4.23.6 2.2 1.05 3.89.65Zm15.79 42.8a.45.45 0 0 0 .34 0s.75-.42.76-.45c.13-.19-.18-.51-.82-.81s-1.88-.57-1.62.1a3.08 3.08 0 0 0 1.34 1.16Zm-9.11-45c-.13 0-.13 0-.14.18l.84.37a2.31 2.31 0 0 0-.7-.55Z"/><path d="M375.58 226.18a16.91 16.91 0 0 1 3.13 5.93c-.71-3.33-1.56-7.79-2.41-11.09-4-13.11-4.05-13.36-7-20.13L366 194l-.39-.71a30.78 30.78 0 0 0 1.49 3.43c-.3-.35-.52-.76-.79-1.14.21 1.28 1.07 2.26 1.6 3.4l-.23.06c-2.52-4.12-4.31-8.64-6.88-12.73 1.39 1.73 2.22 3.87 3.84 5.44-.16-1-3.93-7.58-6.74-11a19.75 19.75 0 0 1-2.39-3.15 3.31 3.31 0 0 1 .41.35 8.43 8.43 0 0 0-.88-1.19l-.24.08a12.36 12.36 0 0 1-1.87-2.24l.44.35c0-.79-2.67-3.32-2.88-3.47a2.81 2.81 0 0 0 .32 1.2c-.95-.76-1.1-2.1-2-2.87 0 .57.48 1 .52 1.55-.69.73-.69.73-.81 1.27-.18.82.78 6.15.79 6.19.87 3.55.44 4.53.39 4.63-1.31 2.56-1.31 2.56-3.16 3.1-.67.2-.73.39-.69 1.2 0 .11.71 10.72 4.94 10.32 1.36-.14 1.46-2.28 1.51-3.31.22.33 4.46 9.1 5 11.57.23 1.18.46 2.28 1.46 2.64a7.74 7.74 0 0 0 1.11-4.21c-.5-3.21-.06-3.4.91-3.81.25-.64.26-.91-1.19-2.83-1-1.32-1-1.32-1.78-4.81-.29-1.34 1.31-2.32.68-3.71-1.66-3.64-1.66-3.64-1.68-3.82v-.39l.2-.16c.86.67 3.35 4 3.35 4.71l-.27-.07c.54 6.51.54 6.51 2.15 9.57 1.39 2.67 4.66 3.48 6.08 6.14a5 5 0 0 1-.86-.73h-.25a8.44 8.44 0 0 0 .2.87 26.53 26.53 0 0 0-3.27-2.32c.71 2.38 2.18 4.49 2.5 7-1.34-.52-.74-2.53-2.24-2.93l-.23.17s.59 3.62.69 3.89.73 2.18.43 2.78c-.81-.36-.81-.36-1-.38-.21.22-.35.49-.55.71 0 .07.05.16.08.24-3.74-1.62-3.74-1.62-3.9-1.25l-.65.13a10.48 10.48 0 0 0-2.52-2l1.74 1a4.08 4.08 0 0 0-2.37-1.71c-.52-.16-.64-.19-1.49-2.33-.63-1.57-1.25-3.76-.66-5.23.24-.61.23-3.56-.44-3.88-.09 0-2.07-.74-2.07.35a48.42 48.42 0 0 0 2.06 8.56c.44 1.1.44 1.23.43 1.29s-.15.08-.73 0l-1.35-.23c-1-1.47-2.5-2.62-3.3-4.27a13.61 13.61 0 0 0-1.19-2.57 7 7 0 0 0-2.8-2.17c1-.42 3.27-3.5 1.19-4.32a6.6 6.6 0 0 0-1.12-.31c-1.39-.29-1.64-.35-1.53-.7.22-.7 1.87-1.58.92-2 0 0-2.64-.87-3.34-.08a.59.59 0 0 0-.08.32c-.17.86.17 1.72 0 2.58s-.87 1.17-.84 1.94c.18.16.63.26 1.79-.11.43-.14.8-.26 1 0 .76.85-.69 1.48-.63 2.33a3.11 3.11 0 0 0 1.71 2.8c1.39.94 1.56 1.06 1.78 1.35 0 .26-.27.46-.22.74.16.88.7 1.63.8 2.52-.09.86-.89.06-1.48-.52-.24-.25-.24-.25-1.08-.62 0 1.12.95 2 .79 3.15-.08.63-.73.74-1.63.84-.24 0-.61.07-.58.34s.22.66 2.09 1.26c.79.25 2.41.77 2.31 1.32a3.75 3.75 0 0 0-1.4-.13.59.59 0 0 0 0 .2 1.09 1.09 0 0 0-.69.11c-.52.23-.78.77-1.27 1s-1.3.42-1.9.74a.94.94 0 0 0 0 .16c.18.11.23.14 2.1.55a4.05 4.05 0 0 1-.56.8c-1.93-.79-2.16-1.13-2.79-2a14.3 14.3 0 0 0 .35 1.47l-.43.57a10.73 10.73 0 0 1-1.5 0c-.74-1-.74-1-2.25-1.52l-.49.5.89 1.57-.66.19c8.27 5.77 3.6 14.48 3.52 14.55-4.17-1.81-7.84-4.53-11.94-6.46a7.14 7.14 0 0 0 .43 1.43c-.05.11-3.57 11.66-2.26 12.61-1.63 3.37-1.63 3.37-1.82 3.67 3.05.81 3.69 1 4.86 1.72a16.64 16.64 0 0 0-.2 2.23l7.77.13c2 .44 3.34-1.83 2.88-3.83 2.71-4.18 2.77-4.19 6-4.31 1.34-3.68 1.34-3.68 1.74-3.82 1.72-.64 2.13 1.49 3.37 1.93 1.83-1.61 3.23-2.58 4.46-.44a155.89 155.89 0 0 1 5.26 15.24 2.51 2.51 0 0 0-.3 1.53c.13.33.65.37.59.84s-.35.76-.38 1.19a.58.58 0 0 0 .27.55.64.64 0 0 0 .15.05c-.29 1.28-1.2 1.1-4.63.4a22.25 22.25 0 0 0 2.07 4.68c.74-1 .42-2.3 1-3.33l.58.29c.78-.58 1.31-1.42 2.06-2v-.11a1.38 1.38 0 0 0 .86-.8c0-.12.08-.28.11-.41.09-.46.07-.94.16-1.41v-.1c.11.39.25.85.37 1.2a3.38 3.38 0 0 0-.19-1.85c.07-.23.14-.47.19-.71.15-.79-.09-1-.34-1.09a1.69 1.69 0 0 0-.51-.07l-.91-2.45.34-.52a1.18 1.18 0 0 0 .06.27s.6 1.59.66 1.64c.27 0 .7-1.93.83-2.95a13.16 13.16 0 0 0 .09-1.46l1.6 4.17v9l.57 7.82a12.19 12.19 0 0 0 .55-1.29 25.22 25.22 0 0 0 .7-5c.76-5.39.76-5.39 1.39-5.59.83.51 2.32 2.3 2.2 3.9a8.32 8.32 0 0 0 1-1l.68.2c2.22-4.37.34-9.48 2.52-13.85a1.93 1.93 0 0 1 1.16.47l-.47.48a5.23 5.23 0 0 0 1 1.77 3.74 3.74 0 0 1-.74 2.05 26.6 26.6 0 0 1 .59 2.76c2.66-.5.16-3.91 1.46-5.54 1.06.13 1.12.52 1.13 1.38l-.53.47c.15.67.15.67 0 2.82l-.56.41c.22 4.48 2.75 8.8 1 13.43l-.66.11c-1.46-1.95.13-6.13-3.25-6.41a2.17 2.17 0 0 1-.86 1c-.33-.25-.78-.57-1.12-.78a2.45 2.45 0 0 0 .23 1.25c-.93.35-1.75-.35-2.65-.24a8.87 8.87 0 0 0-.58 1.39l.53.38c-.52 2.44-1.48 7 .56 10.45l.6-.29.2-.64c.67 1.12.51 2.54 1.37 3.59a5.88 5.88 0 0 0 .73-1.17 3.66 3.66 0 0 0 .8 1.07c-2.64 9.05-3 10.43-4.86 12.49-1.23-.55-1.35-.9-1.32-2.3a1.89 1.89 0 0 0-1.24.08c-4.13-1.8-1.58-7.83-6-9.46-1.34 1.18-1.29 3.12-2.39 4.43h-.69c-.68-1-7.3-13.26-7.59-14.66-.09-.44.43-1 .78-1.26.82-.66.82-.66 2.26-6a19.22 19.22 0 0 0-1.51-1.83c-1.08.36-1.08.36-4.36-1.71a6.35 6.35 0 0 0-1.24.76c-4-3.43-9.51.32-13.54-2.88l-.67-.29c-1.39-.19-1.86-.26-2.68-2.45l-.21-.27a5.09 5.09 0 0 0-.76.32c-1.23.75-1.11 2.48-2.32 3.25-1.52.95-3.49.23-5 1.33-.44.32-.57 1.13-.78 1.64-2.25 5.48-2.25 5.48-4 5.68a17.6 17.6 0 0 0-5 1.52c-1.31 1.05-11.22 9.57-11.23 9.58-1.25 2.77-.21 5.84-1.14 8.65-.78 2.36-4.52 2.29-4.41 5.38.15 4.62 1 9.16 1.52 13.75.21 1.92 4.15 9.66 5.31 9.95 5.75 1.43 11.87 1.22 17.37 3.84a1.36 1.36 0 0 1 .43.49c.73 1.22-.55 2.52.15 3.74s2.12 1.23 3.1 2c0 2.47 0 2.47-1.71 4.29-4.62 5.05-4.62 5.05-4.82 6.89-.33 2.89-.78 6.85-7 13.71-2.88 3.15-6.86 4.81-10.12 7.44-3 2.45-4.59 6.17-7.5 8.73-11.33 10-11.6 10.09-13.13 10.85a8.34 8.34 0 0 0-3 2.31c3.18 2.36 8.38 1 10.09.52l6.9-1.95 8.95-3.12c2.16-1.09 3.85-2.91 6.09-3.88 2.56-1.11 5.44-1.06 8-2.22 6.09-2.76 13.36-9.93 14.18-10.85 3.27-3.68 11.62-8.16 14.08-9.43 3.91-2.13 10.55-9 12.62-11.87-.63-.49-.63-.49-2-.66-.15-.49-.15-.49 2.24-5.41.89-1.82 1.11-3.84 1.74-5.74 1.63-4.94 4.3-9.48 5.58-14.55l4.01-16.04c.14.59.14.59-.32 2.94a2.81 2.81 0 0 0 1.14-1c-.93 12.79-8.41 23.32-12.14 35.13 1.49-.15 1.49-.15 2 .18 5.95-6.11 5.95-6.11 6.44-7l-.35.66.69-1.21.21-.4 1.32-2.57c.59-1.18 1.32-2.66 3.08-6.76l-.24.63c1.44-3.58 3.28-8 4.48-11.53 1-3.61 2.54-8.41 3.42-12.06l.6-3.1c.13-3.11.21-3.59 2-14.09a.89.89 0 0 0 0 .15c.67-14.94.67-14.94.84-15.62v.08a83.62 83.62 0 0 0-.57-11.3l-1.36-10a18.15 18.15 0 0 0-3.02-5.95Zm-25.1-16.55c.06 0 .08 0 .57.31l-.64-.24Zm12.25 35.75s0 .06-.05.09a8.37 8.37 0 0 0-.4 1.38 1 1 0 0 1-.66.7.45.45 0 0 0-.33.36v.09c-1.28-1.21-2.3-2.28-3.45-12a2.36 2.36 0 0 1 1.22-.45l3.76 9.78a.3.3 0 0 0-.09.05Z"/><path d="M379.73 250.3c2.45 72.5-50.32 132.13-122.81 136.77C392.26 323.68 380.61 184 247.37 124c66.71-3.72 129.91 53.79 132.36 126.3Z" style="opacity:.4"/></g><path d="M134.5 209.2c.39.16-1.29 4.88-3.24 12.68l-.75 3.07c-.25 1.06-.45 2.19-.69 3.34-.52 2.31-.89 4.8-1.33 7.41a142.15 142.15 0 0 0-1.05 34.4c.29 2.64.5 5.15.88 7.48.18 1.17.3 2.3.5 3.38l.55 3.11c1.48 7.9 2.87 12.72 2.47 12.85s-2.3-4.54-4.27-12.47l-.73-3.11c-.26-1.11-.43-2.24-.65-3.41-.48-2.36-.78-4.91-1.13-7.59a121.39 121.39 0 0 1 1.06-35c.51-2.65 1-5.18 1.59-7.5.3-1.16.54-2.3.86-3.36l.91-3.07c2.44-7.81 4.75-12.32 5.02-12.21Z" style="fill:#fff"/><path d="M360.56 301.86a5.14 5.14 0 0 0-4.1-2.73 15 15 0 0 0-5.11.46 7.63 7.63 0 0 0-13.3-7.26c-.42-3.67-5.46-5.38-8.66-3.52s-4.51 5.91-4.31 9.6a7 7 0 0 0-7.91 1.61 6.88 6.88 0 0 0-1.69 4.65 3.88 3.88 0 0 0 3.52 3.77c6.1.64 21.22 1.5 31.84.72 2.23-.16 5.9-.07 7.7-1.41s2.93-3.84 2.02-5.89Z" style="fill:#fff;fill-rule:evenodd"/><path d="M347.39 299.67a18.07 18.07 0 0 1 4.26-.53 7.91 7.91 0 0 0-3.57-9.12 7.67 7.67 0 0 0-5.76-.54 7.3 7.3 0 0 1 1.66.64 7.89 7.89 0 0 1 3.41 9.55Zm-16.17-11.52c1.93.58 4.82 6.12 5.06 8.12a7.92 7.92 0 0 1 1.77-3.94c-.57-2.33-1.4-4.46-6.83-4.18Zm29.49 13.69a5.14 5.14 0 0 0-4.11-2.73 11.5 11.5 0 0 0-3.65.18 5 5 0 0 1 3.65 2.65c.91 2.05-.22 4.55-2 5.89s-5.47 1.25-7.7 1.41c-1.21.09-2.47.16-3.77.2 2.76 0 5.44-.12 7.88-.3 2.23-.16 5.9-.07 7.7-1.41s2.91-3.84 2-5.89Z" style="fill:#e0e0e0;fill-rule:evenodd"/><path d="M88.83 385.59a5.9 5.9 0 0 0-4.69-3.13 17.5 17.5 0 0 0-5.84.54 8.72 8.72 0 0 0-15.21-8.3c-.48-4.2-6.25-6.15-9.9-4s-5.15 6.77-4.93 11a8 8 0 0 0-9 1.84 7.87 7.87 0 0 0-1.93 5.31 4.45 4.45 0 0 0 4 4.32c7 .73 24.27 1.72 36.4.82 2.56-.19 6.75-.08 8.81-1.61s3.33-4.44 2.29-6.79Z" style="fill:#fff;fill-rule:evenodd"/><path d="M73.77 383.09a21.16 21.16 0 0 1 4.87-.61 9.06 9.06 0 0 0-4.08-10.43 8.76 8.76 0 0 0-6.59-.61 8.09 8.09 0 0 1 1.9.72 9 9 0 0 1 3.9 10.93Zm-18.48-13.18c2.2.66 5.51 7 5.77 9.29.74-3.3 2-4.5 2-4.5-.62-2.7-1.58-5.11-7.77-4.79ZM89 385.57a5.9 5.9 0 0 0-4.69-3.13 14 14 0 0 0-4.18.21 5.75 5.75 0 0 1 4.18 3c1 2.35-.26 5.2-2.32 6.74s-6.25 1.42-8.81 1.61c-1.37.1-2.81.18-4.3.24 3.15 0 6.21-.14 9-.35 2.56-.19 6.75-.08 8.81-1.61s3.31-4.36 2.31-6.71Z" style="fill:#e0e0e0;fill-rule:evenodd"/><path d="M88.83 385.59a3.38 3.38 0 0 1 .4 1.34 5.84 5.84 0 0 1-1.07 3.83 6.53 6.53 0 0 1-2.12 2 9.8 9.8 0 0 1-3.33 1c-1.23.18-2.56.24-3.95.32s-2.88.21-4.43.27c-6.22.29-13.63.24-21.84-.15-2.05-.1-4.16-.23-6.3-.38l-3.26-.26-1.64-.16a5 5 0 0 1-1.69-.49 4.71 4.71 0 0 1-2.31-2.61 6.27 6.27 0 0 1 0-3.54 7.61 7.61 0 0 1 4.5-5.35 8.22 8.22 0 0 1 6.61 0l-.36.25a14.79 14.79 0 0 1 1.12-6.61 9.42 9.42 0 0 1 4.31-4.8 7.61 7.61 0 0 1 6.18-.08 6.55 6.55 0 0 1 2.49 1.76 5.06 5.06 0 0 1 1.21 2.73l-.41-.11a9.15 9.15 0 0 1 6.35-3.62 8.62 8.62 0 0 1 6.44 1.78 9.24 9.24 0 0 1 3.1 5.13 8.71 8.71 0 0 1-.37 5.2l-.16-.19a20 20 0 0 1 5-.58 7.4 7.4 0 0 1 3.57 1 5.29 5.29 0 0 1 1.68 1.59 3 3 0 0 1 .35.71s-.12-.24-.42-.67a5.26 5.26 0 0 0-1.69-1.49 7.3 7.3 0 0 0-3.5-.93 20.87 20.87 0 0 0-4.89.64l-.27.06.1-.26a8.42 8.42 0 0 0 .31-5 9 9 0 0 0-3-4.91 8.19 8.19 0 0 0-6.14-1.65 8.69 8.69 0 0 0-6 3.46l-.35.49-.07-.6a5.24 5.24 0 0 0-3.43-4.1 7.16 7.16 0 0 0-5.77.09 8.89 8.89 0 0 0-4.06 4.55 14.31 14.31 0 0 0-1.08 6.38v.43l-.4-.18a7.7 7.7 0 0 0-6.19 0 7.22 7.22 0 0 0-2.72 2 7.44 7.44 0 0 0-1.48 3 5.94 5.94 0 0 0 0 3.24 4.2 4.2 0 0 0 2.07 2.33 4.41 4.41 0 0 0 1.5.45l1.58.1 3.24.27q3.22.22 6.29.39a248 248 0 0 0 21.8.26c1.56-.05 3-.17 4.43-.23s2.71-.12 3.93-.28a9.81 9.81 0 0 0 3.25-.89 6.17 6.17 0 0 0 2.07-1.9 5.86 5.86 0 0 0 1.14-3.71 6.44 6.44 0 0 0-.32-1.32Z" style="fill:#263238"/><path d="M381.64 179.62a5.92 5.92 0 0 0-4.7-3.13 17.54 17.54 0 0 0-5.84.54 8.72 8.72 0 0 0-15.2-8.3c-.49-4.2-6.25-6.15-9.91-4s-5.15 6.77-4.92 11a8 8 0 0 0-9.05 1.84 7.87 7.87 0 0 0-1.93 5.31 4.45 4.45 0 0 0 4 4.32c7 .73 24.26 1.71 36.4.82 2.55-.19 6.75-.08 8.81-1.61s3.37-4.41 2.34-6.79Z" style="fill:#fff;fill-rule:evenodd"/><path d="M366.57 177.12a21.3 21.3 0 0 1 4.87-.61 9 9 0 0 0-4.07-10.43 8.77 8.77 0 0 0-6.59-.61 8.18 8.18 0 0 1 1.89.72 9 9 0 0 1 3.9 10.93Zm-18.48-13.18c2.21.66 5.51 7 5.78 9.29.74-3.31 2-4.5 2-4.5-.63-2.73-1.58-5.11-7.78-4.79Zm33.72 15.66a5.92 5.92 0 0 0-4.7-3.13 13.6 13.6 0 0 0-4.17.21 5.74 5.74 0 0 1 4.17 3c1 2.35-.26 5.2-2.31 6.74s-6.25 1.42-8.81 1.61c-1.37.1-2.82.18-4.3.24 3.14 0 6.21-.14 9-.35 2.55-.19 6.75-.08 8.81-1.61s3.34-4.31 2.31-6.71Z" style="fill:#e0e0e0;fill-rule:evenodd"/><path d="M381.64 179.62A3.6 3.6 0 0 1 382 181a5.8 5.8 0 0 1-1.08 3.83 6.49 6.49 0 0 1-2.11 2 9.86 9.86 0 0 1-3.34 1c-1.23.18-2.55.24-3.95.32s-2.87.21-4.42.27c-6.22.29-13.63.24-21.84-.15-2.06-.11-4.16-.23-6.31-.38l-3.25-.26-1.65-.16a5 5 0 0 1-1.68-.49 4.77 4.77 0 0 1-2.32-2.61 6.45 6.45 0 0 1 0-3.54 7.84 7.84 0 0 1 1.59-3.2 7.62 7.62 0 0 1 2.92-2.15 8.22 8.22 0 0 1 6.61 0l-.37.24a14.89 14.89 0 0 1 1.12-6.6 9.44 9.44 0 0 1 4.32-4.8 7.58 7.58 0 0 1 6.17-.08 6.4 6.4 0 0 1 2.49 1.76 5.15 5.15 0 0 1 1.22 2.73l-.42-.11a9.15 9.15 0 0 1 6.36-3.62 8.55 8.55 0 0 1 6.43 1.78 9.26 9.26 0 0 1 3.11 5.13 8.71 8.71 0 0 1-.37 5.2l-.17-.19a20.51 20.51 0 0 1 5-.59 7.47 7.47 0 0 1 3.57 1 5.07 5.07 0 0 1 1.68 1.59 2.88 2.88 0 0 1 .36.71s-.12-.24-.42-.67a5.21 5.21 0 0 0-1.7-1.49 7.26 7.26 0 0 0-3.49-.93 20.37 20.37 0 0 0-4.9.64l-.26.06.1-.26a8.43 8.43 0 0 0 .3-5 9 9 0 0 0-3-4.91 8.15 8.15 0 0 0-6.14-1.65 8.69 8.69 0 0 0-6 3.46l-.36.49-.06-.6a5.28 5.28 0 0 0-3.43-4.1 7.16 7.16 0 0 0-5.77.09 8.91 8.91 0 0 0-4.07 4.55 14.44 14.44 0 0 0-1.07 6.38v.43l-.39-.18a7.66 7.66 0 0 0-6.19 0 7.22 7.22 0 0 0-2.72 2 7.44 7.44 0 0 0-1.48 3 5.76 5.76 0 0 0 0 3.24 4.21 4.21 0 0 0 2.06 2.33 4.41 4.41 0 0 0 1.5.45l1.65.16 3.24.27q3.21.22 6.29.39a248 248 0 0 0 21.8.26c1.55 0 3-.17 4.42-.23s2.72-.12 3.93-.28a9.94 9.94 0 0 0 3.26-.89 6.28 6.28 0 0 0 2.07-1.91 5.74 5.74 0 0 0 1.13-3.7 8.12 8.12 0 0 0-.33-1.41Z" style="fill:#263238"/><path d="M171 337.43a5.89 5.89 0 0 0-4.69-3.13 17.23 17.23 0 0 0-5.84.53 8.72 8.72 0 0 0-15.2-8.3c-.49-4.19-6.26-6.15-9.91-4s-5.15 6.77-4.92 11a8 8 0 0 0-9.06 1.84 7.85 7.85 0 0 0-1.93 5.31 4.46 4.46 0 0 0 4 4.32c7 .73 24.27 1.71 36.4.82 2.56-.19 6.76-.09 8.81-1.62s3.34-4.43 2.34-6.77Z" style="fill:#fff;fill-rule:evenodd"/><path d="M155.92 334.92a20.61 20.61 0 0 1 4.87-.6 9 9 0 0 0-4.07-10.43 8.84 8.84 0 0 0-6.6-.62 8.11 8.11 0 0 1 1.9.73 9 9 0 0 1 3.9 10.92Zm-18.48-13.17c2.2.66 5.51 7 5.77 9.28.74-3.3 2-4.5 2-4.5-.62-2.71-1.57-5.1-7.77-4.78Zm33.71 15.66a5.89 5.89 0 0 0-4.69-3.13 13.37 13.37 0 0 0-4.18.21 5.73 5.73 0 0 1 4.18 3c1 2.34-.26 5.2-2.32 6.73s-6.25 1.43-8.8 1.62c-1.38.1-2.82.17-4.31.23 3.15 0 6.21-.14 9-.34 2.56-.19 6.76-.09 8.81-1.62s3.35-4.36 2.31-6.7Z" style="fill:#e0e0e0;fill-rule:evenodd"/><path d="M171 337.43a3.38 3.38 0 0 1 .4 1.34 5.84 5.84 0 0 1-1.07 3.83 6.4 6.4 0 0 1-2.12 2 10 10 0 0 1-3.33 1c-1.23.17-2.56.24-4 .31s-2.88.21-4.43.27c-6.21.3-13.63.24-21.84-.15q-3.07-.15-6.3-.37l-3.25-.26-1.65-.16a4.81 4.81 0 0 1-4-3.11 6.42 6.42 0 0 1 0-3.53 7.56 7.56 0 0 1 4.5-5.35 8.2 8.2 0 0 1 6.62 0l-.37.25a14.82 14.82 0 0 1 1.12-6.61 9.46 9.46 0 0 1 4.31-4.8 7.69 7.69 0 0 1 6.18-.08 6.6 6.6 0 0 1 2.49 1.77 5.11 5.11 0 0 1 1.22 2.73l-.42-.11a9.11 9.11 0 0 1 6.35-3.62 8.53 8.53 0 0 1 6.44 1.78 9.25 9.25 0 0 1 3.1 5.12 8.75 8.75 0 0 1-.37 5.21l-.16-.2a20 20 0 0 1 5-.58 7.4 7.4 0 0 1 3.57 1 5.28 5.28 0 0 1 1.68 1.58 3 3 0 0 1 .35.72s-.12-.25-.42-.67a5.16 5.16 0 0 0-1.69-1.5 7.31 7.31 0 0 0-3.5-.92 19.86 19.86 0 0 0-4.89.64h-.27l.1-.25a8.46 8.46 0 0 0 .31-5 8.94 8.94 0 0 0-3-4.9 8.1 8.1 0 0 0-6.14-1.65 8.67 8.67 0 0 0-6 3.46l-.35.49-.06-.6a5.27 5.27 0 0 0-3.44-4.1 7.2 7.2 0 0 0-5.77.08 9 9 0 0 0-4.06 4.56 14.43 14.43 0 0 0-1.08 6.37v.43l-.39-.18a7.71 7.71 0 0 0-6.19 0 7.26 7.26 0 0 0-2.73 2 7.41 7.41 0 0 0-1.48 3 5.94 5.94 0 0 0 0 3.24 4.27 4.27 0 0 0 2.07 2.33 4.18 4.18 0 0 0 1.5.44l1.64.16 3.24.27c2.15.16 4.25.28 6.3.39 8.19.42 15.59.51 21.8.26 1.55 0 3-.16 4.42-.23s2.71-.11 3.93-.27a9.81 9.81 0 0 0 3.25-.89 6.3 6.3 0 0 0 2.07-1.91 5.84 5.84 0 0 0 1.14-3.7 6.22 6.22 0 0 0-.33-1.33Z" style="fill:#263238"/><path d="M177.43 453.73a3.6 3.6 0 0 0-2.88-1.92 10.69 10.69 0 0 0-3.59.33 5.35 5.35 0 0 0-9.33-5.1c-.29-2.57-3.83-3.77-6.08-2.47s-3.16 4.15-3 6.74a4.89 4.89 0 0 0-5.55 1.13 4.81 4.81 0 0 0-1.19 3.26 2.72 2.72 0 0 0 2.47 2.65 155.32 155.32 0 0 0 22.35.51c1.57-.12 4.14-.06 5.4-1a3.6 3.6 0 0 0 1.4-4.13Z" style="fill:#fff;fill-rule:evenodd"/><path d="M168.19 452.19a13.16 13.16 0 0 1 3-.37 5.55 5.55 0 0 0-2.51-6.4 5.39 5.39 0 0 0-4-.38 5 5 0 0 1 1.16.45 5.54 5.54 0 0 1 2.35 6.7Zm-11.35-8.08c1.36.4 3.38 4.29 3.55 5.7a5.61 5.61 0 0 1 1.24-2.77c-.4-1.66-.98-3.13-4.79-2.93Zm20.7 9.61a3.63 3.63 0 0 0-2.89-1.92 8.17 8.17 0 0 0-2.56.13 3.48 3.48 0 0 1 2.56 1.86 3.6 3.6 0 0 1-1.42 4.13c-1.26.94-3.83.88-5.4 1-.85.06-1.73.11-2.64.14 1.93 0 3.81-.08 5.52-.21s4.15 0 5.41-1a3.62 3.62 0 0 0 1.42-4.13Z" style="fill:#e0e0e0;fill-rule:evenodd"/><path d="M177.43 453.73a2.17 2.17 0 0 1 .25.82 3.61 3.61 0 0 1-.66 2.35 4 4 0 0 1-1.3 1.24 6.13 6.13 0 0 1-2.05.59c-.75.11-1.57.14-2.42.19s-1.77.13-2.72.17c-3.81.18-8.36.14-13.4-.1-1.26-.06-2.56-.13-3.87-.23l-2-.16-1-.09a3 3 0 0 1-2.46-1.91 3.91 3.91 0 0 1 0-2.17 4.73 4.73 0 0 1 1-2 4.68 4.68 0 0 1 1.79-1.31 5 5 0 0 1 4.06 0l-.23.15a9.1 9.1 0 0 1 .69-4.05 5.8 5.8 0 0 1 2.65-2.95 4.68 4.68 0 0 1 3.79-.05 4.06 4.06 0 0 1 1.53 1.08 3.25 3.25 0 0 1 .75 1.68l-.26-.07a5.6 5.6 0 0 1 3.9-2.22 5.22 5.22 0 0 1 4 1.09 5.77 5.77 0 0 1 1.91 3.15 5.41 5.41 0 0 1-.23 3.19l-.1-.12a12.29 12.29 0 0 1 3-.35 4.44 4.44 0 0 1 2.19.62 3 3 0 0 1 1 1 1.69 1.69 0 0 1 .22.44s-.07-.15-.26-.41a3 3 0 0 0-1-.92 4.53 4.53 0 0 0-2.14-.57 12.42 12.42 0 0 0-3 .4h-.16l.06-.15a5.15 5.15 0 0 0 .19-3.08 5.52 5.52 0 0 0-1.85-3 5 5 0 0 0-3.77-1 5.35 5.35 0 0 0-3.7 2.13l-.22.3v-.37a3.24 3.24 0 0 0-2.1-2.52 4.41 4.41 0 0 0-3.54 0 5.49 5.49 0 0 0-2.5 2.8 8.75 8.75 0 0 0-.66 3.91v.27l-.24-.11a4.67 4.67 0 0 0-3.79 0 4.5 4.5 0 0 0-1.68 1.23 4.42 4.42 0 0 0-.9 1.83 3.64 3.64 0 0 0 0 2 2.59 2.59 0 0 0 1.27 1.43 2.73 2.73 0 0 0 .92.28l1 .1 2 .16c1.31.1 2.6.17 3.86.24 5 .25 9.57.31 13.38.16.95 0 1.85-.1 2.72-.14s1.66-.07 2.41-.17a6.06 6.06 0 0 0 2-.55 3.89 3.89 0 0 0 1.27-1.17 3.55 3.55 0 0 0 .69-2.27 4 4 0 0 0-.29-.79Z" style="fill:#263238"/><path d="M340.82 47.71a3.65 3.65 0 0 0-2.88-1.92 10.9 10.9 0 0 0-3.59.33A5.35 5.35 0 0 0 325 41c-.3-2.58-3.84-3.78-6.08-2.48s-3.16 4.15-3 6.74a4.72 4.72 0 0 0-6.75 4.39 2.74 2.74 0 0 0 2.48 2.65 153.73 153.73 0 0 0 22.34.51c1.57-.12 4.15-.06 5.41-1a3.64 3.64 0 0 0 1.42-4.1Z" style="fill:#fff;fill-rule:evenodd"/><path d="M331.57 46.18a12.7 12.7 0 0 1 3-.38 5.56 5.56 0 0 0-2.5-6.4A5.42 5.42 0 0 0 328 39a4.88 4.88 0 0 1 1.17.45 5.53 5.53 0 0 1 2.4 6.73Zm-11.34-8.09c1.35.4 3.38 4.29 3.54 5.7A5.58 5.58 0 0 1 325 41c-.39-1.64-1-3.11-4.77-2.91Zm20.69 9.61a3.63 3.63 0 0 0-2.92-1.92 8.17 8.17 0 0 0-2.56.13 3.52 3.52 0 0 1 2.56 1.86 3.62 3.62 0 0 1-1.42 4.13c-1.26.94-3.84.88-5.41 1-.84.06-1.73.11-2.64.15 1.93 0 3.81-.09 5.53-.22 1.57-.11 4.14 0 5.4-1a3.61 3.61 0 0 0 1.46-4.13Z" style="fill:#e0e0e0;fill-rule:evenodd"/><path d="M340.82 47.71a2.1 2.1 0 0 1 .24.83 3.54 3.54 0 0 1-.66 2.34 3.79 3.79 0 0 1-1.3 1.24 6.08 6.08 0 0 1-2 .59c-.76.11-1.57.15-2.43.19s-1.76.13-2.71.17c-3.82.18-8.37.14-13.41-.09-1.26-.07-2.55-.14-3.87-.24l-2-.16-1-.09a3 3 0 0 1-2.45-1.91 4 4 0 0 1 0-2.17 5 5 0 0 1 1-2 4.83 4.83 0 0 1 1.79-1.31 5 5 0 0 1 4.06 0l-.22.15a9.1 9.1 0 0 1 .69-4 5.74 5.74 0 0 1 2.64-3 4.68 4.68 0 0 1 3.79 0 4 4 0 0 1 1.53 1.08 3.17 3.17 0 0 1 .75 1.68l-.26-.07a5.62 5.62 0 0 1 3.9-2.22 5.25 5.25 0 0 1 3.95 1.09 5.72 5.72 0 0 1 1.81 3.19 5.33 5.33 0 0 1-.23 3.19l-.1-.12a12.36 12.36 0 0 1 3.05-.35 4.5 4.5 0 0 1 2.19.62 3.13 3.13 0 0 1 1 1 2.27 2.27 0 0 1 .22.44s-.08-.15-.26-.41a3.38 3.38 0 0 0-1-.92 4.57 4.57 0 0 0-2.15-.57 12.35 12.35 0 0 0-3 .4h-.16l.06-.15a5.31 5.31 0 0 0 .19-3.08 5.48 5.48 0 0 0-1.86-3 5 5 0 0 0-3.77-1 5.31 5.31 0 0 0-3.69 2.13l-.22.3v-.37a3.25 3.25 0 0 0-2.11-2.52 4.37 4.37 0 0 0-3.54.06 5.48 5.48 0 0 0-2.5 2.79 8.89 8.89 0 0 0-.65 3.91v.27l-.24-.11a4.74 4.74 0 0 0-3.8 0 4.46 4.46 0 0 0-1.67 1.23 4.55 4.55 0 0 0-.91 1.84 3.54 3.54 0 0 0 0 2 2.58 2.58 0 0 0 1.26 1.42 2.78 2.78 0 0 0 .93.28l1 .1 2 .16c1.32.1 2.61.17 3.87.24 5 .26 9.57.31 13.38.16.95 0 1.85-.1 2.71-.14s1.67-.07 2.41-.17a5.93 5.93 0 0 0 2-.55 3.7 3.7 0 0 0 1.27-1.17 3.57 3.57 0 0 0 .7-2.27 5.11 5.11 0 0 0-.22-.93Z" style="fill:#263238"/><path d="M188.34 201.55a3.65 3.65 0 0 0-2.88-1.92 10.9 10.9 0 0 0-3.59.33 5.35 5.35 0 0 0-9.33-5.09c-.3-2.58-3.83-3.78-6.08-2.48s-3.16 4.15-3 6.74a4.93 4.93 0 0 0-5.56 1.13 4.87 4.87 0 0 0-1.18 3.26 2.72 2.72 0 0 0 2.47 2.65 153.87 153.87 0 0 0 22.35.51c1.56-.12 4.14-.05 5.4-1a3.62 3.62 0 0 0 1.4-4.13Z" style="fill:#fff;fill-rule:evenodd"/><path d="M179.09 200a12.7 12.7 0 0 1 3-.38 5.55 5.55 0 0 0-2.5-6.4 5.34 5.34 0 0 0-4-.37 5 5 0 0 1 1.16.44 5.54 5.54 0 0 1 2.34 6.71Zm-11.34-8.07c1.35.4 3.38 4.29 3.55 5.7a5.53 5.53 0 0 1 1.24-2.76c-.4-1.67-.99-3.14-4.79-2.94Zm20.7 9.61a3.63 3.63 0 0 0-2.89-1.92 8.17 8.17 0 0 0-2.56.13 3.5 3.5 0 0 1 2.56 1.86 3.61 3.61 0 0 1-1.42 4.13c-1.26.94-3.83.88-5.4 1-.85.07-1.73.11-2.65.15 1.94 0 3.82-.09 5.53-.21s4.14-.06 5.41-1a3.62 3.62 0 0 0 1.42-4.14Z" style="fill:#e0e0e0;fill-rule:evenodd"/><path d="M277.47 365.4a3.62 3.62 0 0 0-2.88-1.92 10.87 10.87 0 0 0-3.58.33 5.35 5.35 0 0 0-9.33-5.09c-.3-2.58-3.84-3.78-6.09-2.48s-3.16 4.15-3 6.74a4.89 4.89 0 0 0-5.55 1.13 4.83 4.83 0 0 0-1.19 3.26 2.72 2.72 0 0 0 2.48 2.65 153.68 153.68 0 0 0 22.34.51c1.57-.12 4.14 0 5.4-1a3.61 3.61 0 0 0 1.4-4.13Z" style="fill:#fff;fill-rule:evenodd;stroke:#333;stroke-width:.5px"/><path d="M268.23 363.87a12.63 12.63 0 0 1 3-.38 5.56 5.56 0 0 0-2.5-6.4 5.42 5.42 0 0 0-4.05-.38 5 5 0 0 1 1.16.45 5.55 5.55 0 0 1 2.39 6.71Zm-11.35-8.09c1.36.4 3.38 4.29 3.55 5.7a5.47 5.47 0 0 1 1.25-2.76c-.41-1.67-.99-3.14-4.8-2.94Zm20.7 9.61a3.63 3.63 0 0 0-2.88-1.92 8.22 8.22 0 0 0-2.57.13 3.48 3.48 0 0 1 2.56 1.86 3.6 3.6 0 0 1-1.42 4.13c-1.26.94-3.83.88-5.4 1q-1.28.09-2.64.15c1.93 0 3.81-.09 5.52-.21s4.15-.06 5.41-1a3.62 3.62 0 0 0 1.42-4.14Z" style="fill:#e0e0e0;fill-rule:evenodd"/><path d="M470.59 127.39a5.92 5.92 0 0 0-4.7-3.13 17.8 17.8 0 0 0-5.84.53 8.72 8.72 0 0 0-15.2-8.3c-.49-4.19-6.25-6.15-9.91-4s-5.15 6.77-4.92 11a8 8 0 0 0-9 1.84 7.87 7.87 0 0 0-2.02 5.27 4.45 4.45 0 0 0 4 4.32c7 .73 24.26 1.71 36.4.82 2.55-.19 6.75-.09 8.81-1.62s3.41-4.39 2.38-6.73Z" style="fill:#fff;fill-rule:evenodd"/><path d="M455.52 124.88a20.74 20.74 0 0 1 4.87-.6 9 9 0 0 0-4.07-10.43 8.82 8.82 0 0 0-6.59-.62 8.21 8.21 0 0 1 1.89.73 9 9 0 0 1 3.9 10.92ZM437 111.71c2.21.66 5.51 7 5.78 9.28.74-3.3 2-4.5 2-4.5-.59-2.71-1.54-5.1-7.78-4.78Zm33.76 15.66a5.92 5.92 0 0 0-4.7-3.13 13.29 13.29 0 0 0-4.17.21 5.71 5.71 0 0 1 4.17 3c1 2.34-.26 5.2-2.31 6.73s-6.25 1.43-8.81 1.62c-1.37.1-2.82.18-4.3.23 3.14 0 6.21-.14 9-.34 2.55-.19 6.75-.09 8.81-1.62s3.34-4.36 2.31-6.7Z" style="fill:#e0e0e0;fill-rule:evenodd"/><path d="M470.59 127.39a3.6 3.6 0 0 1 .4 1.34 5.8 5.8 0 0 1-1.08 3.83 6.49 6.49 0 0 1-2.11 2 10.09 10.09 0 0 1-3.34 1c-1.23.17-2.55.24-3.95.31s-2.87.21-4.42.27c-6.22.3-13.63.24-21.84-.15q-3.09-.15-6.31-.37l-3.25-.26-1.65-.16a4.81 4.81 0 0 1-4-3.11 6.42 6.42 0 0 1 0-3.53 7.94 7.94 0 0 1 1.59-3.21 7.7 7.7 0 0 1 2.92-2.14 8.22 8.22 0 0 1 6.61 0l-.37.25a14.89 14.89 0 0 1 1.12-6.6 9.46 9.46 0 0 1 4.32-4.81 7.66 7.66 0 0 1 6.17-.08 6.52 6.52 0 0 1 2.49 1.77 5.11 5.11 0 0 1 1.22 2.73l-.42-.11a9.11 9.11 0 0 1 6.36-3.62 8.51 8.51 0 0 1 6.43 1.78 9.26 9.26 0 0 1 3.11 5.13 8.72 8.72 0 0 1-.37 5.2l-.17-.2a20.46 20.46 0 0 1 5-.58 7.36 7.36 0 0 1 3.57 1 5.06 5.06 0 0 1 1.68 1.58 2.82 2.82 0 0 1 .36.72s-.12-.25-.42-.67a5.33 5.33 0 0 0-1.7-1.5 7.26 7.26 0 0 0-3.49-.92 19.88 19.88 0 0 0-4.9.64h-.26l.1-.25a8.46 8.46 0 0 0 .3-5 8.92 8.92 0 0 0-3-4.9 8.11 8.11 0 0 0-6.14-1.65 8.65 8.65 0 0 0-6 3.46l-.36.49-.06-.6a5.28 5.28 0 0 0-3.43-4.1 7.2 7.2 0 0 0-5.77.08 9 9 0 0 0-4.07 4.56 14.42 14.42 0 0 0-1.07 6.37v.43l-.39-.18a7.71 7.71 0 0 0-6.19 0 7.22 7.22 0 0 0-2.72 2 7.31 7.31 0 0 0-1.48 3 5.85 5.85 0 0 0 0 3.24 4.24 4.24 0 0 0 3.56 2.77l1.65.16 3.24.27q3.21.24 6.29.39c8.2.42 15.6.51 21.8.27 1.55-.05 3-.17 4.42-.24s2.72-.11 3.93-.27a9.94 9.94 0 0 0 3.26-.89 6.39 6.39 0 0 0 2.07-1.91 5.76 5.76 0 0 0 1.13-3.7 8.12 8.12 0 0 0-.37-1.33Z" style="fill:#263238"/></svg>
